<svg version="1.1" xmlns="http://www.w3.org/2000/svg" xmlns:xlink="http://www.w3.org/1999/xlink" width="1748" height="1404"><defs/><g><g transform="translate(10,10) scale(1,1)"><path fill="none" stroke="#000000" d="M 0 0 L 1728 0 L 1728 1384 L 0 1384 L 0 0" stroke-miterlimit="10"/></g><g transform="translate(10,10) scale(1,1)"><path fill="#ffffff" stroke="none" d="M 0 0 L 0 22 L 302 22 L 313 11 L 313 0 L 0 0"/></g><g transform="translate(10,10) scale(1,1)"><path fill="none" stroke="#000000" d="M 0 0 L 0 22 L 302 22 L 313 11 L 313 0 L 0 0 L 0 0" stroke-miterlimit="10"/></g><g transform="translate(10,10) scale(1,1)"><g><path fill="none" stroke="none"/><text fill="#000000" stroke="none" font-family="Arial" font-size="13px" font-style="normal" font-weight="normal" text-decoration="none" x="71" y="17.5">CU1 - Diagramme de séquence détaillé</text></g></g><g transform="translate(10,10) scale(1,1)"><g><path fill="none" stroke="none"/><text fill="#000000" stroke="none" font-family="Arial" font-size="13px" font-style="normal" font-weight="bold" text-decoration="none" x="5" y="17.5">interaction</text></g></g><g transform="translate(10,10) scale(1,1)"><rect fill="#C0C0C0" stroke="none" x="63" y="47" width="71.736328125" height="39" opacity="0.2"/></g><g transform="translate(10,10) scale(1,1)"><rect fill="#ffffff" stroke="none" x="56" y="40" width="71.736328125" height="39"/></g><g transform="translate(10,10) scale(1,1)"><path fill="none" stroke="#000000" d="M 56 40 L 127.736328125 40 L 127.736328125 79 L 56 79 L 56 40 Z Z" stroke-miterlimit="10"/></g><g transform="translate(10,10) scale(1,1)"><g><path fill="none" stroke="none"/><text fill="#000000" stroke="none" font-family="Arial" font-size="13px" font-style="normal" font-weight="bold" text-decoration="none" x="74.8681640625" y="59.5">Agent</text></g></g><g transform="translate(10,10) scale(1,1)"><path fill="none" stroke="#000000" d="M 92.5 80 L 92.5 1360" stroke-miterlimit="10" stroke-dasharray="3"/></g><g transform="translate(10,10) scale(1,1)"><rect fill="#C0C0C0" stroke="none" x="215" y="47" width="71.736328125" height="39" opacity="0.2"/></g><g transform="translate(10,10) scale(1,1)"><rect fill="#ffffff" stroke="none" x="208" y="40" width="71.736328125" height="39"/></g><g transform="translate(10,10) scale(1,1)"><path fill="none" stroke="#000000" d="M 208 40 L 279.736328125 40 L 279.736328125 79 L 208 79 L 208 40 Z Z" stroke-miterlimit="10"/></g><g transform="translate(10,10) scale(1,1)"><g><path fill="none" stroke="none"/><text fill="#000000" stroke="none" font-family="Arial" font-size="13px" font-style="normal" font-weight="bold" text-decoration="none" x="231.8681640625" y="59.5">IHM</text></g></g><g transform="translate(10,10) scale(1,1)"><path fill="none" stroke="#000000" d="M 244.5 80 L 244.5 1360" stroke-miterlimit="10" stroke-dasharray="3"/></g><g transform="translate(10,10) scale(1,1)"><rect fill="#C0C0C0" stroke="none" x="711" y="47" width="71.736328125" height="39" opacity="0.2"/></g><g transform="translate(10,10) scale(1,1)"><rect fill="#ffffff" stroke="none" x="704" y="40" width="71.736328125" height="39"/></g><g transform="translate(10,10) scale(1,1)"><path fill="none" stroke="#000000" d="M 704 40 L 775.736328125 40 L 775.736328125 79 L 704 79 L 704 40 Z Z" stroke-miterlimit="10"/></g><g transform="translate(10,10) scale(1,1)"><g><path fill="none" stroke="none"/><text fill="#000000" stroke="none" font-family="Arial" font-size="13px" font-style="normal" font-weight="bold" text-decoration="none" x="729.8681640625" y="59.5">SM</text></g></g><g transform="translate(10,10) scale(1,1)"><path fill="none" stroke="#000000" d="M 740.5 80 L 740.5 1360" stroke-miterlimit="10" stroke-dasharray="3"/></g><g transform="translate(10,10) scale(1,1)"><rect fill="#C0C0C0" stroke="none" x="1167" y="47" width="71.736328125" height="39" opacity="0.2"/></g><g transform="translate(10,10) scale(1,1)"><rect fill="#ffffff" stroke="none" x="1160" y="40" width="71.736328125" height="39"/></g><g transform="translate(10,10) scale(1,1)"><path fill="none" stroke="#000000" d="M 1160 40 L 1231.736328125 40 L 1231.736328125 79 L 1160 79 L 1160 40 Z Z" stroke-miterlimit="10"/></g><g transform="translate(10,10) scale(1,1)"><g><path fill="none" stroke="none"/><text fill="#000000" stroke="none" font-family="Arial" font-size="13px" font-style="normal" font-weight="bold" text-decoration="none" x="1179.3681640625" y="59.5">Client</text></g></g><g transform="translate(10,10) scale(1,1)"><path fill="none" stroke="#000000" d="M 1196.5 80 L 1196.5 1368" stroke-miterlimit="10" stroke-dasharray="3"/></g><g transform="translate(10,10) scale(1,1)"><rect fill="#C0C0C0" stroke="none" x="1351" y="47" width="80.84521484375" height="39" opacity="0.2"/></g><g transform="translate(10,10) scale(1,1)"><rect fill="#ffffff" stroke="none" x="1344" y="40" width="80.84521484375" height="39"/></g><g transform="translate(10,10) scale(1,1)"><path fill="none" stroke="#000000" d="M 1344 40 L 1424.84521484375 40 L 1424.84521484375 79 L 1344 79 L 1344 40 Z Z" stroke-miterlimit="10"/></g><g transform="translate(10,10) scale(1,1)"><g><path fill="none" stroke="none"/><text fill="#000000" stroke="none" font-family="Arial" font-size="13px" font-style="normal" font-weight="bold" text-decoration="none" x="1356.922607421875" y="59.5">Personne</text></g></g><g transform="translate(10,10) scale(1,1)"><path fill="none" stroke="#000000" d="M 1385.5 80 L 1385.5 1376" stroke-miterlimit="10" stroke-dasharray="3"/></g><g transform="translate(10,10) scale(1,1)"><rect fill="#C0C0C0" stroke="none" x="1527" y="47" width="71.736328125" height="39" opacity="0.2"/></g><g transform="translate(10,10) scale(1,1)"><rect fill="#ffffff" stroke="none" x="1520" y="40" width="71.736328125" height="39"/></g><g transform="translate(10,10) scale(1,1)"><path fill="none" stroke="#000000" d="M 1520 40 L 1591.736328125 40 L 1591.736328125 79 L 1520 79 L 1520 40 Z Z" stroke-miterlimit="10"/></g><g transform="translate(10,10) scale(1,1)"><g><path fill="none" stroke="none"/><text fill="#000000" stroke="none" font-family="Arial" font-size="13px" font-style="normal" font-weight="bold" text-decoration="none" x="1533.3681640625" y="59.5">Contact</text></g></g><g transform="translate(10,10) scale(1,1)"><path fill="none" stroke="#000000" d="M 1556.5 80 L 1556.5 1376" stroke-miterlimit="10" stroke-dasharray="3"/></g><g transform="translate(10,10) scale(1,1)"><rect fill="#C0C0C0" stroke="none" x="1639" y="47" width="71.736328125" height="39" opacity="0.2"/></g><g transform="translate(10,10) scale(1,1)"><rect fill="#ffffff" stroke="none" x="1632" y="40" width="71.736328125" height="39"/></g><g transform="translate(10,10) scale(1,1)"><path fill="none" stroke="#000000" d="M 1632 40 L 1703.736328125 40 L 1703.736328125 79 L 1632 79 L 1632 40 Z Z" stroke-miterlimit="10"/></g><g transform="translate(10,10) scale(1,1)"><g><path fill="none" stroke="none"/><text fill="#000000" stroke="none" font-family="Arial" font-size="13px" font-style="normal" font-weight="bold" text-decoration="none" x="1646.8681640625" y="59.5">Contrat</text></g></g><g transform="translate(10,10) scale(1,1)"><path fill="none" stroke="#000000" d="M 1668.5 80 L 1668.5 1368" stroke-miterlimit="10" stroke-dasharray="3"/></g><g transform="translate(10,10) scale(1,1)"><path fill="none" stroke="#000000" d="M 760 352 L 1416 352 L 1416 440 L 760 440 L 760 352" stroke-miterlimit="10"/></g><g transform="translate(10,10) scale(1,1)"><path fill="#ffffff" stroke="none" d="M 760 352 L 760 374 L 950 374 L 961 363 L 961 352 L 760 352"/></g><g transform="translate(10,10) scale(1,1)"><path fill="none" stroke="#000000" d="M 760 352 L 760 374 L 950 374 L 961 363 L 961 352 L 760 352 L 760 352" stroke-miterlimit="10"/></g><g transform="translate(10,10) scale(1,1)"><g><path fill="none" stroke="none"/><text fill="#000000" stroke="none" font-family="Arial" font-size="13px" font-style="normal" font-weight="normal" text-decoration="none" x="792" y="369.5">Boucle sur les IdPersonne</text></g></g><g transform="translate(10,10) scale(1,1)"><g><path fill="none" stroke="none"/><text fill="#000000" stroke="none" font-family="Arial" font-size="13px" font-style="normal" font-weight="bold" text-decoration="none" x="765" y="369.5">seq</text></g></g><g transform="translate(10,10) scale(1,1)"><path fill="none" stroke="#000000" d="M 760 728 L 1688 728 L 1688 793 L 760 793 L 760 728" stroke-miterlimit="10"/></g><g transform="translate(10,10) scale(1,1)"><path fill="#ffffff" stroke="none" d="M 760 728 L 760 750 L 940 750 L 951 739 L 951 728 L 760 728"/></g><g transform="translate(10,10) scale(1,1)"><path fill="none" stroke="#000000" d="M 760 728 L 760 750 L 940 750 L 951 739 L 951 728 L 760 728 L 760 728" stroke-miterlimit="10"/></g><g transform="translate(10,10) scale(1,1)"><g><path fill="none" stroke="none"/><text fill="#000000" stroke="none" font-family="Arial" font-size="13px" font-style="normal" font-weight="normal" text-decoration="none" x="792" y="745.5">Boucle sur les domaines</text></g></g><g transform="translate(10,10) scale(1,1)"><g><path fill="none" stroke="none"/><text fill="#000000" stroke="none" font-family="Arial" font-size="13px" font-style="normal" font-weight="bold" text-decoration="none" x="765" y="745.5">seq</text></g></g><g transform="translate(10,10) scale(1,1)"><g><path fill="none" stroke="none"/><text fill="#000000" stroke="none" font-family="Arial" font-size="13px" font-style="normal" font-weight="normal" text-decoration="none" x="333" y="698">liste&lt;Domaine, liste&lt;SouscriptionContrat, Contrat&gt;</text></g></g><g transform="translate(10,10) scale(1,1)"><path fill="none" stroke="#000000" d="M 92 152 L 237 152" stroke-miterlimit="10"/></g><g transform="translate(10,10) scale(1,1)"><path fill="#000000" stroke="none" d="M 226.83732514237585 156.209517756016 L 237 152 L 226.83732514237585 147.790482243984"/></g><g transform="translate(10,10) scale(1,1)"><path fill="none" stroke="#000000" d="M 226.83732514237585 156.209517756016 L 237 152 L 226.83732514237585 147.790482243984 L 226.83732514237585 156.209517756016" stroke-miterlimit="10"/></g><g transform="translate(10,10) scale(1,1)"><g><path fill="none" stroke="none"/><text fill="#000000" stroke="none" font-family="Arial" font-size="13px" font-style="normal" font-weight="normal" text-decoration="none" x="106" y="149">1 : consulterVue360</text></g></g><g transform="translate(10,10) scale(1,1)"><rect fill="#ffffff" stroke="none" x="237" y="152" width="13" height="664"/></g><g transform="translate(10,10) scale(1,1)"><path fill="none" stroke="#000000" d="M 237 152 L 250 152 L 250 816 L 237 816 L 237 152 Z Z" stroke-miterlimit="10"/></g><g transform="translate(10,10) scale(1,1)"><path fill="none" stroke="#000000" d="M 250 160 L 733 160" stroke-miterlimit="10"/></g><g transform="translate(10,10) scale(1,1)"><path fill="#000000" stroke="none" d="M 722.8373251423759 164.209517756016 L 733 160 L 722.8373251423758 155.790482243984"/></g><g transform="translate(10,10) scale(1,1)"><path fill="none" stroke="#000000" d="M 722.8373251423759 164.209517756016 L 733 160 L 722.8373251423758 155.790482243984 L 722.8373251423759 164.209517756016" stroke-miterlimit="10"/></g><g transform="translate(10,10) scale(1,1)"><g><path fill="none" stroke="none"/><text fill="#000000" stroke="none" font-family="Arial" font-size="13px" font-style="normal" font-weight="normal" text-decoration="none" x="349" y="157">2 : SM1.1 consulterEnTeteClient(idClient) : Client</text></g></g><g transform="translate(10,10) scale(1,1)"><rect fill="#ffffff" stroke="none" x="733" y="160" width="13" height="32"/></g><g transform="translate(10,10) scale(1,1)"><path fill="none" stroke="#000000" d="M 733 160 L 746 160 L 746 192 L 733 192 L 733 160 Z Z" stroke-miterlimit="10"/></g><g transform="translate(10,10) scale(1,1)"><path fill="none" stroke="#000000" d="M 746 176 L 1189 176" stroke-miterlimit="10"/></g><g transform="translate(10,10) scale(1,1)"><path fill="#000000" stroke="none" d="M 1178.837325142376 180.209517756016 L 1189 176 L 1178.837325142376 171.790482243984"/></g><g transform="translate(10,10) scale(1,1)"><path fill="none" stroke="#000000" d="M 1178.837325142376 180.209517756016 L 1189 176 L 1178.837325142376 171.790482243984 L 1178.837325142376 180.209517756016" stroke-miterlimit="10"/></g><g transform="translate(10,10) scale(1,1)"><g><path fill="none" stroke="none"/><text fill="#000000" stroke="none" font-family="Arial" font-size="13px" font-style="normal" font-weight="normal" text-decoration="none" x="823" y="172">3 : SOM1.1 : rechercherClient(IdClient) : Client</text></g></g><g transform="translate(10,10) scale(1,1)"><rect fill="#ffffff" stroke="none" x="1189" y="176" width="13" height="28"/></g><g transform="translate(10,10) scale(1,1)"><path fill="none" stroke="#000000" d="M 1189 176 L 1202 176 L 1202 204 L 1189 204 L 1189 176 Z Z" stroke-miterlimit="10"/></g><g transform="translate(10,10) scale(1,1)"><path fill="none" stroke="#000000" d="M 250 225 L 733 225" stroke-miterlimit="10"/></g><g transform="translate(10,10) scale(1,1)"><path fill="#000000" stroke="none" d="M 722.8373251423759 229.209517756016 L 733 225 L 722.8373251423758 220.790482243984"/></g><g transform="translate(10,10) scale(1,1)"><path fill="none" stroke="#000000" d="M 722.8373251423759 229.209517756016 L 733 225 L 722.8373251423758 220.790482243984 L 722.8373251423759 229.209517756016" stroke-miterlimit="10"/></g><g transform="translate(10,10) scale(1,1)"><g><path fill="none" stroke="none"/><text fill="#000000" stroke="none" font-family="Arial" font-size="13px" font-style="normal" font-weight="normal" text-decoration="none" x="273" y="222">4 : SM1.2 consulterEnTeteGestionClient(idClient) : Client, liste &lt;Personne&gt;</text></g></g><g transform="translate(10,10) scale(1,1)"><rect fill="#ffffff" stroke="none" x="733" y="225" width="13" height="223"/></g><g transform="translate(10,10) scale(1,1)"><path fill="none" stroke="#000000" d="M 733 225 L 746 225 L 746 448 L 733 448 L 733 225 Z Z" stroke-miterlimit="10"/></g><g transform="translate(10,10) scale(1,1)"><path fill="none" stroke="#000000" d="M 746 256 L 1189 256" stroke-miterlimit="10"/></g><g transform="translate(10,10) scale(1,1)"><path fill="#000000" stroke="none" d="M 1178.837325142376 260.209517756016 L 1189 256 L 1178.837325142376 251.790482243984"/></g><g transform="translate(10,10) scale(1,1)"><path fill="none" stroke="#000000" d="M 1178.837325142376 260.209517756016 L 1189 256 L 1178.837325142376 251.790482243984 L 1178.837325142376 260.209517756016" stroke-miterlimit="10"/></g><g transform="translate(10,10) scale(1,1)"><g><path fill="none" stroke="none"/><text fill="#000000" stroke="none" font-family="Arial" font-size="13px" font-style="normal" font-weight="normal" text-decoration="none" x="780" y="253">5 : SOM1.2 - rechercherPersonnes(idClient) :  liste&lt;idPersonne&gt;</text></g></g><g transform="translate(10,10) scale(1,1)"><rect fill="#ffffff" stroke="none" x="1189" y="256" width="13" height="28"/></g><g transform="translate(10,10) scale(1,1)"><path fill="none" stroke="#000000" d="M 1189 256 L 1202 256 L 1202 284 L 1189 284 L 1189 256 Z Z" stroke-miterlimit="10"/></g><g transform="translate(10,10) scale(1,1)"><path fill="none" stroke="#000000" d="M 746 400 L 1378 400" stroke-miterlimit="10"/></g><g transform="translate(10,10) scale(1,1)"><path fill="#000000" stroke="none" d="M 1367.837325142376 404.209517756016 L 1378 400 L 1367.837325142376 395.790482243984"/></g><g transform="translate(10,10) scale(1,1)"><path fill="none" stroke="#000000" d="M 1367.837325142376 404.209517756016 L 1378 400 L 1367.837325142376 395.790482243984 L 1367.837325142376 404.209517756016" stroke-miterlimit="10"/></g><g transform="translate(10,10) scale(1,1)"><g><path fill="none" stroke="none"/><text fill="#000000" stroke="none" font-family="Arial" font-size="13px" font-style="normal" font-weight="normal" text-decoration="none" x="894" y="397">6 : SOM1.3 - rechercherPersonne(IdPersonne) : Personne</text></g></g><g transform="translate(10,10) scale(1,1)"><rect fill="#ffffff" stroke="none" x="1378" y="400" width="13" height="28"/></g><g transform="translate(10,10) scale(1,1)"><path fill="none" stroke="#000000" d="M 1378 400 L 1391 400 L 1391 428 L 1378 428 L 1378 400 Z Z" stroke-miterlimit="10"/></g><g transform="translate(10,10) scale(1,1)"><path fill="none" stroke="#000000" d="M 250 472 L 733 472" stroke-miterlimit="10"/></g><g transform="translate(10,10) scale(1,1)"><path fill="#000000" stroke="none" d="M 722.8373251423759 476.209517756016 L 733 472 L 722.8373251423758 467.790482243984"/></g><g transform="translate(10,10) scale(1,1)"><path fill="none" stroke="#000000" d="M 722.8373251423759 476.209517756016 L 733 472 L 722.8373251423758 467.790482243984 L 722.8373251423759 476.209517756016" stroke-miterlimit="10"/></g><g transform="translate(10,10) scale(1,1)"><g><path fill="none" stroke="none"/><text fill="#000000" stroke="none" font-family="Arial" font-size="13px" font-style="normal" font-weight="normal" text-decoration="none" x="265" y="452">7 : SM1.3 consulterEnTeteGestionContact(idClient) : Client,  liste &lt;Contact&gt;</text></g></g><g transform="translate(10,10) scale(1,1)"><rect fill="#ffffff" stroke="none" x="733" y="472" width="13" height="104"/></g><g transform="translate(10,10) scale(1,1)"><path fill="none" stroke="#000000" d="M 733 472 L 746 472 L 746 576 L 733 576 L 733 472 Z Z" stroke-miterlimit="10"/></g><g transform="translate(10,10) scale(1,1)"><path fill="none" stroke="#000000" d="M 746 520 L 1549 520" stroke-miterlimit="10"/></g><g transform="translate(10,10) scale(1,1)"><path fill="#000000" stroke="none" d="M 1538.837325142376 524.209517756016 L 1549 520 L 1538.837325142376 515.790482243984"/></g><g transform="translate(10,10) scale(1,1)"><path fill="none" stroke="#000000" d="M 1538.837325142376 524.209517756016 L 1549 520 L 1538.837325142376 515.790482243984 L 1538.837325142376 524.209517756016" stroke-miterlimit="10"/></g><g transform="translate(10,10) scale(1,1)"><g><path fill="none" stroke="none"/><text fill="#000000" stroke="none" font-family="Arial" font-size="13px" font-style="normal" font-weight="normal" text-decoration="none" x="972" y="516">8 : SOM1.4 - rechercherContacts(IdClient) : liste&lt;Contact&gt;</text></g></g><g transform="translate(10,10) scale(1,1)"><rect fill="#ffffff" stroke="none" x="1549" y="520" width="13" height="28"/></g><g transform="translate(10,10) scale(1,1)"><path fill="none" stroke="#000000" d="M 1549 520 L 1562 520 L 1562 548 L 1549 548 L 1549 520 Z Z" stroke-miterlimit="10"/></g><g transform="translate(10,10) scale(1,1)"><path fill="none" stroke="#000000" d="M 250 672 L 733 672" stroke-miterlimit="10"/></g><g transform="translate(10,10) scale(1,1)"><path fill="#000000" stroke="none" d="M 722.8373251423759 676.209517756016 L 733 672 L 722.8373251423758 667.790482243984"/></g><g transform="translate(10,10) scale(1,1)"><path fill="none" stroke="#000000" d="M 722.8373251423759 676.209517756016 L 733 672 L 722.8373251423758 667.790482243984 L 722.8373251423759 676.209517756016" stroke-miterlimit="10"/></g><g transform="translate(10,10) scale(1,1)"><g><path fill="none" stroke="none"/><text fill="#000000" stroke="none" font-family="Arial" font-size="13px" font-style="normal" font-weight="normal" text-decoration="none" x="339" y="668">9 : SM1.4 consulterEnTeteGestionContrat(idClient) :</text></g></g><g transform="translate(10,10) scale(1,1)"><rect fill="#ffffff" stroke="none" x="733" y="672" width="13" height="168"/></g><g transform="translate(10,10) scale(1,1)"><path fill="none" stroke="#000000" d="M 733 672 L 746 672 L 746 840 L 733 840 L 733 672 Z Z" stroke-miterlimit="10"/></g><g transform="translate(10,10) scale(1,1)"><path fill="none" stroke="#000000" d="M 746 696 L 1661 696" stroke-miterlimit="10"/></g><g transform="translate(10,10) scale(1,1)"><path fill="#000000" stroke="none" d="M 1650.837325142376 700.209517756016 L 1661 696 L 1650.837325142376 691.790482243984"/></g><g transform="translate(10,10) scale(1,1)"><path fill="none" stroke="#000000" d="M 1650.837325142376 700.209517756016 L 1661 696 L 1650.837325142376 691.790482243984 L 1650.837325142376 700.209517756016" stroke-miterlimit="10"/></g><g transform="translate(10,10) scale(1,1)"><g><path fill="none" stroke="none"/><text fill="#000000" stroke="none" font-family="Arial" font-size="13px" font-style="normal" font-weight="normal" text-decoration="none" x="1045" y="693">10 : SOM1.5 - rechercherDomaines() : liste&lt;Domaine&gt;</text></g></g><g transform="translate(10,10) scale(1,1)"><rect fill="#ffffff" stroke="none" x="1661" y="696" width="13" height="28"/></g><g transform="translate(10,10) scale(1,1)"><path fill="none" stroke="#000000" d="M 1661 696 L 1674 696 L 1674 724 L 1661 724 L 1661 696 Z Z" stroke-miterlimit="10"/></g><g transform="translate(10,10) scale(1,1)"><path fill="none" stroke="#000000" d="M 746 776 L 1661 776" stroke-miterlimit="10"/></g><g transform="translate(10,10) scale(1,1)"><path fill="#000000" stroke="none" d="M 1650.837325142376 780.209517756016 L 1661 776 L 1650.837325142376 771.790482243984"/></g><g transform="translate(10,10) scale(1,1)"><path fill="none" stroke="#000000" d="M 1650.837325142376 780.209517756016 L 1661 776 L 1650.837325142376 771.790482243984 L 1650.837325142376 780.209517756016" stroke-miterlimit="10"/></g><g transform="translate(10,10) scale(1,1)"><g><path fill="none" stroke="none"/><text fill="#000000" stroke="none" font-family="Arial" font-size="13px" font-style="normal" font-weight="normal" text-decoration="none" x="901" y="773">11 : SOM1.6 - rechercherSouscriptionsContrat(idDomaine, IdClient) : liste&lt;SouscriptionContrat, Contrat&gt;</text></g></g><g transform="translate(10,10) scale(1,1)"><rect fill="#ffffff" stroke="none" x="1661" y="776" width="13" height="28"/></g><g transform="translate(10,10) scale(1,1)"><path fill="none" stroke="#000000" d="M 1661 776 L 1674 776 L 1674 804 L 1661 804 L 1661 776 Z Z" stroke-miterlimit="10"/></g><g transform="translate(10,10) scale(1,1)"><path fill="none" stroke="#000000" d="M 92 1032 L 237 1032" stroke-miterlimit="10"/></g><g transform="translate(10,10) scale(1,1)"><path fill="#000000" stroke="none" d="M 226.83732514237585 1036.2095177560159 L 237 1032 L 226.83732514237585 1027.7904822439841"/></g><g transform="translate(10,10) scale(1,1)"><path fill="none" stroke="#000000" d="M 226.83732514237585 1036.2095177560159 L 237 1032 L 226.83732514237585 1027.7904822439841 L 226.83732514237585 1036.2095177560159" stroke-miterlimit="10"/></g><g transform="translate(10,10) scale(1,1)"><g><path fill="none" stroke="none"/><text fill="#000000" stroke="none" font-family="Arial" font-size="13px" font-style="normal" font-weight="normal" text-decoration="none" x="85" y="1021">12 : zoomerVueEnTeteClient</text></g></g><g transform="translate(10,10) scale(1,1)"><rect fill="#ffffff" stroke="none" x="237" y="1032" width="13" height="28"/></g><g transform="translate(10,10) scale(1,1)"><path fill="none" stroke="#000000" d="M 237 1032 L 250 1032 L 250 1060 L 237 1060 L 237 1032 Z Z" stroke-miterlimit="10"/></g><g transform="translate(10,10) scale(1,1)"><path fill="none" stroke="#000000" d="M 92 1104 L 237 1104" stroke-miterlimit="10"/></g><g transform="translate(10,10) scale(1,1)"><path fill="#000000" stroke="none" d="M 226.83732514237585 1108.2095177560159 L 237 1104 L 226.83732514237585 1099.7904822439841"/></g><g transform="translate(10,10) scale(1,1)"><path fill="none" stroke="#000000" d="M 226.83732514237585 1108.2095177560159 L 237 1104 L 226.83732514237585 1099.7904822439841 L 226.83732514237585 1108.2095177560159" stroke-miterlimit="10"/></g><g transform="translate(10,10) scale(1,1)"><g><path fill="none" stroke="none"/><text fill="#000000" stroke="none" font-family="Arial" font-size="13px" font-style="normal" font-weight="normal" text-decoration="none" x="79" y="1101">13 : zoomerVueGestionClient</text></g></g><g transform="translate(10,10) scale(1,1)"><rect fill="#ffffff" stroke="none" x="237" y="1104" width="13" height="54"/></g><g transform="translate(10,10) scale(1,1)"><path fill="none" stroke="#000000" d="M 237 1104 L 250 1104 L 250 1158 L 237 1158 L 237 1104 Z Z" stroke-miterlimit="10"/></g><g transform="translate(10,10) scale(1,1)"><path fill="none" stroke="#000000" d="M 92 1192 L 237 1192" stroke-miterlimit="10"/></g><g transform="translate(10,10) scale(1,1)"><path fill="#000000" stroke="none" d="M 226.83732514237585 1196.2095177560159 L 237 1192 L 226.83732514237585 1187.7904822439841"/></g><g transform="translate(10,10) scale(1,1)"><path fill="none" stroke="#000000" d="M 226.83732514237585 1196.2095177560159 L 237 1192 L 226.83732514237585 1187.7904822439841 L 226.83732514237585 1196.2095177560159" stroke-miterlimit="10"/></g><g transform="translate(10,10) scale(1,1)"><g><path fill="none" stroke="none"/><text fill="#000000" stroke="none" font-family="Arial" font-size="13px" font-style="normal" font-weight="normal" text-decoration="none" x="73" y="1189">14 : zoomerVueGestionContact</text></g></g><g transform="translate(10,10) scale(1,1)"><rect fill="#ffffff" stroke="none" x="237" y="1192" width="13" height="56"/></g><g transform="translate(10,10) scale(1,1)"><path fill="none" stroke="#000000" d="M 237 1192 L 250 1192 L 250 1248 L 237 1248 L 237 1192 Z Z" stroke-miterlimit="10"/></g><g transform="translate(10,10) scale(1,1)"><path fill="none" stroke="#000000" d="M 92 1304 L 237 1304" stroke-miterlimit="10"/></g><g transform="translate(10,10) scale(1,1)"><path fill="#000000" stroke="none" d="M 226.83732514237585 1308.2095177560159 L 237 1304 L 226.83732514237585 1299.7904822439841"/></g><g transform="translate(10,10) scale(1,1)"><path fill="none" stroke="#000000" d="M 226.83732514237585 1308.2095177560159 L 237 1304 L 226.83732514237585 1299.7904822439841 L 226.83732514237585 1308.2095177560159" stroke-miterlimit="10"/></g><g transform="translate(10,10) scale(1,1)"><g><path fill="none" stroke="none"/><text fill="#000000" stroke="none" font-family="Arial" font-size="13px" font-style="normal" font-weight="normal" text-decoration="none" x="77" y="1293">15 : zoomerVueGestionContrat</text></g></g><g transform="translate(10,10) scale(1,1)"><rect fill="#ffffff" stroke="none" x="237" y="1304" width="13" height="28"/></g><g transform="translate(10,10) scale(1,1)"><path fill="none" stroke="#000000" d="M 237 1304 L 250 1304 L 250 1332 L 237 1332 L 237 1304 Z Z" stroke-miterlimit="10"/></g></g></svg>