<svg version="1.1" xmlns="http://www.w3.org/2000/svg" xmlns:xlink="http://www.w3.org/1999/xlink" width="940" height="568"><defs/><g><g transform="translate(-154,-190) scale(1,1)"><rect fill="#C0C0C0" stroke="none" x="311" y="207" width="780" height="548" opacity="0.2"/></g><g transform="translate(-154,-190) scale(1,1)"><rect fill="#ffffff" stroke="none" x="304" y="200" width="780" height="548"/></g><g transform="translate(-154,-190) scale(1,1)"><path fill="none" stroke="#000000" d="M 304 200 L 1084 200 L 1084 748 L 304 748 L 304 200 Z Z" stroke-miterlimit="10"/></g><g transform="translate(-154,-190) scale(1,1)"><g><path fill="none" stroke="none"/><text fill="#000000" stroke="none" font-family="Arial" font-size="13px" font-style="normal" font-weight="bold" text-decoration="none" x="587" y="219.5">CU1 - Consultation Du Dossier Client</text></g></g><g transform="translate(-154,-190) scale(1,1)"><path fill="#ffffff" stroke="none" d="M 179.82072727272728 437.68 C 179.82072727272728 432.886167936 183.70656959767274 429 188.5 429 C 193.29343040232726 429 197.17927272727272 432.886167936 197.17927272727272 437.68 C 197.17927272727272 442.473832064 193.29343040232726 446.36 188.5 446.36 C 183.70656959767274 446.36 179.82072727272728 442.473832064 179.82072727272728 437.68 Z"/></g><g transform="translate(-154,-190) scale(1,1)"><path fill="none" stroke="#000000" d="M 179.82072727272728 437.68 C 179.82072727272728 432.886167936 183.70656959767274 429 188.5 429 C 193.29343040232726 429 197.17927272727272 432.886167936 197.17927272727272 437.68 C 197.17927272727272 442.473832064 193.29343040232726 446.36 188.5 446.36 C 183.70656959767274 446.36 179.82072727272728 442.473832064 179.82072727272728 437.68 Z" stroke-miterlimit="10"/></g><g transform="translate(-154,-190) scale(1,1)"><path fill="none" stroke="#000000" d="M 188.5 446.36 L 188.5 463.64" stroke-miterlimit="10"/></g><g transform="translate(-154,-190) scale(1,1)"><path fill="none" stroke="#000000" d="M 179.31018181818183 452.84 L 197.68981818181817 452.84" stroke-miterlimit="10"/></g><g transform="translate(-154,-190) scale(1,1)"><path fill="none" stroke="#000000" d="M 188.5 463.64 L 175.73636363636365 481" stroke-miterlimit="10"/></g><g transform="translate(-154,-190) scale(1,1)"><path fill="none" stroke="#000000" d="M 188.5 463.64 L 201.26363636363635 481" stroke-miterlimit="10"/></g><g transform="translate(-154,-190) scale(1,1)"><g><path fill="none" stroke="none"/><text fill="#000000" stroke="none" font-family="Arial" font-size="13px" font-style="normal" font-weight="bold" text-decoration="none" x="171.5" y="501.5">Agent</text></g></g><g transform="translate(-154,-190) scale(1,1)"><path fill="#C0C0C0" stroke="none" d="M 443 592 C 443 582.6111584 586.0450064 575 762.5 575 C 938.9549936 575 1082 582.6111584 1082 592 C 1082 601.3888416 938.9549936 609 762.5 609 C 586.0450064 609 443 601.3888416 443 592 Z" opacity="0.2"/></g><g transform="translate(-154,-190) scale(1,1)"><path fill="#ffffff" stroke="none" d="M 436 585 C 436 575.6111584 579.0450064 568 755.5 568 C 931.9549936 568 1075 575.6111584 1075 585 C 1075 594.3888416 931.9549936 602 755.5 602 C 579.0450064 602 436 594.3888416 436 585 Z"/></g><g transform="translate(-154,-190) scale(1,1)"><path fill="none" stroke="#000000" d="M 436 585 C 436 575.6111584 579.0450064 568 755.5 568 C 931.9549936 568 1075 575.6111584 1075 585 C 1075 594.3888416 931.9549936 602 755.5 602 C 579.0450064 602 436 594.3888416 436 585 Z" stroke-miterlimit="10"/></g><g transform="translate(-154,-190) scale(1,1)"><g><path fill="none" stroke="none"/><text fill="#000000" stroke="none" font-family="Arial" font-size="13px" font-style="normal" font-weight="bold" text-decoration="none" x="564.5" y="592">Zoomer sur gestion contrats clients (Zone Relation Banque/Client)</text></g></g><g transform="translate(-154,-190) scale(1,1)"><path fill="#C0C0C0" stroke="none" d="M 591 300 C 591 290.6111584 678.5283216 283 786.5 283 C 894.4716784 283 982 290.6111584 982 300 C 982 309.3888416 894.4716784 317 786.5 317 C 678.5283216 317 591 309.3888416 591 300 Z" opacity="0.2"/></g><g transform="translate(-154,-190) scale(1,1)"><path fill="#ffffff" stroke="none" d="M 584 293 C 584 283.6111584 671.5283216 276 779.5 276 C 887.4716784 276 975 283.6111584 975 293 C 975 302.3888416 887.4716784 310 779.5 310 C 671.5283216 310 584 302.3888416 584 293 Z"/></g><g transform="translate(-154,-190) scale(1,1)"><path fill="none" stroke="#000000" d="M 584 293 C 584 283.6111584 671.5283216 276 779.5 276 C 887.4716784 276 975 283.6111584 975 293 C 975 302.3888416 887.4716784 310 779.5 310 C 671.5283216 310 584 302.3888416 584 293 Z" stroke-miterlimit="10"/></g><g transform="translate(-154,-190) scale(1,1)"><g><path fill="none" stroke="none"/><text fill="#000000" stroke="none" font-family="Arial" font-size="13px" font-style="normal" font-weight="bold" text-decoration="none" x="665" y="300">Zoomer sur gestion client  (Zone Client)</text></g></g><g transform="translate(-154,-190) scale(1,1)"><path fill="#C0C0C0" stroke="none" d="M 503 400 C 503 390.6111584 629.479544 383 785.5 383 C 941.520456 383 1068 390.6111584 1068 400 C 1068 409.3888416 941.520456 417 785.5 417 C 629.479544 417 503 409.3888416 503 400 Z" opacity="0.2"/></g><g transform="translate(-154,-190) scale(1,1)"><path fill="#ffffff" stroke="none" d="M 496 393 C 496 383.6111584 622.479544 376 778.5 376 C 934.520456 376 1061 383.6111584 1061 393 C 1061 402.3888416 934.520456 410 778.5 410 C 622.479544 410 496 402.3888416 496 393 Z"/></g><g transform="translate(-154,-190) scale(1,1)"><path fill="none" stroke="#000000" d="M 496 393 C 496 383.6111584 622.479544 376 778.5 376 C 934.520456 376 1061 383.6111584 1061 393 C 1061 402.3888416 934.520456 410 778.5 410 C 622.479544 410 496 402.3888416 496 393 Z" stroke-miterlimit="10"/></g><g transform="translate(-154,-190) scale(1,1)"><g><path fill="none" stroke="none"/><text fill="#000000" stroke="none" font-family="Arial" font-size="13px" font-style="normal" font-weight="bold" text-decoration="none" x="611" y="400">Zoomer sur gestion des contrats du client (Zone Contrats)</text></g></g><g transform="translate(-154,-190) scale(1,1)"><path fill="#C0C0C0" stroke="none" d="M 591 696 C 591 686.6111584 689.497344 679 811 679 C 932.502656 679 1031 686.6111584 1031 696 C 1031 705.3888416 932.502656 713 811 713 C 689.497344 713 591 705.3888416 591 696 Z" opacity="0.2"/></g><g transform="translate(-154,-190) scale(1,1)"><path fill="#ffffff" stroke="none" d="M 584 689 C 584 679.6111584 682.497344 672 804 672 C 925.502656 672 1024 679.6111584 1024 689 C 1024 698.3888416 925.502656 706 804 706 C 682.497344 706 584 698.3888416 584 689 Z"/></g><g transform="translate(-154,-190) scale(1,1)"><path fill="none" stroke="#000000" d="M 584 689 C 584 679.6111584 682.497344 672 804 672 C 925.502656 672 1024 679.6111584 1024 689 C 1024 698.3888416 925.502656 706 804 706 C 682.497344 706 584 698.3888416 584 689 Z" stroke-miterlimit="10"/></g><g transform="translate(-154,-190) scale(1,1)"><g><path fill="none" stroke="none"/><text fill="#000000" stroke="none" font-family="Arial" font-size="13px" font-style="normal" font-weight="bold" text-decoration="none" x="673.5" y="696">Zoomer sur entête client (Zone Entête Client)</text></g></g><g transform="translate(-154,-190) scale(1,1)"><path fill="#C0C0C0" stroke="none" d="M 327 472 C 327 462.6111584 369.7568016 455 422.5 455 C 475.2431984 455 518 462.6111584 518 472 C 518 481.3888416 475.2431984 489 422.5 489 C 369.7568016 489 327 481.3888416 327 472 Z" opacity="0.2"/></g><g transform="translate(-154,-190) scale(1,1)"><path fill="#ffffff" stroke="none" d="M 320 465 C 320 455.6111584 362.7568016 448 415.5 448 C 468.2431984 448 511 455.6111584 511 465 C 511 474.3888416 468.2431984 482 415.5 482 C 362.7568016 482 320 474.3888416 320 465 Z"/></g><g transform="translate(-154,-190) scale(1,1)"><path fill="none" stroke="#000000" d="M 320 465 C 320 455.6111584 362.7568016 448 415.5 448 C 468.2431984 448 511 455.6111584 511 465 C 511 474.3888416 468.2431984 482 415.5 482 C 362.7568016 482 320 474.3888416 320 465 Z" stroke-miterlimit="10"/></g><g transform="translate(-154,-190) scale(1,1)"><g><path fill="none" stroke="none"/><text fill="#000000" stroke="none" font-family="Arial" font-size="13px" font-style="normal" font-weight="bold" text-decoration="none" x="360.5" y="472">Consulter vue 360°</text></g></g><g transform="translate(-154,-190) scale(1,1)"><path fill="none" stroke="#000000" d="M 687 411 L 506 447" stroke-miterlimit="10" stroke-dasharray="3"/></g><g transform="translate(-154,-190) scale(1,1)"><path fill="none" stroke="#000000" d="M 515.1462676691992 440.88887999435775 L 506 447 L 516.7886022880724 449.1461734948037" stroke-miterlimit="10"/></g><g transform="translate(-154,-190) scale(1,1)"><g><path fill="none" stroke="none"/><text fill="#000000" stroke="none" font-family="Arial" font-size="13px" font-style="normal" font-weight="normal" text-decoration="none" x="552" y="449">«extend»</text></g></g><g transform="translate(-154,-190) scale(1,1)"><path fill="none" stroke="#000000" d="M 704 567 L 466 483" stroke-miterlimit="10" stroke-dasharray="3"/></g><g transform="translate(-154,-190) scale(1,1)"><path fill="none" stroke="#000000" d="M 476.98431634925083 482.4128080896498 L 466 483 L 474.1822919589201 490.351877195587" stroke-miterlimit="10"/></g><g transform="translate(-154,-190) scale(1,1)"><g><path fill="none" stroke="none"/><text fill="#000000" stroke="none" font-family="Arial" font-size="13px" font-style="normal" font-weight="normal" text-decoration="none" x="600" y="529">«extend»</text></g></g><g transform="translate(-154,-190) scale(1,1)"><path fill="none" stroke="#000000" d="M 583 311 L 440 324 L 418 447" stroke-miterlimit="10" stroke-dasharray="3"/></g><g transform="translate(-154,-190) scale(1,1)"><path fill="none" stroke="#000000" d="M 415.6455610248009 436.2549259140728 L 418 447 L 423.93307498525775 437.73724548423587" stroke-miterlimit="10"/></g><g transform="translate(-154,-190) scale(1,1)"><g><path fill="none" stroke="none"/><text fill="#000000" stroke="none" font-family="Arial" font-size="13px" font-style="normal" font-weight="normal" text-decoration="none" x="480" y="317">«extend»</text></g></g><g transform="translate(-154,-190) scale(1,1)"><path fill="none" stroke="#000000" d="M 621 671 L 428 652 L 416 483" stroke-miterlimit="10" stroke-dasharray="3"/></g><g transform="translate(-154,-190) scale(1,1)"><path fill="none" stroke="#000000" d="M 420.9187436353301 492.8390020352625 L 416 483 L 412.5208519202177 493.43530203870245" stroke-miterlimit="10"/></g><g transform="translate(-154,-190) scale(1,1)"><g><path fill="none" stroke="none"/><text fill="#000000" stroke="none" font-family="Arial" font-size="13px" font-style="normal" font-weight="normal" text-decoration="none" x="428" y="672">«extend»</text></g></g><g transform="translate(-154,-190) scale(1,1)"><path fill="none" stroke="#000000" d="M 214 467 L 319 466" stroke-miterlimit="10"/></g><g transform="translate(-154,-190) scale(1,1)"><path fill="none" stroke="#000000" d="M 214 438 L 340 296 L 583 294" stroke-miterlimit="10"/></g><g transform="translate(-154,-190) scale(1,1)"><path fill="none" stroke="#000000" d="M 214 456 L 332 408 L 495 403" stroke-miterlimit="10"/></g><g transform="translate(-154,-190) scale(1,1)"><path fill="none" stroke="#000000" d="M 214 488 L 336 588 L 435 587" stroke-miterlimit="10"/></g><g transform="translate(-154,-190) scale(1,1)"><path fill="none" stroke="#000000" d="M 214 504 L 336 680 L 583 685" stroke-miterlimit="10"/></g></g></svg>