<svg version="1.1" xmlns="http://www.w3.org/2000/svg" xmlns:xlink="http://www.w3.org/1999/xlink" width="1137" height="565"><defs/><g><g transform="translate(-6,-350) scale(1,1)"><path fill="#C0C0C0" stroke="none" d="M 527 376.5 C 527 371.2532944 531.2532944 367 536.5 367 C 541.7467056 367 546 371.2532944 546 376.5 C 546 381.7467056 541.7467056 386 536.5 386 C 531.2532944 386 527 381.7467056 527 376.5 Z" opacity="0.2"/></g><g transform="translate(-6,-350) scale(1,1)"><path fill="#000000" stroke="none" d="M 520 369.5 C 520 364.2532944 524.2532944 360 529.5 360 C 534.7467056 360 539 364.2532944 539 369.5 C 539 374.7467056 534.7467056 379 529.5 379 C 524.2532944 379 520 374.7467056 520 369.5 Z"/></g><g transform="translate(-6,-350) scale(1,1)"><path fill="#C0C0C0" stroke="none" d="M 523 899.5 C 523 892.59644 528.59644 887 535.5 887 C 542.40356 887 548 892.59644 548 899.5 C 548 906.40356 542.40356 912 535.5 912 C 528.59644 912 523 906.40356 523 899.5 Z" opacity="0.2"/></g><g transform="translate(-6,-350) scale(1,1)"><path fill="none" stroke="#000000" d="M 516 892.5 C 516 885.59644 521.59644 880 528.5 880 C 535.40356 880 541 885.59644 541 892.5 C 541 899.40356 535.40356 905 528.5 905 C 521.59644 905 516 899.40356 516 892.5 Z" stroke-miterlimit="10"/></g><g transform="translate(-6,-350) scale(1,1)"><path fill="#000000" stroke="none" d="M 521 892.5 C 521 888.357864 524.357864 885 528.5 885 C 532.642136 885 536 888.357864 536 892.5 C 536 896.642136 532.642136 900 528.5 900 C 524.357864 900 521 896.642136 521 892.5 Z"/></g><g transform="translate(-6,-350) scale(1,1)"><path fill="#C0C0C0" stroke="none" d="M 249 615 L 505.72705078125 615 Q 515.72705078125 615 515.72705078125 625 L 515.72705078125 645 Q 515.72705078125 655 505.72705078125 655 L 249 655 Q 239 655 239 645 L 239 625 Q 239 615 249 615 Z" opacity="0.2"/></g><g transform="translate(-6,-350) scale(1,1)"><path fill="#ffffff" stroke="none" d="M 242 608 L 498.72705078125 608 Q 508.72705078125 608 508.72705078125 618 L 508.72705078125 638 Q 508.72705078125 648 498.72705078125 648 L 242 648 Q 232 648 232 638 L 232 618 Q 232 608 242 608 Z"/></g><g transform="translate(-6,-350) scale(1,1)"><path fill="none" stroke="#000000" d="M 242 608 L 498.72705078125 608 Q 508.72705078125 608 508.72705078125 618 L 508.72705078125 638 Q 508.72705078125 648 498.72705078125 648 L 242 648 Q 232 648 232 638 L 232 618 Q 232 608 242 608 Z" stroke-miterlimit="10"/></g><g transform="translate(-6,-350) scale(1,1)"><g><path fill="none" stroke="none"/><text fill="#000000" stroke="none" font-family="Arial" font-size="13px" font-style="normal" font-weight="bold" text-decoration="none" x="255.863525390625" y="627.5">Zoomer sur gestion client  (Zone Client)</text></g></g><g transform="translate(-6,-350) scale(1,1)"><path fill="#C0C0C0" stroke="none" d="M 681 511 L 1113.06884765625 511 Q 1123.06884765625 511 1123.06884765625 521 L 1123.06884765625 541 Q 1123.06884765625 551 1113.06884765625 551 L 681 551 Q 671 551 671 541 L 671 521 Q 671 511 681 511 Z" opacity="0.2"/></g><g transform="translate(-6,-350) scale(1,1)"><path fill="#ffffff" stroke="none" d="M 674 504 L 1106.06884765625 504 Q 1116.06884765625 504 1116.06884765625 514 L 1116.06884765625 534 Q 1116.06884765625 544 1106.06884765625 544 L 674 544 Q 664 544 664 534 L 664 514 Q 664 504 674 504 Z"/></g><g transform="translate(-6,-350) scale(1,1)"><path fill="none" stroke="#000000" d="M 674 504 L 1106.06884765625 504 Q 1116.06884765625 504 1116.06884765625 514 L 1116.06884765625 534 Q 1116.06884765625 544 1106.06884765625 544 L 674 544 Q 664 544 664 534 L 664 514 Q 664 504 674 504 Z" stroke-miterlimit="10"/></g><g transform="translate(-6,-350) scale(1,1)"><g><path fill="none" stroke="none"/><text fill="#000000" stroke="none" font-family="Arial" font-size="13px" font-style="normal" font-weight="bold" text-decoration="none" x="699.034423828125" y="523.5">Zoomer sur gestion contrats clients (Zone Relation Banque/Client)</text></g></g><g transform="translate(-6,-350) scale(1,1)"><path fill="#C0C0C0" stroke="none" d="M 33 511 L 412.56103515625 511 Q 422.56103515625 511 422.56103515625 521 L 422.56103515625 541 Q 422.56103515625 551 412.56103515625 551 L 33 551 Q 23 551 23 541 L 23 521 Q 23 511 33 511 Z" opacity="0.2"/></g><g transform="translate(-6,-350) scale(1,1)"><path fill="#ffffff" stroke="none" d="M 26 504 L 405.56103515625 504 Q 415.56103515625 504 415.56103515625 514 L 415.56103515625 534 Q 415.56103515625 544 405.56103515625 544 L 26 544 Q 16 544 16 534 L 16 514 Q 16 504 26 504 Z"/></g><g transform="translate(-6,-350) scale(1,1)"><path fill="none" stroke="#000000" d="M 26 504 L 405.56103515625 504 Q 415.56103515625 504 415.56103515625 514 L 415.56103515625 534 Q 415.56103515625 544 405.56103515625 544 L 26 544 Q 16 544 16 534 L 16 514 Q 16 504 26 504 Z" stroke-miterlimit="10"/></g><g transform="translate(-6,-350) scale(1,1)"><g><path fill="none" stroke="none"/><text fill="#000000" stroke="none" font-family="Arial" font-size="13px" font-style="normal" font-weight="bold" text-decoration="none" x="48.280517578125" y="523.5">Zoomer sur gestion des contrats du client (Zone Contrats)</text></g></g><g transform="translate(-6,-350) scale(1,1)"><path fill="#C0C0C0" stroke="none" d="M 577 615 L 872.14013671875 615 Q 882.14013671875 615 882.14013671875 625 L 882.14013671875 645 Q 882.14013671875 655 872.14013671875 655 L 577 655 Q 567 655 567 645 L 567 625 Q 567 615 577 615 Z" opacity="0.2"/></g><g transform="translate(-6,-350) scale(1,1)"><path fill="#ffffff" stroke="none" d="M 570 608 L 865.14013671875 608 Q 875.14013671875 608 875.14013671875 618 L 875.14013671875 638 Q 875.14013671875 648 865.14013671875 648 L 570 648 Q 560 648 560 638 L 560 618 Q 560 608 570 608 Z"/></g><g transform="translate(-6,-350) scale(1,1)"><path fill="none" stroke="#000000" d="M 570 608 L 865.14013671875 608 Q 875.14013671875 608 875.14013671875 618 L 875.14013671875 638 Q 875.14013671875 648 865.14013671875 648 L 570 648 Q 560 648 560 638 L 560 618 Q 560 608 570 608 Z" stroke-miterlimit="10"/></g><g transform="translate(-6,-350) scale(1,1)"><g><path fill="none" stroke="none"/><text fill="#000000" stroke="none" font-family="Arial" font-size="13px" font-style="normal" font-weight="bold" text-decoration="none" x="585.070068359375" y="627.5">Zoomer sur entête client (Zone Entête Client) </text></g></g><g transform="translate(-6,-350) scale(1,1)"><path fill="#C0C0C0" stroke="none" d="M 527 522 L 538.5 511 L 549 522 L 538.5 532 L 527 522" opacity="0.2"/></g><g transform="translate(-6,-350) scale(1,1)"><path fill="#ffffff" stroke="none" d="M 520 514.5 L 531 504 L 542 514.5 L 531 525 L 520 514.5"/></g><g transform="translate(-6,-350) scale(1,1)"><path fill="none" stroke="#000000" d="M 520 514.5 L 531 504 L 542 514.5 L 531 525 L 520 514.5 L 520 514.5" stroke-miterlimit="10"/></g><g transform="translate(-6,-350) scale(1,1)"><path fill="none" stroke="#000000" d="M 519 514 L 417 518" stroke-miterlimit="10"/></g><g transform="translate(-6,-350) scale(1,1)"><path fill="none" stroke="#000000" d="M 426.9899170838505 513.3954851875804 L 417 518 L 427.3198217614178 521.8080544655463" stroke-miterlimit="10"/></g><g transform="translate(-6,-350) scale(1,1)"><path fill="none" stroke="#000000" d="M 519 522 L 400 607" stroke-miterlimit="10"/></g><g transform="translate(-6,-350) scale(1,1)"><path fill="none" stroke="#000000" d="M 405.8229761917047 597.6676397266908 L 400 607 L 410.7164411855751 604.5184907181093" stroke-miterlimit="10"/></g><g transform="translate(-6,-350) scale(1,1)"><path fill="none" stroke="#000000" d="M 543 521 L 683 607" stroke-miterlimit="10"/></g><g transform="translate(-6,-350) scale(1,1)"><path fill="none" stroke="#000000" d="M 672.1372909866641 605.2675009692385 L 683 607 L 676.5439666076645 598.0938429815633" stroke-miterlimit="10"/></g><g transform="translate(-6,-350) scale(1,1)"><path fill="none" stroke="#000000" d="M 543 514 L 663 518" stroke-miterlimit="10"/></g><g transform="translate(-6,-350) scale(1,1)"><path fill="none" stroke="#000000" d="M 652.7027270028594 521.8686132944972 L 663 518 L 652.9832057416654 513.4542511303202" stroke-miterlimit="10"/></g><g transform="translate(-6,-350) scale(1,1)"><path fill="none" stroke="#000000" d="M 215 545 L 208 888 L 515 892" stroke-miterlimit="10"/></g><g transform="translate(-6,-350) scale(1,1)"><path fill="none" stroke="#000000" d="M 504.7833451740546 896.0767590273999 L 515 892 L 504.8930301379938 887.6584380450697" stroke-miterlimit="10"/></g><g transform="translate(-6,-350) scale(1,1)"><path fill="none" stroke="#000000" d="M 383 649 L 520 879" stroke-miterlimit="10"/></g><g transform="translate(-6,-350) scale(1,1)"><path fill="none" stroke="#000000" d="M 511.1827362502481 872.4230812710425 L 520 879 L 518.4158368435988 868.1146691784814" stroke-miterlimit="10"/></g><g transform="translate(-6,-350) scale(1,1)"><path fill="none" stroke="#000000" d="M 702 649 L 537 879" stroke-miterlimit="10"/></g><g transform="translate(-6,-350) scale(1,1)"><path fill="none" stroke="#000000" d="M 539.5035090166966 868.2886768976322 L 537 879 L 546.3442974036323 873.1961990013034" stroke-miterlimit="10"/></g><g transform="translate(-6,-350) scale(1,1)"><path fill="none" stroke="#000000" d="M 891 545 L 900 776 L 542 888" stroke-miterlimit="10"/></g><g transform="translate(-6,-350) scale(1,1)"><path fill="none" stroke="#000000" d="M 550.4422332649536 880.9481422660331 L 542 888 L 552.9559768136583 888.9831439663566" stroke-miterlimit="10"/></g><g transform="translate(-6,-350) scale(1,1)"><path fill="#C0C0C0" stroke="none" d="M 481 423 L 596.07861328125 423 Q 606.07861328125 423 606.07861328125 433 L 606.07861328125 453 Q 606.07861328125 463 596.07861328125 463 L 481 463 Q 471 463 471 453 L 471 433 Q 471 423 481 423 Z" opacity="0.2"/></g><g transform="translate(-6,-350) scale(1,1)"><path fill="#ffffff" stroke="none" d="M 474 416 L 589.07861328125 416 Q 599.07861328125 416 599.07861328125 426 L 599.07861328125 446 Q 599.07861328125 456 589.07861328125 456 L 474 456 Q 464 456 464 446 L 464 426 Q 464 416 474 416 Z"/></g><g transform="translate(-6,-350) scale(1,1)"><path fill="none" stroke="#000000" d="M 474 416 L 589.07861328125 416 Q 599.07861328125 416 599.07861328125 426 L 599.07861328125 446 Q 599.07861328125 456 589.07861328125 456 L 474 456 Q 464 456 464 446 L 464 426 Q 464 416 474 416 Z" stroke-miterlimit="10"/></g><g transform="translate(-6,-350) scale(1,1)"><g><path fill="none" stroke="none"/><text fill="#000000" stroke="none" font-family="Arial" font-size="13px" font-style="normal" font-weight="bold" text-decoration="none" x="476.539306640625" y="435.5">Consulter vue 360°</text></g></g><g transform="translate(-6,-350) scale(1,1)"><path fill="none" stroke="#000000" d="M 529 380 L 530 415" stroke-miterlimit="10"/></g><g transform="translate(-6,-350) scale(1,1)"><path fill="none" stroke="#000000" d="M 525.5019556671291 404.96169351038094 L 530 415 L 533.9175569405878 404.7212477597107" stroke-miterlimit="10"/></g><g transform="translate(-6,-350) scale(1,1)"><path fill="none" stroke="#000000" d="M 531 457 L 531 503" stroke-miterlimit="10"/></g><g transform="translate(-6,-350) scale(1,1)"><path fill="none" stroke="#000000" d="M 526.790482243984 492.83732514237585 L 531 503 L 535.209517756016 492.83732514237585" stroke-miterlimit="10"/></g><g transform="translate(-6,-350) scale(1,1)"><path fill="none" stroke="#000000" d="M 531 526 L 528 879" stroke-miterlimit="10"/></g><g transform="translate(-6,-350) scale(1,1)"><path fill="none" stroke="#000000" d="M 523.8769994766203 868.8019184802135 L 528 879 L 532.2957309688168 868.8734657733484" stroke-miterlimit="10"/></g><g transform="translate(-6,-350) scale(1,1)"><path fill="none" stroke="#000000" d="M 600 436 L 1128 436 L 1132 884 L 542 892" stroke-miterlimit="10"/></g><g transform="translate(-6,-350) scale(1,1)"><path fill="none" stroke="#000000" d="M 552.1046677955246 887.6530828461899 L 542 892 L 552.218813716568 896.0713445231376" stroke-miterlimit="10"/></g></g></svg>