<svg version="1.1" xmlns="http://www.w3.org/2000/svg" xmlns:xlink="http://www.w3.org/1999/xlink" width="1268" height="1340"><defs/><g><g transform="translate(-86,2) scale(1,1)"><path fill="none" stroke="#000000" d="M 96 8 L 1344 8 L 1344 1328 L 96 1328 L 96 8" stroke-miterlimit="10"/></g><g transform="translate(-86,2) scale(1,1)"><path fill="#ffffff" stroke="none" d="M 96 8 L 96 30 L 440 30 L 451 19 L 451 8 L 96 8"/></g><g transform="translate(-86,2) scale(1,1)"><path fill="none" stroke="#000000" d="M 96 8 L 96 30 L 440 30 L 451 19 L 451 8 L 96 8 L 96 8" stroke-miterlimit="10"/></g><g transform="translate(-86,2) scale(1,1)"><g><path fill="none" stroke="none"/><text fill="#000000" stroke="none" font-family="Arial" font-size="13px" font-style="normal" font-weight="normal" text-decoration="none" x="167" y="25.5">CU2 - Diagramme Séquence Système Détaillé</text></g></g><g transform="translate(-86,2) scale(1,1)"><g><path fill="none" stroke="none"/><text fill="#000000" stroke="none" font-family="Arial" font-size="13px" font-style="normal" font-weight="bold" text-decoration="none" x="101" y="25.5">interaction</text></g></g><g transform="translate(-86,2) scale(1,1)"><rect fill="#C0C0C0" stroke="none" x="135" y="47" width="71.736328125" height="39" opacity="0.2"/></g><g transform="translate(-86,2) scale(1,1)"><rect fill="#ffffff" stroke="none" x="128" y="40" width="71.736328125" height="39"/></g><g transform="translate(-86,2) scale(1,1)"><path fill="none" stroke="#000000" d="M 128 40 L 199.736328125 40 L 199.736328125 79 L 128 79 L 128 40 Z Z" stroke-miterlimit="10"/></g><g transform="translate(-86,2) scale(1,1)"><g><path fill="none" stroke="none"/><text fill="#000000" stroke="none" font-family="Arial" font-size="13px" font-style="normal" font-weight="bold" text-decoration="none" x="146.8681640625" y="59.5">Agent</text></g></g><g transform="translate(-86,2) scale(1,1)"><path fill="none" stroke="#000000" d="M 164.5 80 L 164.5 1312" stroke-miterlimit="10" stroke-dasharray="3"/></g><g transform="translate(-86,2) scale(1,1)"><rect fill="#C0C0C0" stroke="none" x="359" y="47" width="71.736328125" height="39" opacity="0.2"/></g><g transform="translate(-86,2) scale(1,1)"><rect fill="#ffffff" stroke="none" x="352" y="40" width="71.736328125" height="39"/></g><g transform="translate(-86,2) scale(1,1)"><path fill="none" stroke="#000000" d="M 352 40 L 423.736328125 40 L 423.736328125 79 L 352 79 L 352 40 Z Z" stroke-miterlimit="10"/></g><g transform="translate(-86,2) scale(1,1)"><g><path fill="none" stroke="none"/><text fill="#000000" stroke="none" font-family="Arial" font-size="13px" font-style="normal" font-weight="bold" text-decoration="none" x="375.8681640625" y="59.5">IHM</text></g></g><g transform="translate(-86,2) scale(1,1)"><path fill="none" stroke="#000000" d="M 388.5 80 L 388.5 1312" stroke-miterlimit="10" stroke-dasharray="3"/></g><g transform="translate(-86,2) scale(1,1)"><rect fill="#C0C0C0" stroke="none" x="1063" y="47" width="71.736328125" height="39" opacity="0.2"/></g><g transform="translate(-86,2) scale(1,1)"><rect fill="#ffffff" stroke="none" x="1056" y="40" width="71.736328125" height="39"/></g><g transform="translate(-86,2) scale(1,1)"><path fill="none" stroke="#000000" d="M 1056 40 L 1127.736328125 40 L 1127.736328125 79 L 1056 79 L 1056 40 Z Z" stroke-miterlimit="10"/></g><g transform="translate(-86,2) scale(1,1)"><g><path fill="none" stroke="none"/><text fill="#000000" stroke="none" font-family="Arial" font-size="13px" font-style="normal" font-weight="bold" text-decoration="none" x="1075.3681640625" y="59.5">Client</text></g></g><g transform="translate(-86,2) scale(1,1)"><path fill="none" stroke="#000000" d="M 1092.5 80 L 1092.5 1304" stroke-miterlimit="10" stroke-dasharray="3"/></g><g transform="translate(-86,2) scale(1,1)"><rect fill="#C0C0C0" stroke="none" x="1215" y="47" width="80.84521484375" height="39" opacity="0.2"/></g><g transform="translate(-86,2) scale(1,1)"><rect fill="#ffffff" stroke="none" x="1208" y="40" width="80.84521484375" height="39"/></g><g transform="translate(-86,2) scale(1,1)"><path fill="none" stroke="#000000" d="M 1208 40 L 1288.84521484375 40 L 1288.84521484375 79 L 1208 79 L 1208 40 Z Z" stroke-miterlimit="10"/></g><g transform="translate(-86,2) scale(1,1)"><g><path fill="none" stroke="none"/><text fill="#000000" stroke="none" font-family="Arial" font-size="13px" font-style="normal" font-weight="bold" text-decoration="none" x="1220.922607421875" y="59.5">Personne</text></g></g><g transform="translate(-86,2) scale(1,1)"><path fill="none" stroke="#000000" d="M 1249.5 80 L 1249.5 1304" stroke-miterlimit="10" stroke-dasharray="3"/></g><g transform="translate(-86,2) scale(1,1)"><rect fill="#C0C0C0" stroke="none" x="791" y="47" width="71.736328125" height="39" opacity="0.2"/></g><g transform="translate(-86,2) scale(1,1)"><rect fill="#ffffff" stroke="none" x="784" y="40" width="71.736328125" height="39"/></g><g transform="translate(-86,2) scale(1,1)"><path fill="none" stroke="#000000" d="M 784 40 L 855.736328125 40 L 855.736328125 79 L 784 79 L 784 40 Z Z" stroke-miterlimit="10"/></g><g transform="translate(-86,2) scale(1,1)"><g><path fill="none" stroke="none"/><text fill="#000000" stroke="none" font-family="Arial" font-size="13px" font-style="normal" font-weight="bold" text-decoration="none" x="809.8681640625" y="59.5">SM</text></g></g><g transform="translate(-86,2) scale(1,1)"><path fill="none" stroke="#000000" d="M 820.5 80 L 820.5 1312" stroke-miterlimit="10" stroke-dasharray="3"/></g><g transform="translate(-86,2) scale(1,1)"><g><path fill="none" stroke="none"/><text fill="#000000" stroke="none" font-family="Arial" font-size="13px" font-style="normal" font-weight="normal" text-decoration="none" x="477" y="170">: Client</text></g></g><g transform="translate(-86,2) scale(1,1)"><g><path fill="none" stroke="none"/><text fill="#000000" stroke="none" font-family="Arial" font-size="13px" font-style="normal" font-weight="normal" text-decoration="none" x="837" y="186">: Client</text></g></g><g transform="translate(-86,2) scale(1,1)"><g><path fill="none" stroke="none"/><text fill="#000000" stroke="none" font-family="Arial" font-size="13px" font-style="normal" font-weight="normal" text-decoration="none" x="469" y="282">: Liste&lt;Personne, Adresse&gt;</text></g></g><g transform="translate(-86,2) scale(1,1)"><g><path fill="none" stroke="none"/><text fill="#000000" stroke="none" font-family="Arial" font-size="13px" font-style="normal" font-weight="normal" text-decoration="none" x="837" y="290">: Liste&lt;idPersonne&gt;</text></g></g><g transform="translate(-86,2) scale(1,1)"><path fill="none" stroke="#000000" d="M 512 320 L 1264 320 L 1264 416 L 512 416 L 512 320" stroke-miterlimit="10"/></g><g transform="translate(-86,2) scale(1,1)"><path fill="#ffffff" stroke="none" d="M 512 320 L 512 342 L 664 342 L 675 331 L 675 320 L 512 320"/></g><g transform="translate(-86,2) scale(1,1)"><path fill="none" stroke="#000000" d="M 512 320 L 512 342 L 664 342 L 675 331 L 675 320 L 512 320 L 512 320" stroke-miterlimit="10"/></g><g transform="translate(-86,2) scale(1,1)"><g><path fill="none" stroke="none"/><text fill="#000000" stroke="none" font-family="Arial" font-size="13px" font-style="normal" font-weight="normal" text-decoration="none" x="547" y="337.5">foreach idPersonne</text></g></g><g transform="translate(-86,2) scale(1,1)"><g><path fill="none" stroke="none"/><text fill="#000000" stroke="none" font-family="Arial" font-size="13px" font-style="normal" font-weight="bold" text-decoration="none" x="517" y="337.5">loop</text></g></g><g transform="translate(-86,2) scale(1,1)"><g><path fill="none" stroke="none"/><text fill="#000000" stroke="none" font-family="Arial" font-size="13px" font-style="normal" font-weight="normal" text-decoration="none" x="837" y="370">: Personne, Adresse</text></g></g><g transform="translate(-86,2) scale(1,1)"><g><path fill="none" stroke="none"/><text fill="#000000" stroke="none" font-family="Arial" font-size="13px" font-style="normal" font-weight="normal" text-decoration="none" x="437" y="506">: Personne, Adresse</text></g></g><g transform="translate(-86,2) scale(1,1)"><g><path fill="none" stroke="none"/><text fill="#000000" stroke="none" font-family="Arial" font-size="13px" font-style="normal" font-weight="normal" text-decoration="none" x="845" y="514">: Personne, Adresse</text></g></g><g transform="translate(-86,2) scale(1,1)"><g><path fill="none" stroke="none"/><text fill="#000000" stroke="none" font-family="Arial" font-size="13px" font-style="normal" font-weight="normal" text-decoration="none" x="413" y="602">: CRE</text></g></g><g transform="translate(-86,2) scale(1,1)"><g><path fill="none" stroke="none"/><text fill="#000000" stroke="none" font-family="Arial" font-size="13px" font-style="normal" font-weight="normal" text-decoration="none" x="869" y="618">: CRE</text></g></g><g transform="translate(-86,2) scale(1,1)"><g><path fill="none" stroke="none"/><text fill="#000000" stroke="none" font-family="Arial" font-size="13px" font-style="normal" font-weight="normal" text-decoration="none" x="405" y="866">: Personne, Adresse</text></g></g><g transform="translate(-86,2) scale(1,1)"><g><path fill="none" stroke="none"/><text fill="#000000" stroke="none" font-family="Arial" font-size="13px" font-style="normal" font-weight="normal" text-decoration="none" x="837" y="890">: Personne, Adresse</text></g></g><g transform="translate(-86,2) scale(1,1)"><g><path fill="none" stroke="none"/><text fill="#000000" stroke="none" font-family="Arial" font-size="13px" font-style="normal" font-weight="normal" text-decoration="none" x="429" y="706">: Liste&lt;Personne, Adresse&gt;</text></g></g><g transform="translate(-86,2) scale(1,1)"><g><path fill="none" stroke="none"/><text fill="#000000" stroke="none" font-family="Arial" font-size="13px" font-style="normal" font-weight="normal" text-decoration="none" x="837" y="714">: Liste&lt;idPersonne&gt;</text></g></g><g transform="translate(-86,2) scale(1,1)"><g><path fill="none" stroke="none"/><text fill="#000000" stroke="none" font-family="Arial" font-size="13px" font-style="normal" font-weight="normal" text-decoration="none" x="837" y="786">: Liste&lt;Personne, Adresse&gt;</text></g></g><g transform="translate(-86,2) scale(1,1)"><g><path fill="none" stroke="none"/><text fill="#000000" stroke="none" font-family="Arial" font-size="13px" font-style="normal" font-weight="normal" text-decoration="none" x="413" y="954">: CRE</text></g></g><g transform="translate(-86,2) scale(1,1)"><g><path fill="none" stroke="none"/><text fill="#000000" stroke="none" font-family="Arial" font-size="13px" font-style="normal" font-weight="normal" text-decoration="none" x="845" y="962">: idPersonne</text></g></g><g transform="translate(-86,2) scale(1,1)"><g><path fill="none" stroke="none"/><text fill="#000000" stroke="none" font-family="Arial" font-size="13px" font-style="normal" font-weight="normal" text-decoration="none" x="837" y="1026">: CRE</text></g></g><g transform="translate(-86,2) scale(1,1)"><g><path fill="none" stroke="none"/><text fill="#000000" stroke="none" font-family="Arial" font-size="13px" font-style="normal" font-weight="normal" text-decoration="none" x="837" y="1106">: CRE</text></g></g><g transform="translate(-86,2) scale(1,1)"><g><path fill="none" stroke="none"/><text fill="#000000" stroke="none" font-family="Arial" font-size="13px" font-style="normal" font-weight="normal" text-decoration="none" x="413" y="1098">: CRE</text></g></g><g transform="translate(-86,2) scale(1,1)"><g><path fill="none" stroke="none"/><text fill="#000000" stroke="none" font-family="Arial" font-size="13px" font-style="normal" font-weight="normal" text-decoration="none" x="405" y="1202">: CRE</text></g></g><g transform="translate(-86,2) scale(1,1)"><g><path fill="none" stroke="none"/><text fill="#000000" stroke="none" font-family="Arial" font-size="13px" font-style="normal" font-weight="normal" text-decoration="none" x="837" y="1218">: CRE</text></g></g><g transform="translate(-86,2) scale(1,1)"><path fill="none" stroke="#000000" d="M 164 128 L 381 128" stroke-miterlimit="10"/></g><g transform="translate(-86,2) scale(1,1)"><path fill="#000000" stroke="none" d="M 370.83732514237585 132.209517756016 L 381 128 L 370.83732514237585 123.79048224398402"/></g><g transform="translate(-86,2) scale(1,1)"><path fill="none" stroke="#000000" d="M 370.83732514237585 132.209517756016 L 381 128 L 370.83732514237585 123.79048224398402 L 370.83732514237585 132.209517756016" stroke-miterlimit="10"/></g><g transform="translate(-86,2) scale(1,1)"><g><path fill="none" stroke="none"/><text fill="#000000" stroke="none" font-family="Arial" font-size="13px" font-style="normal" font-weight="normal" text-decoration="none" x="199" y="124">1 : RecupererInfosClient</text></g></g><g transform="translate(-86,2) scale(1,1)"><rect fill="#ffffff" stroke="none" x="381" y="128" width="13" height="28"/></g><g transform="translate(-86,2) scale(1,1)"><path fill="none" stroke="#000000" d="M 381 128 L 394 128 L 394 156 L 381 156 L 381 128 Z Z" stroke-miterlimit="10"/></g><g transform="translate(-86,2) scale(1,1)"><path fill="none" stroke="#000000" d="M 394 145 L 813 145" stroke-miterlimit="10"/></g><g transform="translate(-86,2) scale(1,1)"><path fill="#000000" stroke="none" d="M 802.8373251423759 149.209517756016 L 813 145 L 802.8373251423758 140.790482243984"/></g><g transform="translate(-86,2) scale(1,1)"><path fill="none" stroke="#000000" d="M 802.8373251423759 149.209517756016 L 813 145 L 802.8373251423758 140.790482243984 L 802.8373251423759 149.209517756016" stroke-miterlimit="10"/></g><g transform="translate(-86,2) scale(1,1)"><g><path fill="none" stroke="none"/><text fill="#000000" stroke="none" font-family="Arial" font-size="13px" font-style="normal" font-weight="normal" text-decoration="none" x="502" y="142">2 : SM1 : recupInfosClient(idClient)</text></g></g><g transform="translate(-86,2) scale(1,1)"><rect fill="#ffffff" stroke="none" x="813" y="145" width="13" height="28"/></g><g transform="translate(-86,2) scale(1,1)"><path fill="none" stroke="#000000" d="M 813 145 L 826 145 L 826 173 L 813 173 L 813 145 Z Z" stroke-miterlimit="10"/></g><g transform="translate(-86,2) scale(1,1)"><path fill="none" stroke="#000000" d="M 826 160 L 1085 160" stroke-miterlimit="10"/></g><g transform="translate(-86,2) scale(1,1)"><path fill="#000000" stroke="none" d="M 1074.837325142376 164.209517756016 L 1085 160 L 1074.837325142376 155.790482243984"/></g><g transform="translate(-86,2) scale(1,1)"><path fill="none" stroke="#000000" d="M 1074.837325142376 164.209517756016 L 1085 160 L 1074.837325142376 155.790482243984 L 1074.837325142376 164.209517756016" stroke-miterlimit="10"/></g><g transform="translate(-86,2) scale(1,1)"><g><path fill="none" stroke="none"/><text fill="#000000" stroke="none" font-family="Arial" font-size="13px" font-style="normal" font-weight="normal" text-decoration="none" x="831" y="156">3 : SOM1 : recupInfosClient(idClient)</text></g></g><g transform="translate(-86,2) scale(1,1)"><rect fill="#ffffff" stroke="none" x="1085" y="160" width="13" height="28"/></g><g transform="translate(-86,2) scale(1,1)"><path fill="none" stroke="#000000" d="M 1085 160 L 1098 160 L 1098 188 L 1085 188 L 1085 160 Z Z" stroke-miterlimit="10"/></g><g transform="translate(-86,2) scale(1,1)"><path fill="none" stroke="#000000" d="M 164 248 L 381 248" stroke-miterlimit="10"/></g><g transform="translate(-86,2) scale(1,1)"><path fill="#000000" stroke="none" d="M 370.83732514237585 252.209517756016 L 381 248 L 370.83732514237585 243.790482243984"/></g><g transform="translate(-86,2) scale(1,1)"><path fill="none" stroke="#000000" d="M 370.83732514237585 252.209517756016 L 381 248 L 370.83732514237585 243.790482243984 L 370.83732514237585 252.209517756016" stroke-miterlimit="10"/></g><g transform="translate(-86,2) scale(1,1)"><g><path fill="none" stroke="none"/><text fill="#000000" stroke="none" font-family="Arial" font-size="13px" font-style="normal" font-weight="normal" text-decoration="none" x="194" y="245">4 : ConsulterListePersonne</text></g></g><g transform="translate(-86,2) scale(1,1)"><rect fill="#ffffff" stroke="none" x="381" y="248" width="13" height="28"/></g><g transform="translate(-86,2) scale(1,1)"><path fill="none" stroke="#000000" d="M 381 248 L 394 248 L 394 276 L 381 276 L 381 248 Z Z" stroke-miterlimit="10"/></g><g transform="translate(-86,2) scale(1,1)"><path fill="none" stroke="#000000" d="M 394 264 L 813 264" stroke-miterlimit="10"/></g><g transform="translate(-86,2) scale(1,1)"><path fill="#000000" stroke="none" d="M 802.8373251423759 268.209517756016 L 813 264 L 802.8373251423758 259.790482243984"/></g><g transform="translate(-86,2) scale(1,1)"><path fill="none" stroke="#000000" d="M 802.8373251423759 268.209517756016 L 813 264 L 802.8373251423758 259.790482243984 L 802.8373251423759 268.209517756016" stroke-miterlimit="10"/></g><g transform="translate(-86,2) scale(1,1)"><g><path fill="none" stroke="none"/><text fill="#000000" stroke="none" font-family="Arial" font-size="13px" font-style="normal" font-weight="normal" text-decoration="none" x="486" y="261">5 : SM2 : afficherListePersonne(idClient)</text></g></g><g transform="translate(-86,2) scale(1,1)"><rect fill="#ffffff" stroke="none" x="813" y="264" width="13" height="136"/></g><g transform="translate(-86,2) scale(1,1)"><path fill="none" stroke="#000000" d="M 813 264 L 826 264 L 826 400 L 813 400 L 813 264 Z Z" stroke-miterlimit="10"/></g><g transform="translate(-86,2) scale(1,1)"><path fill="none" stroke="#000000" d="M 826 272 L 1085 272" stroke-miterlimit="10"/></g><g transform="translate(-86,2) scale(1,1)"><path fill="#000000" stroke="none" d="M 1074.837325142376 276.209517756016 L 1085 272 L 1074.837325142376 267.790482243984"/></g><g transform="translate(-86,2) scale(1,1)"><path fill="none" stroke="#000000" d="M 1074.837325142376 276.209517756016 L 1085 272 L 1074.837325142376 267.790482243984 L 1074.837325142376 276.209517756016" stroke-miterlimit="10"/></g><g transform="translate(-86,2) scale(1,1)"><g><path fill="none" stroke="none"/><text fill="#000000" stroke="none" font-family="Arial" font-size="13px" font-style="normal" font-weight="normal" text-decoration="none" x="838" y="269">6 : SOM2 : recupListePersonne(idClient)</text></g></g><g transform="translate(-86,2) scale(1,1)"><rect fill="#ffffff" stroke="none" x="1085" y="272" width="13" height="28"/></g><g transform="translate(-86,2) scale(1,1)"><path fill="none" stroke="#000000" d="M 1085 272 L 1098 272 L 1098 300 L 1085 300 L 1085 272 Z Z" stroke-miterlimit="10"/></g><g transform="translate(-86,2) scale(1,1)"><path fill="none" stroke="#000000" d="M 826 352 L 1242 352" stroke-miterlimit="10"/></g><g transform="translate(-86,2) scale(1,1)"><path fill="#000000" stroke="none" d="M 1231.837325142376 356.209517756016 L 1242 352 L 1231.837325142376 347.790482243984"/></g><g transform="translate(-86,2) scale(1,1)"><path fill="none" stroke="#000000" d="M 1231.837325142376 356.209517756016 L 1242 352 L 1231.837325142376 347.790482243984 L 1231.837325142376 356.209517756016" stroke-miterlimit="10"/></g><g transform="translate(-86,2) scale(1,1)"><g><path fill="none" stroke="none"/><text fill="#000000" stroke="none" font-family="Arial" font-size="13px" font-style="normal" font-weight="normal" text-decoration="none" x="840" y="348">7 : SOM3 : recupPersonne(idPersonne)</text></g></g><g transform="translate(-86,2) scale(1,1)"><rect fill="#ffffff" stroke="none" x="1242" y="352" width="13" height="28"/></g><g transform="translate(-86,2) scale(1,1)"><path fill="none" stroke="#000000" d="M 1242 352 L 1255 352 L 1255 380 L 1242 380 L 1242 352 Z Z" stroke-miterlimit="10"/></g><g transform="translate(-86,2) scale(1,1)"><path fill="none" stroke="#000000" d="M 164 464 L 381 464" stroke-miterlimit="10"/></g><g transform="translate(-86,2) scale(1,1)"><path fill="#000000" stroke="none" d="M 370.83732514237585 468.209517756016 L 381 464 L 370.83732514237585 459.790482243984"/></g><g transform="translate(-86,2) scale(1,1)"><path fill="none" stroke="#000000" d="M 370.83732514237585 468.209517756016 L 381 464 L 370.83732514237585 459.790482243984 L 370.83732514237585 468.209517756016" stroke-miterlimit="10"/></g><g transform="translate(-86,2) scale(1,1)"><g><path fill="none" stroke="none"/><text fill="#000000" stroke="none" font-family="Arial" font-size="13px" font-style="normal" font-weight="normal" text-decoration="none" x="196" y="461">8 : AfficherDetailPersonne</text></g></g><g transform="translate(-86,2) scale(1,1)"><rect fill="#ffffff" stroke="none" x="381" y="464" width="13" height="28"/></g><g transform="translate(-86,2) scale(1,1)"><path fill="none" stroke="#000000" d="M 381 464 L 394 464 L 394 492 L 381 492 L 381 464 Z Z" stroke-miterlimit="10"/></g><g transform="translate(-86,2) scale(1,1)"><path fill="none" stroke="#000000" d="M 394 482 L 813 482" stroke-miterlimit="10"/></g><g transform="translate(-86,2) scale(1,1)"><path fill="#000000" stroke="none" d="M 802.8373251423759 486.209517756016 L 813 482 L 802.8373251423758 477.790482243984"/></g><g transform="translate(-86,2) scale(1,1)"><path fill="none" stroke="#000000" d="M 802.8373251423759 486.209517756016 L 813 482 L 802.8373251423758 477.790482243984 L 802.8373251423759 486.209517756016" stroke-miterlimit="10"/></g><g transform="translate(-86,2) scale(1,1)"><g><path fill="none" stroke="none"/><text fill="#000000" stroke="none" font-family="Arial" font-size="13px" font-style="normal" font-weight="normal" text-decoration="none" x="431" y="476">9 : SM3 : recupInfosPersonne(idPersonne)</text></g></g><g transform="translate(-86,2) scale(1,1)"><rect fill="#ffffff" stroke="none" x="813" y="482" width="13" height="28"/></g><g transform="translate(-86,2) scale(1,1)"><path fill="none" stroke="#000000" d="M 813 482 L 826 482 L 826 510 L 813 510 L 813 482 Z Z" stroke-miterlimit="10"/></g><g transform="translate(-86,2) scale(1,1)"><path fill="none" stroke="#000000" d="M 826 496 L 1242 496" stroke-miterlimit="10"/></g><g transform="translate(-86,2) scale(1,1)"><path fill="#000000" stroke="none" d="M 1231.837325142376 500.209517756016 L 1242 496 L 1231.837325142376 491.790482243984"/></g><g transform="translate(-86,2) scale(1,1)"><path fill="none" stroke="#000000" d="M 1231.837325142376 500.209517756016 L 1242 496 L 1231.837325142376 491.790482243984 L 1231.837325142376 500.209517756016" stroke-miterlimit="10"/></g><g transform="translate(-86,2) scale(1,1)"><g><path fill="none" stroke="none"/><text fill="#000000" stroke="none" font-family="Arial" font-size="13px" font-style="normal" font-weight="normal" text-decoration="none" x="848" y="492">10 : SOM3</text></g></g><g transform="translate(-86,2) scale(1,1)"><rect fill="#ffffff" stroke="none" x="1242" y="496" width="13" height="28"/></g><g transform="translate(-86,2) scale(1,1)"><path fill="none" stroke="#000000" d="M 1242 496 L 1255 496 L 1255 524 L 1242 524 L 1242 496 Z Z" stroke-miterlimit="10"/></g><g transform="translate(-86,2) scale(1,1)"><path fill="none" stroke="#000000" d="M 164 568 L 381 568" stroke-miterlimit="10"/></g><g transform="translate(-86,2) scale(1,1)"><path fill="#000000" stroke="none" d="M 370.83732514237585 572.209517756016 L 381 568 L 370.83732514237585 563.790482243984"/></g><g transform="translate(-86,2) scale(1,1)"><path fill="none" stroke="#000000" d="M 370.83732514237585 572.209517756016 L 381 568 L 370.83732514237585 563.790482243984 L 370.83732514237585 572.209517756016" stroke-miterlimit="10"/></g><g transform="translate(-86,2) scale(1,1)"><g><path fill="none" stroke="none"/><text fill="#000000" stroke="none" font-family="Arial" font-size="13px" font-style="normal" font-weight="normal" text-decoration="none" x="189" y="565">11 : ModifierDetailsPersonne</text></g></g><g transform="translate(-86,2) scale(1,1)"><rect fill="#ffffff" stroke="none" x="381" y="568" width="13" height="28"/></g><g transform="translate(-86,2) scale(1,1)"><path fill="none" stroke="#000000" d="M 381 568 L 394 568 L 394 596 L 381 596 L 381 568 Z Z" stroke-miterlimit="10"/></g><g transform="translate(-86,2) scale(1,1)"><path fill="none" stroke="#000000" d="M 394 584 L 813 584" stroke-miterlimit="10"/></g><g transform="translate(-86,2) scale(1,1)"><path fill="#000000" stroke="none" d="M 802.8373251423759 588.209517756016 L 813 584 L 802.8373251423758 579.790482243984"/></g><g transform="translate(-86,2) scale(1,1)"><path fill="none" stroke="#000000" d="M 802.8373251423759 588.209517756016 L 813 584 L 802.8373251423758 579.790482243984 L 802.8373251423759 588.209517756016" stroke-miterlimit="10"/></g><g transform="translate(-86,2) scale(1,1)"><g><path fill="none" stroke="none"/><text fill="#000000" stroke="none" font-family="Arial" font-size="13px" font-style="normal" font-weight="normal" text-decoration="none" x="409" y="581">12 : SM4 : modifDetailsPersonne(infosPersonne, adresse, idAgent)</text></g></g><g transform="translate(-86,2) scale(1,1)"><rect fill="#ffffff" stroke="none" x="813" y="584" width="13" height="28"/></g><g transform="translate(-86,2) scale(1,1)"><path fill="none" stroke="#000000" d="M 813 584 L 826 584 L 826 612 L 813 612 L 813 584 Z Z" stroke-miterlimit="10"/></g><g transform="translate(-86,2) scale(1,1)"><path fill="none" stroke="#000000" d="M 826 600 L 1242 600" stroke-miterlimit="10"/></g><g transform="translate(-86,2) scale(1,1)"><path fill="#000000" stroke="none" d="M 1231.837325142376 604.209517756016 L 1242 600 L 1231.837325142376 595.790482243984"/></g><g transform="translate(-86,2) scale(1,1)"><path fill="none" stroke="#000000" d="M 1231.837325142376 604.209517756016 L 1242 600 L 1231.837325142376 595.790482243984 L 1231.837325142376 604.209517756016" stroke-miterlimit="10"/></g><g transform="translate(-86,2) scale(1,1)"><g><path fill="none" stroke="none"/><text fill="#000000" stroke="none" font-family="Arial" font-size="13px" font-style="normal" font-weight="normal" text-decoration="none" x="863" y="597">13 : SOM4 : modifDetailsPersonne(infosPers, adr, idAgent)</text></g></g><g transform="translate(-86,2) scale(1,1)"><rect fill="#ffffff" stroke="none" x="1242" y="600" width="13" height="28"/></g><g transform="translate(-86,2) scale(1,1)"><path fill="none" stroke="#000000" d="M 1242 600 L 1255 600 L 1255 628 L 1242 628 L 1242 600 Z Z" stroke-miterlimit="10"/></g><g transform="translate(-86,2) scale(1,1)"><path fill="none" stroke="#000000" d="M 164 672 L 381 672" stroke-miterlimit="10"/></g><g transform="translate(-86,2) scale(1,1)"><path fill="#000000" stroke="none" d="M 370.83732514237585 676.209517756016 L 381 672 L 370.83732514237585 667.790482243984"/></g><g transform="translate(-86,2) scale(1,1)"><path fill="none" stroke="#000000" d="M 370.83732514237585 676.209517756016 L 381 672 L 370.83732514237585 667.790482243984 L 370.83732514237585 676.209517756016" stroke-miterlimit="10"/></g><g transform="translate(-86,2) scale(1,1)"><g><path fill="none" stroke="none"/><text fill="#000000" stroke="none" font-family="Arial" font-size="13px" font-style="normal" font-weight="normal" text-decoration="none" x="195" y="669">14 : RechercherPersonnes</text></g></g><g transform="translate(-86,2) scale(1,1)"><rect fill="#ffffff" stroke="none" x="381" y="672" width="13" height="28"/></g><g transform="translate(-86,2) scale(1,1)"><path fill="none" stroke="#000000" d="M 381 672 L 394 672 L 394 700 L 381 700 L 381 672 Z Z" stroke-miterlimit="10"/></g><g transform="translate(-86,2) scale(1,1)"><path fill="none" stroke="#000000" d="M 394 680 L 813 680" stroke-miterlimit="10"/></g><g transform="translate(-86,2) scale(1,1)"><path fill="#000000" stroke="none" d="M 802.8373251423759 684.209517756016 L 813 680 L 802.8373251423758 675.790482243984"/></g><g transform="translate(-86,2) scale(1,1)"><path fill="none" stroke="#000000" d="M 802.8373251423759 684.209517756016 L 813 680 L 802.8373251423758 675.790482243984 L 802.8373251423759 684.209517756016" stroke-miterlimit="10"/></g><g transform="translate(-86,2) scale(1,1)"><g><path fill="none" stroke="none"/><text fill="#000000" stroke="none" font-family="Arial" font-size="13px" font-style="normal" font-weight="normal" text-decoration="none" x="406" y="676">15 : SM5 : rechercherPersonnes(idClient, nomP, prenomP, villeP)</text></g></g><g transform="translate(-86,2) scale(1,1)"><rect fill="#ffffff" stroke="none" x="813" y="680" width="13" height="112"/></g><g transform="translate(-86,2) scale(1,1)"><path fill="none" stroke="#000000" d="M 813 680 L 826 680 L 826 792 L 813 792 L 813 680 Z Z" stroke-miterlimit="10"/></g><g transform="translate(-86,2) scale(1,1)"><path fill="none" stroke="#000000" d="M 826 698 L 1085 698" stroke-miterlimit="10"/></g><g transform="translate(-86,2) scale(1,1)"><path fill="#000000" stroke="none" d="M 1074.837325142376 702.209517756016 L 1085 698 L 1074.837325142376 693.790482243984"/></g><g transform="translate(-86,2) scale(1,1)"><path fill="none" stroke="#000000" d="M 1074.837325142376 702.209517756016 L 1085 698 L 1074.837325142376 693.790482243984 L 1074.837325142376 702.209517756016" stroke-miterlimit="10"/></g><g transform="translate(-86,2) scale(1,1)"><g><path fill="none" stroke="none"/><text fill="#000000" stroke="none" font-family="Arial" font-size="13px" font-style="normal" font-weight="normal" text-decoration="none" x="924" y="695">16 : SOM2</text></g></g><g transform="translate(-86,2) scale(1,1)"><rect fill="#ffffff" stroke="none" x="1085" y="698" width="13" height="28"/></g><g transform="translate(-86,2) scale(1,1)"><path fill="none" stroke="#000000" d="M 1085 698 L 1098 698 L 1098 726 L 1085 726 L 1085 698 Z Z" stroke-miterlimit="10"/></g><g transform="translate(-86,2) scale(1,1)"><path fill="none" stroke="#000000" d="M 826 768 L 1242 768" stroke-miterlimit="10"/></g><g transform="translate(-86,2) scale(1,1)"><path fill="#000000" stroke="none" d="M 1231.837325142376 772.209517756016 L 1242 768 L 1231.837325142376 763.790482243984"/></g><g transform="translate(-86,2) scale(1,1)"><path fill="none" stroke="#000000" d="M 1231.837325142376 772.209517756016 L 1242 768 L 1231.837325142376 763.790482243984 L 1231.837325142376 772.209517756016" stroke-miterlimit="10"/></g><g transform="translate(-86,2) scale(1,1)"><g><path fill="none" stroke="none"/><text fill="#000000" stroke="none" font-family="Arial" font-size="12px" font-style="normal" font-weight="normal" text-decoration="none" x="828" y="763">17 : SOM5 : rechercherPersonnesHorsClient(nomP, prenomP, villeP, liste&lt;idPersonne&gt;)</text></g></g><g transform="translate(-86,2) scale(1,1)"><rect fill="#ffffff" stroke="none" x="1242" y="768" width="13" height="28"/></g><g transform="translate(-86,2) scale(1,1)"><path fill="none" stroke="#000000" d="M 1242 768 L 1255 768 L 1255 796 L 1242 796 L 1242 768 Z Z" stroke-miterlimit="10"/></g><g transform="translate(-86,2) scale(1,1)"><path fill="none" stroke="#000000" d="M 164 824 L 381 824" stroke-miterlimit="10"/></g><g transform="translate(-86,2) scale(1,1)"><path fill="#000000" stroke="none" d="M 370.83732514237585 828.209517756016 L 381 824 L 370.83732514237585 819.790482243984"/></g><g transform="translate(-86,2) scale(1,1)"><path fill="none" stroke="#000000" d="M 370.83732514237585 828.209517756016 L 381 824 L 370.83732514237585 819.790482243984 L 370.83732514237585 828.209517756016" stroke-miterlimit="10"/></g><g transform="translate(-86,2) scale(1,1)"><g><path fill="none" stroke="none"/><text fill="#000000" stroke="none" font-family="Arial" font-size="13px" font-style="normal" font-weight="normal" text-decoration="none" x="189" y="821">18 : AfficherDetailsPersonne</text></g></g><g transform="translate(-86,2) scale(1,1)"><rect fill="#ffffff" stroke="none" x="381" y="824" width="13" height="28"/></g><g transform="translate(-86,2) scale(1,1)"><path fill="none" stroke="#000000" d="M 381 824 L 394 824 L 394 852 L 381 852 L 381 824 Z Z" stroke-miterlimit="10"/></g><g transform="translate(-86,2) scale(1,1)"><path fill="none" stroke="#000000" d="M 394 840 L 813 840" stroke-miterlimit="10"/></g><g transform="translate(-86,2) scale(1,1)"><path fill="#000000" stroke="none" d="M 802.8373251423759 844.209517756016 L 813 840 L 802.8373251423758 835.790482243984"/></g><g transform="translate(-86,2) scale(1,1)"><path fill="none" stroke="#000000" d="M 802.8373251423759 844.209517756016 L 813 840 L 802.8373251423758 835.790482243984 L 802.8373251423759 844.209517756016" stroke-miterlimit="10"/></g><g transform="translate(-86,2) scale(1,1)"><g><path fill="none" stroke="none"/><text fill="#000000" stroke="none" font-family="Arial" font-size="13px" font-style="normal" font-weight="normal" text-decoration="none" x="407" y="836">19 : SM3</text></g></g><g transform="translate(-86,2) scale(1,1)"><rect fill="#ffffff" stroke="none" x="813" y="840" width="13" height="28"/></g><g transform="translate(-86,2) scale(1,1)"><path fill="none" stroke="#000000" d="M 813 840 L 826 840 L 826 868 L 813 868 L 813 840 Z Z" stroke-miterlimit="10"/></g><g transform="translate(-86,2) scale(1,1)"><path fill="none" stroke="#000000" d="M 826 862 L 1242 862" stroke-miterlimit="10"/></g><g transform="translate(-86,2) scale(1,1)"><path fill="#000000" stroke="none" d="M 1231.837325142376 866.209517756016 L 1242 862 L 1231.837325142376 857.790482243984"/></g><g transform="translate(-86,2) scale(1,1)"><path fill="none" stroke="#000000" d="M 1231.837325142376 866.209517756016 L 1242 862 L 1231.837325142376 857.790482243984 L 1231.837325142376 866.209517756016" stroke-miterlimit="10"/></g><g transform="translate(-86,2) scale(1,1)"><g><path fill="none" stroke="none"/><text fill="#000000" stroke="none" font-family="Arial" font-size="13px" font-style="normal" font-weight="normal" text-decoration="none" x="840" y="858">20 : SOM3</text></g></g><g transform="translate(-86,2) scale(1,1)"><rect fill="#ffffff" stroke="none" x="1242" y="862" width="13" height="28"/></g><g transform="translate(-86,2) scale(1,1)"><path fill="none" stroke="#000000" d="M 1242 862 L 1255 862 L 1255 890 L 1242 890 L 1242 862 Z Z" stroke-miterlimit="10"/></g><g transform="translate(-86,2) scale(1,1)"><path fill="none" stroke="#000000" d="M 164 912 L 381 912" stroke-miterlimit="10"/></g><g transform="translate(-86,2) scale(1,1)"><path fill="#000000" stroke="none" d="M 370.83732514237585 916.209517756016 L 381 912 L 370.83732514237585 907.790482243984"/></g><g transform="translate(-86,2) scale(1,1)"><path fill="none" stroke="#000000" d="M 370.83732514237585 916.209517756016 L 381 912 L 370.83732514237585 907.790482243984 L 370.83732514237585 916.209517756016" stroke-miterlimit="10"/></g><g transform="translate(-86,2) scale(1,1)"><g><path fill="none" stroke="none"/><text fill="#000000" stroke="none" font-family="Arial" font-size="13px" font-style="normal" font-weight="normal" text-decoration="none" x="209" y="908">21 : CreerPersonne</text></g></g><g transform="translate(-86,2) scale(1,1)"><rect fill="#ffffff" stroke="none" x="381" y="912" width="13" height="28"/></g><g transform="translate(-86,2) scale(1,1)"><path fill="none" stroke="#000000" d="M 381 912 L 394 912 L 394 940 L 381 940 L 381 912 Z Z" stroke-miterlimit="10"/></g><g transform="translate(-86,2) scale(1,1)"><path fill="none" stroke="#000000" d="M 394 930 L 813 930" stroke-miterlimit="10"/></g><g transform="translate(-86,2) scale(1,1)"><path fill="#000000" stroke="none" d="M 802.8373251423759 934.209517756016 L 813 930 L 802.8373251423758 925.790482243984"/></g><g transform="translate(-86,2) scale(1,1)"><path fill="none" stroke="#000000" d="M 802.8373251423759 934.209517756016 L 813 930 L 802.8373251423758 925.790482243984 L 802.8373251423759 934.209517756016" stroke-miterlimit="10"/></g><g transform="translate(-86,2) scale(1,1)"><g><path fill="none" stroke="none"/><text fill="#000000" stroke="none" font-family="Arial" font-size="13px" font-style="normal" font-weight="normal" text-decoration="none" x="432" y="927">22 : SM6 : creerPersonne(idClient, infosPersonne, idAgent)</text></g></g><g transform="translate(-86,2) scale(1,1)"><rect fill="#ffffff" stroke="none" x="813" y="930" width="13" height="94"/></g><g transform="translate(-86,2) scale(1,1)"><path fill="none" stroke="#000000" d="M 813 930 L 826 930 L 826 1024 L 813 1024 L 813 930 Z Z" stroke-miterlimit="10"/></g><g transform="translate(-86,2) scale(1,1)"><path fill="none" stroke="#000000" d="M 826 939 L 1242 939" stroke-miterlimit="10"/></g><g transform="translate(-86,2) scale(1,1)"><path fill="#000000" stroke="none" d="M 1231.837325142376 943.209517756016 L 1242 939 L 1231.837325142376 934.790482243984"/></g><g transform="translate(-86,2) scale(1,1)"><path fill="none" stroke="#000000" d="M 1231.837325142376 943.209517756016 L 1242 939 L 1231.837325142376 934.790482243984 L 1231.837325142376 943.209517756016" stroke-miterlimit="10"/></g><g transform="translate(-86,2) scale(1,1)"><g><path fill="none" stroke="none"/><text fill="#000000" stroke="none" font-family="Arial" font-size="13px" font-style="normal" font-weight="normal" text-decoration="none" x="840" y="932">23 : SOM6 : creerPersonne(infosPersonne, idAgent)</text></g></g><g transform="translate(-86,2) scale(1,1)"><rect fill="#ffffff" stroke="none" x="1242" y="939" width="13" height="28"/></g><g transform="translate(-86,2) scale(1,1)"><path fill="none" stroke="#000000" d="M 1242 939 L 1255 939 L 1255 967 L 1242 967 L 1242 939 Z Z" stroke-miterlimit="10"/></g><g transform="translate(-86,2) scale(1,1)"><path fill="none" stroke="#000000" d="M 826 1008 L 1085 1008" stroke-miterlimit="10"/></g><g transform="translate(-86,2) scale(1,1)"><path fill="#000000" stroke="none" d="M 1074.837325142376 1012.209517756016 L 1085 1008 L 1074.837325142376 1003.790482243984"/></g><g transform="translate(-86,2) scale(1,1)"><path fill="none" stroke="#000000" d="M 1074.837325142376 1012.209517756016 L 1085 1008 L 1074.837325142376 1003.790482243984 L 1074.837325142376 1012.209517756016" stroke-miterlimit="10"/></g><g transform="translate(-86,2) scale(1,1)"><g><path fill="none" stroke="none"/><text fill="#000000" stroke="none" font-family="Arial" font-size="13px" font-style="normal" font-weight="normal" text-decoration="none" x="831" y="1005">24 : SOM7 : ajouterPersonneClient(idClient, idPersonne)</text></g></g><g transform="translate(-86,2) scale(1,1)"><rect fill="#ffffff" stroke="none" x="1085" y="1008" width="13" height="28"/></g><g transform="translate(-86,2) scale(1,1)"><path fill="none" stroke="#000000" d="M 1085 1008 L 1098 1008 L 1098 1036 L 1085 1036 L 1085 1008 Z Z" stroke-miterlimit="10"/></g><g transform="translate(-86,2) scale(1,1)"><path fill="none" stroke="#000000" d="M 164 1048 L 381 1048" stroke-miterlimit="10"/></g><g transform="translate(-86,2) scale(1,1)"><path fill="#000000" stroke="none" d="M 370.83732514237585 1052.2095177560159 L 381 1048 L 370.83732514237585 1043.7904822439841"/></g><g transform="translate(-86,2) scale(1,1)"><path fill="none" stroke="#000000" d="M 370.83732514237585 1052.2095177560159 L 381 1048 L 370.83732514237585 1043.7904822439841 L 370.83732514237585 1052.2095177560159" stroke-miterlimit="10"/></g><g transform="translate(-86,2) scale(1,1)"><g><path fill="none" stroke="none"/><text fill="#000000" stroke="none" font-family="Arial" font-size="13px" font-style="normal" font-weight="normal" text-decoration="none" x="211" y="1045">25 : AjouterPersonne</text></g></g><g transform="translate(-86,2) scale(1,1)"><rect fill="#ffffff" stroke="none" x="381" y="1048" width="13" height="48"/></g><g transform="translate(-86,2) scale(1,1)"><path fill="none" stroke="#000000" d="M 381 1048 L 394 1048 L 394 1096 L 381 1096 L 381 1048 Z Z" stroke-miterlimit="10"/></g><g transform="translate(-86,2) scale(1,1)"><path fill="none" stroke="#000000" d="M 394 1077 L 813 1077" stroke-miterlimit="10"/></g><g transform="translate(-86,2) scale(1,1)"><path fill="#000000" stroke="none" d="M 802.8373251423759 1081.2095177560159 L 813 1077 L 802.8373251423758 1072.7904822439841"/></g><g transform="translate(-86,2) scale(1,1)"><path fill="none" stroke="#000000" d="M 802.8373251423759 1081.2095177560159 L 813 1077 L 802.8373251423758 1072.7904822439841 L 802.8373251423759 1081.2095177560159" stroke-miterlimit="10"/></g><g transform="translate(-86,2) scale(1,1)"><g><path fill="none" stroke="none"/><text fill="#000000" stroke="none" font-family="Arial" font-size="13px" font-style="normal" font-weight="normal" text-decoration="none" x="408" y="1073">26 : SM7 : ajouterPersonne(idClient, idPersonne)</text></g></g><g transform="translate(-86,2) scale(1,1)"><rect fill="#ffffff" stroke="none" x="813" y="1077" width="13" height="28"/></g><g transform="translate(-86,2) scale(1,1)"><path fill="none" stroke="#000000" d="M 813 1077 L 826 1077 L 826 1105 L 813 1105 L 813 1077 Z Z" stroke-miterlimit="10"/></g><g transform="translate(-86,2) scale(1,1)"><path fill="none" stroke="#000000" d="M 826 1089 L 1085 1089" stroke-miterlimit="10"/></g><g transform="translate(-86,2) scale(1,1)"><path fill="#000000" stroke="none" d="M 1074.837325142376 1093.2095177560159 L 1085 1089 L 1074.837325142376 1084.7904822439841"/></g><g transform="translate(-86,2) scale(1,1)"><path fill="none" stroke="#000000" d="M 1074.837325142376 1093.2095177560159 L 1085 1089 L 1074.837325142376 1084.7904822439841 L 1074.837325142376 1093.2095177560159" stroke-miterlimit="10"/></g><g transform="translate(-86,2) scale(1,1)"><g><path fill="none" stroke="none"/><text fill="#000000" stroke="none" font-family="Arial" font-size="13px" font-style="normal" font-weight="normal" text-decoration="none" x="831" y="1085">27 : SOM7</text></g></g><g transform="translate(-86,2) scale(1,1)"><rect fill="#ffffff" stroke="none" x="1085" y="1089" width="13" height="28"/></g><g transform="translate(-86,2) scale(1,1)"><path fill="none" stroke="#000000" d="M 1085 1089 L 1098 1089 L 1098 1117 L 1085 1117 L 1085 1089 Z Z" stroke-miterlimit="10"/></g><g transform="translate(-86,2) scale(1,1)"><path fill="none" stroke="#000000" d="M 164 1171 L 381 1171" stroke-miterlimit="10"/></g><g transform="translate(-86,2) scale(1,1)"><path fill="#000000" stroke="none" d="M 370.83732514237585 1175.2095177560159 L 381 1171 L 370.83732514237585 1166.7904822439841"/></g><g transform="translate(-86,2) scale(1,1)"><path fill="none" stroke="#000000" d="M 370.83732514237585 1175.2095177560159 L 381 1171 L 370.83732514237585 1166.7904822439841 L 370.83732514237585 1175.2095177560159" stroke-miterlimit="10"/></g><g transform="translate(-86,2) scale(1,1)"><g><path fill="none" stroke="none"/><text fill="#000000" stroke="none" font-family="Arial" font-size="13px" font-style="normal" font-weight="normal" text-decoration="none" x="213" y="1168">28 : RetirerPersonne</text></g></g><g transform="translate(-86,2) scale(1,1)"><rect fill="#ffffff" stroke="none" x="381" y="1171" width="13" height="28"/></g><g transform="translate(-86,2) scale(1,1)"><path fill="none" stroke="#000000" d="M 381 1171 L 394 1171 L 394 1199 L 381 1199 L 381 1171 Z Z" stroke-miterlimit="10"/></g><g transform="translate(-86,2) scale(1,1)"><path fill="none" stroke="#000000" d="M 394 1184 L 813 1184" stroke-miterlimit="10"/></g><g transform="translate(-86,2) scale(1,1)"><path fill="#000000" stroke="none" d="M 802.8373251423759 1188.2095177560159 L 813 1184 L 802.8373251423758 1179.7904822439841"/></g><g transform="translate(-86,2) scale(1,1)"><path fill="none" stroke="#000000" d="M 802.8373251423759 1188.2095177560159 L 813 1184 L 802.8373251423758 1179.7904822439841 L 802.8373251423759 1188.2095177560159" stroke-miterlimit="10"/></g><g transform="translate(-86,2) scale(1,1)"><g><path fill="none" stroke="none"/><text fill="#000000" stroke="none" font-family="Arial" font-size="13px" font-style="normal" font-weight="normal" text-decoration="none" x="400" y="1180">29 : SM8 : retirerPersonne(idClient, idPersonne)</text></g></g><g transform="translate(-86,2) scale(1,1)"><rect fill="#ffffff" stroke="none" x="813" y="1184" width="13" height="28"/></g><g transform="translate(-86,2) scale(1,1)"><path fill="none" stroke="#000000" d="M 813 1184 L 826 1184 L 826 1212 L 813 1212 L 813 1184 Z Z" stroke-miterlimit="10"/></g><g transform="translate(-86,2) scale(1,1)"><path fill="none" stroke="#000000" d="M 826 1200 L 1085 1200" stroke-miterlimit="10"/></g><g transform="translate(-86,2) scale(1,1)"><path fill="#000000" stroke="none" d="M 1074.837325142376 1204.2095177560159 L 1085 1200 L 1074.837325142376 1195.7904822439841"/></g><g transform="translate(-86,2) scale(1,1)"><path fill="none" stroke="#000000" d="M 1074.837325142376 1204.2095177560159 L 1085 1200 L 1074.837325142376 1195.7904822439841 L 1074.837325142376 1204.2095177560159" stroke-miterlimit="10"/></g><g transform="translate(-86,2) scale(1,1)"><g><path fill="none" stroke="none"/><text fill="#000000" stroke="none" font-family="Arial" font-size="13px" font-style="normal" font-weight="normal" text-decoration="none" x="832" y="1197">30 : SOM8 : retirerPersonne(idClient, idPersonne)</text></g></g><g transform="translate(-86,2) scale(1,1)"><rect fill="#ffffff" stroke="none" x="1085" y="1200" width="13" height="28"/></g><g transform="translate(-86,2) scale(1,1)"><path fill="none" stroke="#000000" d="M 1085 1200 L 1098 1200 L 1098 1228 L 1085 1228 L 1085 1200 Z Z" stroke-miterlimit="10"/></g></g></svg>