<svg version="1.1" xmlns="http://www.w3.org/2000/svg" xmlns:xlink="http://www.w3.org/1999/xlink" width="1015.458984375" height="789"><defs/><g><g transform="translate(-198,-166) scale(1,1)"><path fill="#C0C0C0" stroke="none" d="M 591 192.5 C 591 187.2532944 595.2532944 183 600.5 183 C 605.7467056 183 610 187.2532944 610 192.5 C 610 197.7467056 605.7467056 202 600.5 202 C 595.2532944 202 591 197.7467056 591 192.5 Z" opacity="0.2"/></g><g transform="translate(-198,-166) scale(1,1)"><path fill="#000000" stroke="none" d="M 584 185.5 C 584 180.2532944 588.2532944 176 593.5 176 C 598.7467056 176 603 180.2532944 603 185.5 C 603 190.7467056 598.7467056 195 593.5 195 C 588.2532944 195 584 190.7467056 584 185.5 Z"/></g><g transform="translate(-198,-166) scale(1,1)"><path fill="#C0C0C0" stroke="none" d="M 553 263 L 649.12939453125 263 Q 659.12939453125 263 659.12939453125 273 L 659.12939453125 293 Q 659.12939453125 303 649.12939453125 303 L 553 303 Q 543 303 543 293 L 543 273 Q 543 263 553 263 Z" opacity="0.2"/></g><g transform="translate(-198,-166) scale(1,1)"><path fill="#ffffff" stroke="none" d="M 546 256 L 642.12939453125 256 Q 652.12939453125 256 652.12939453125 266 L 652.12939453125 286 Q 652.12939453125 296 642.12939453125 296 L 546 296 Q 536 296 536 286 L 536 266 Q 536 256 546 256 Z"/></g><g transform="translate(-198,-166) scale(1,1)"><path fill="none" stroke="#000000" d="M 546 256 L 642.12939453125 256 Q 652.12939453125 256 652.12939453125 266 L 652.12939453125 286 Q 652.12939453125 296 642.12939453125 296 L 546 296 Q 536 296 536 286 L 536 266 Q 536 256 546 256 Z" stroke-miterlimit="10"/></g><g transform="translate(-198,-166) scale(1,1)"><g><path fill="none" stroke="none"/><text fill="#000000" stroke="none" font-family="Arial" font-size="13px" font-style="normal" font-weight="bold" text-decoration="none" x="547.064697265625" y="275.5">ListerPersonnes</text></g></g><g transform="translate(-198,-166) scale(1,1)"><path fill="none" stroke="#000000" d="M 593 196 L 594 255" stroke-miterlimit="10"/></g><g transform="translate(-198,-166) scale(1,1)"><path fill="none" stroke="#000000" d="M 589.6188627653046 244.9101220755271 L 594 255 L 598.0366892537772 244.76744705029876" stroke-miterlimit="10"/></g><g transform="translate(-198,-166) scale(1,1)"><path fill="#C0C0C0" stroke="none" d="M 575 388.5 L 595.5 375 L 615 388.5 L 595.5 401 L 575 388.5" opacity="0.2"/></g><g transform="translate(-198,-166) scale(1,1)"><path fill="#ffffff" stroke="none" d="M 568 381 L 588 368 L 608 381 L 588 394 L 568 381"/></g><g transform="translate(-198,-166) scale(1,1)"><path fill="none" stroke="#000000" d="M 568 381 L 588 368 L 608 381 L 588 394 L 568 381 L 568 381" stroke-miterlimit="10"/></g><g transform="translate(-198,-166) scale(1,1)"><path fill="none" stroke="#000000" d="M 593 297 L 589 367" stroke-miterlimit="10"/></g><g transform="translate(-198,-166) scale(1,1)"><path fill="none" stroke="#000000" d="M 585.3771166125833 356.6137246348279 L 589 367 L 593.7824403312936 357.09402884732566" stroke-miterlimit="10"/></g><g transform="translate(-198,-166) scale(1,1)"><path fill="#C0C0C0" stroke="none" d="M 297 479 L 448.04931640625 479 Q 458.04931640625 479 458.04931640625 489 L 458.04931640625 509 Q 458.04931640625 519 448.04931640625 519 L 297 519 Q 287 519 287 509 L 287 489 Q 287 479 297 479 Z" opacity="0.2"/></g><g transform="translate(-198,-166) scale(1,1)"><path fill="#ffffff" stroke="none" d="M 290 472 L 441.04931640625 472 Q 451.04931640625 472 451.04931640625 482 L 451.04931640625 502 Q 451.04931640625 512 441.04931640625 512 L 290 512 Q 280 512 280 502 L 280 482 Q 280 472 290 472 Z"/></g><g transform="translate(-198,-166) scale(1,1)"><path fill="none" stroke="#000000" d="M 290 472 L 441.04931640625 472 Q 451.04931640625 472 451.04931640625 482 L 451.04931640625 502 Q 451.04931640625 512 441.04931640625 512 L 290 512 Q 280 512 280 502 L 280 482 Q 280 472 290 472 Z" stroke-miterlimit="10"/></g><g transform="translate(-198,-166) scale(1,1)"><g><path fill="none" stroke="none"/><text fill="#000000" stroke="none" font-family="Arial" font-size="13px" font-style="normal" font-weight="bold" text-decoration="none" x="295.524658203125" y="491.5">AfficherDetailsPersonne</text></g></g><g transform="translate(-198,-166) scale(1,1)"><path fill="#C0C0C0" stroke="none" d="M 553 479 L 653.38232421875 479 Q 663.38232421875 479 663.38232421875 489 L 663.38232421875 509 Q 663.38232421875 519 653.38232421875 519 L 553 519 Q 543 519 543 509 L 543 489 Q 543 479 553 479 Z" opacity="0.2"/></g><g transform="translate(-198,-166) scale(1,1)"><path fill="#ffffff" stroke="none" d="M 546 472 L 646.38232421875 472 Q 656.38232421875 472 656.38232421875 482 L 656.38232421875 502 Q 656.38232421875 512 646.38232421875 512 L 546 512 Q 536 512 536 502 L 536 482 Q 536 472 546 472 Z"/></g><g transform="translate(-198,-166) scale(1,1)"><path fill="none" stroke="#000000" d="M 546 472 L 646.38232421875 472 Q 656.38232421875 472 656.38232421875 482 L 656.38232421875 502 Q 656.38232421875 512 646.38232421875 512 L 546 512 Q 536 512 536 502 L 536 482 Q 536 472 546 472 Z" stroke-miterlimit="10"/></g><g transform="translate(-198,-166) scale(1,1)"><g><path fill="none" stroke="none"/><text fill="#000000" stroke="none" font-family="Arial" font-size="13px" font-style="normal" font-weight="bold" text-decoration="none" x="548.191162109375" y="491.5">AjouterPersonne</text></g></g><g transform="translate(-198,-166) scale(1,1)"><path fill="#C0C0C0" stroke="none" d="M 777 479 L 897.3076171875 479 Q 907.3076171875 479 907.3076171875 489 L 907.3076171875 509 Q 907.3076171875 519 897.3076171875 519 L 777 519 Q 767 519 767 509 L 767 489 Q 767 479 777 479 Z" opacity="0.2"/></g><g transform="translate(-198,-166) scale(1,1)"><path fill="#ffffff" stroke="none" d="M 770 472 L 890.3076171875 472 Q 900.3076171875 472 900.3076171875 482 L 900.3076171875 502 Q 900.3076171875 512 890.3076171875 512 L 770 512 Q 760 512 760 502 L 760 482 Q 760 472 770 472 Z"/></g><g transform="translate(-198,-166) scale(1,1)"><path fill="none" stroke="#000000" d="M 770 472 L 890.3076171875 472 Q 900.3076171875 472 900.3076171875 482 L 900.3076171875 502 Q 900.3076171875 512 890.3076171875 512 L 770 512 Q 760 512 760 502 L 760 482 Q 760 472 770 472 Z" stroke-miterlimit="10"/></g><g transform="translate(-198,-166) scale(1,1)"><g><path fill="none" stroke="none"/><text fill="#000000" stroke="none" font-family="Arial" font-size="13px" font-style="normal" font-weight="bold" text-decoration="none" x="773.15380859375" y="491.5">SupprimerPersonne</text></g></g><g transform="translate(-198,-166) scale(1,1)"><path fill="none" stroke="#000000" d="M 567 381 L 360 384 L 364 471" stroke-miterlimit="10"/></g><g transform="translate(-198,-166) scale(1,1)"><path fill="none" stroke="#000000" d="M 359.32816807756024 461.04138631693786 L 364 471 L 367.7383192335895 460.65471270056867" stroke-miterlimit="10"/></g><g transform="translate(-198,-166) scale(1,1)"><path fill="none" stroke="#000000" d="M 589 395 L 594 471" stroke-miterlimit="10"/></g><g transform="translate(-198,-166) scale(1,1)"><path fill="none" stroke="#000000" d="M 589.1324079294105 461.1355918862643 L 594 471 L 597.5332825084504 460.5829027692222" stroke-miterlimit="10"/></g><g transform="translate(-198,-166) scale(1,1)"><path fill="none" stroke="#000000" d="M 609 381 L 824 384 L 829 471" stroke-miterlimit="10"/></g><g transform="translate(-198,-166) scale(1,1)"><path fill="none" stroke="#000000" d="M 824.214317381342 461.09559482485326 L 829 471 L 832.6194834307057 460.6125393047749" stroke-miterlimit="10"/></g><g transform="translate(-198,-166) scale(1,1)"><path fill="#C0C0C0" stroke="none" d="M 513 607 L 699.79931640625 607 Q 709.79931640625 607 709.79931640625 617 L 709.79931640625 637 Q 709.79931640625 647 699.79931640625 647 L 513 647 Q 503 647 503 637 L 503 617 Q 503 607 513 607 Z" opacity="0.2"/></g><g transform="translate(-198,-166) scale(1,1)"><path fill="#ffffff" stroke="none" d="M 506 600 L 692.79931640625 600 Q 702.79931640625 600 702.79931640625 610 L 702.79931640625 630 Q 702.79931640625 640 692.79931640625 640 L 506 640 Q 496 640 496 630 L 496 610 Q 496 600 506 600 Z"/></g><g transform="translate(-198,-166) scale(1,1)"><path fill="none" stroke="#000000" d="M 506 600 L 692.79931640625 600 Q 702.79931640625 600 702.79931640625 610 L 702.79931640625 630 Q 702.79931640625 640 692.79931640625 640 L 506 640 Q 496 640 496 630 L 496 610 Q 496 600 506 600 Z" stroke-miterlimit="10"/></g><g transform="translate(-198,-166) scale(1,1)"><g><path fill="none" stroke="none"/><text fill="#000000" stroke="none" font-family="Arial" font-size="13px" font-style="normal" font-weight="bold" text-decoration="none" x="511.399658203125" y="619.5">RechercherPersonneExistante</text></g></g><g transform="translate(-198,-166) scale(1,1)"><path fill="#C0C0C0" stroke="none" d="M 591 712.5 L 602.5 703 L 613 712.5 L 602.5 721 L 591 712.5" opacity="0.2"/></g><g transform="translate(-198,-166) scale(1,1)"><path fill="#ffffff" stroke="none" d="M 584 705 L 595 696 L 606 705 L 595 714 L 584 705"/></g><g transform="translate(-198,-166) scale(1,1)"><path fill="none" stroke="#000000" d="M 584 705 L 595 696 L 606 705 L 595 714 L 584 705 L 584 705" stroke-miterlimit="10"/></g><g transform="translate(-198,-166) scale(1,1)"><path fill="#C0C0C0" stroke="none" d="M 561 807 L 647.85546875 807 Q 657.85546875 807 657.85546875 817 L 657.85546875 837 Q 657.85546875 847 647.85546875 847 L 561 847 Q 551 847 551 837 L 551 817 Q 551 807 561 807 Z" opacity="0.2"/></g><g transform="translate(-198,-166) scale(1,1)"><path fill="#ffffff" stroke="none" d="M 554 800 L 640.85546875 800 Q 650.85546875 800 650.85546875 810 L 650.85546875 830 Q 650.85546875 840 640.85546875 840 L 554 840 Q 544 840 544 830 L 544 810 Q 544 800 554 800 Z"/></g><g transform="translate(-198,-166) scale(1,1)"><path fill="none" stroke="#000000" d="M 554 800 L 640.85546875 800 Q 650.85546875 800 650.85546875 810 L 650.85546875 830 Q 650.85546875 840 640.85546875 840 L 554 840 Q 544 840 544 830 L 544 810 Q 544 800 554 800 Z" stroke-miterlimit="10"/></g><g transform="translate(-198,-166) scale(1,1)"><g><path fill="none" stroke="none"/><text fill="#000000" stroke="none" font-family="Arial" font-size="13px" font-style="normal" font-weight="bold" text-decoration="none" x="554.927734375" y="819.5">AjoutPersonne</text></g></g><g transform="translate(-198,-166) scale(1,1)"><path fill="#C0C0C0" stroke="none" d="M 737 695 L 882.3935546875 695 Q 892.3935546875 695 892.3935546875 705 L 892.3935546875 725 Q 892.3935546875 735 882.3935546875 735 L 737 735 Q 727 735 727 725 L 727 705 Q 727 695 737 695 Z" opacity="0.2"/></g><g transform="translate(-198,-166) scale(1,1)"><path fill="#ffffff" stroke="none" d="M 730 688 L 875.3935546875 688 Q 885.3935546875 688 885.3935546875 698 L 885.3935546875 718 Q 885.3935546875 728 875.3935546875 728 L 730 728 Q 720 728 720 718 L 720 698 Q 720 688 730 688 Z"/></g><g transform="translate(-198,-166) scale(1,1)"><path fill="none" stroke="#000000" d="M 730 688 L 875.3935546875 688 Q 885.3935546875 688 885.3935546875 698 L 885.3935546875 718 Q 885.3935546875 728 875.3935546875 728 L 730 728 Q 720 728 720 718 L 720 698 Q 720 688 730 688 Z" stroke-miterlimit="10"/></g><g transform="translate(-198,-166) scale(1,1)"><g><path fill="none" stroke="none"/><text fill="#000000" stroke="none" font-family="Arial" font-size="13px" font-style="normal" font-weight="bold" text-decoration="none" x="734.69677734375" y="707.5">CreerNouvellePersonne</text></g></g><g transform="translate(-198,-166) scale(1,1)"><path fill="#C0C0C0" stroke="none" d="M 799 824.5 L 810.5 815 L 821 824.5 L 810.5 833 L 799 824.5" opacity="0.2"/></g><g transform="translate(-198,-166) scale(1,1)"><path fill="#ffffff" stroke="none" d="M 792 817 L 803 808 L 814 817 L 803 826 L 792 817"/></g><g transform="translate(-198,-166) scale(1,1)"><path fill="none" stroke="#000000" d="M 792 817 L 803 808 L 814 817 L 803 826 L 792 817 L 792 817" stroke-miterlimit="10"/></g><g transform="translate(-198,-166) scale(1,1)"><path fill="none" stroke="#000000" d="M 596 513 L 599 599" stroke-miterlimit="10"/></g><g transform="translate(-198,-166) scale(1,1)"><path fill="none" stroke="#000000" d="M 594.4387447230259 588.9902572311635 L 599 599 L 602.852662452706 588.6967484731514" stroke-miterlimit="10"/></g><g transform="translate(-198,-166) scale(1,1)"><path fill="none" stroke="#000000" d="M 598 641 L 595 695" stroke-miterlimit="10"/></g><g transform="translate(-198,-166) scale(1,1)"><path fill="none" stroke="#000000" d="M 591.3606871882736 684.6194700396172 L 595 695 L 599.766760359266 685.0864741046723" stroke-miterlimit="10"/></g><g transform="translate(-198,-166) scale(1,1)"><path fill="none" stroke="#000000" d="M 607 705 L 719 707" stroke-miterlimit="10"/></g><g transform="translate(-198,-166) scale(1,1)"><path fill="none" stroke="#000000" d="M 708.7637871016121 711.0273993468339 L 719 707 L 708.9141030571882 702.6097058345732" stroke-miterlimit="10"/></g><g transform="translate(-198,-166) scale(1,1)"><path fill="none" stroke="#000000" d="M 595 715 L 597 799" stroke-miterlimit="10"/></g><g transform="translate(-198,-166) scale(1,1)"><path fill="none" stroke="#000000" d="M 592.5497750179125 788.9404027114002 L 597 799 L 600.9664251961349 788.7400062785854" stroke-miterlimit="10"/></g><g transform="translate(-198,-166) scale(1,1)"><path fill="none" stroke="#000000" d="M 802 729 L 803 807" stroke-miterlimit="10"/></g><g transform="translate(-198,-166) scale(1,1)"><path fill="none" stroke="#000000" d="M 798.6605481542205 796.8921239778992 L 803 807 L 807.0788918518372 796.7841964945964" stroke-miterlimit="10"/></g><g transform="translate(-198,-166) scale(1,1)"><path fill="#C0C0C0" stroke="none" d="M 945 807 L 1032.45849609375 807 Q 1042.45849609375 807 1042.45849609375 817 L 1042.45849609375 837 Q 1042.45849609375 847 1032.45849609375 847 L 945 847 Q 935 847 935 837 L 935 817 Q 935 807 945 807 Z" opacity="0.2"/></g><g transform="translate(-198,-166) scale(1,1)"><path fill="#ffffff" stroke="none" d="M 938 800 L 1025.45849609375 800 Q 1035.45849609375 800 1035.45849609375 810 L 1035.45849609375 830 Q 1035.45849609375 840 1025.45849609375 840 L 938 840 Q 928 840 928 830 L 928 810 Q 928 800 938 800 Z"/></g><g transform="translate(-198,-166) scale(1,1)"><path fill="none" stroke="#000000" d="M 938 800 L 1025.45849609375 800 Q 1035.45849609375 800 1035.45849609375 810 L 1035.45849609375 830 Q 1035.45849609375 840 1025.45849609375 840 L 938 840 Q 928 840 928 830 L 928 810 Q 928 800 938 800 Z" stroke-miterlimit="10"/></g><g transform="translate(-198,-166) scale(1,1)"><g><path fill="none" stroke="none"/><text fill="#000000" stroke="none" font-family="Arial" font-size="13px" font-style="normal" font-weight="bold" text-decoration="none" x="940.229248046875" y="819.5">ErreurCreation</text></g></g><g transform="translate(-198,-166) scale(1,1)"><path fill="none" stroke="#000000" d="M 791 817 L 652 819" stroke-miterlimit="10"/></g><g transform="translate(-198,-166) scale(1,1)"><path fill="none" stroke="#000000" d="M 662.1010607065922 814.6447075182325 L 652 819 L 662.2221853707168 823.0628716748997" stroke-miterlimit="10"/></g><g transform="translate(-198,-166) scale(1,1)"><path fill="none" stroke="#000000" d="M 815 817 L 927 819" stroke-miterlimit="10"/></g><g transform="translate(-198,-166) scale(1,1)"><path fill="none" stroke="#000000" d="M 916.7637871016121 823.0273993468339 L 927 819 L 916.9141030571882 814.6097058345732" stroke-miterlimit="10"/></g><g transform="translate(-198,-166) scale(1,1)"><path fill="none" stroke="#000000" d="M 980 799 L 976 704 L 886 706" stroke-miterlimit="10"/></g><g transform="translate(-198,-166) scale(1,1)"><path fill="none" stroke="#000000" d="M 896.0666447340966 701.5657397688582 L 886 706 L 896.2536882342617 709.9826972762894" stroke-miterlimit="10"/></g><g transform="translate(-198,-166) scale(1,1)"><path fill="#C0C0C0" stroke="none" d="M 591 939.5 C 591 932.59644 596.59644 927 603.5 927 C 610.40356 927 616 932.59644 616 939.5 C 616 946.40356 610.40356 952 603.5 952 C 596.59644 952 591 946.40356 591 939.5 Z" opacity="0.2"/></g><g transform="translate(-198,-166) scale(1,1)"><path fill="none" stroke="#000000" d="M 584 932.5 C 584 925.59644 589.59644 920 596.5 920 C 603.40356 920 609 925.59644 609 932.5 C 609 939.40356 603.40356 945 596.5 945 C 589.59644 945 584 939.40356 584 932.5 Z" stroke-miterlimit="10"/></g><g transform="translate(-198,-166) scale(1,1)"><path fill="#000000" stroke="none" d="M 589 932.5 C 589 928.357864 592.357864 925 596.5 925 C 600.642136 925 604 928.357864 604 932.5 C 604 936.642136 600.642136 940 596.5 940 C 592.357864 940 589 936.642136 589 932.5 Z"/></g><g transform="translate(-198,-166) scale(1,1)"><path fill="none" stroke="#000000" d="M 597 841 L 596 919" stroke-miterlimit="10"/></g><g transform="translate(-198,-166) scale(1,1)"><path fill="none" stroke="#000000" d="M 591.9211081481628 908.7841964945964 L 596 919 L 600.3394518457795 908.8921239778992" stroke-miterlimit="10"/></g><g transform="translate(-198,-166) scale(1,1)"><path fill="#C0C0C0" stroke="none" d="M 777 575 L 910.0537109375 575 Q 920.0537109375 575 920.0537109375 585 L 920.0537109375 605 Q 920.0537109375 615 910.0537109375 615 L 777 615 Q 767 615 767 605 L 767 585 Q 767 575 777 575 Z" opacity="0.2"/></g><g transform="translate(-198,-166) scale(1,1)"><path fill="#ffffff" stroke="none" d="M 770 568 L 903.0537109375 568 Q 913.0537109375 568 913.0537109375 578 L 913.0537109375 598 Q 913.0537109375 608 903.0537109375 608 L 770 608 Q 760 608 760 598 L 760 578 Q 760 568 770 568 Z"/></g><g transform="translate(-198,-166) scale(1,1)"><path fill="none" stroke="#000000" d="M 770 568 L 903.0537109375 568 Q 913.0537109375 568 913.0537109375 578 L 913.0537109375 598 Q 913.0537109375 608 903.0537109375 608 L 770 608 Q 760 608 760 598 L 760 578 Q 760 568 770 568 Z" stroke-miterlimit="10"/></g><g transform="translate(-198,-166) scale(1,1)"><g><path fill="none" stroke="none"/><text fill="#000000" stroke="none" font-family="Arial" font-size="13px" font-style="normal" font-weight="bold" text-decoration="none" x="773.02685546875" y="587.5">SelectionnerPersonne</text></g></g><g transform="translate(-198,-166) scale(1,1)"><path fill="none" stroke="#000000" d="M 831 513 L 835 567" stroke-miterlimit="10"/></g><g transform="translate(-198,-166) scale(1,1)"><path fill="none" stroke="#000000" d="M 830.0512497590355 557.1760562373071 L 835 567 L 838.4472823988109 556.5541278936199" stroke-miterlimit="10"/></g><g transform="translate(-198,-166) scale(1,1)"><path fill="#C0C0C0" stroke="none" d="M 991 592.5 L 1002.5 583 L 1013 592.5 L 1002.5 601 L 991 592.5" opacity="0.2"/></g><g transform="translate(-198,-166) scale(1,1)"><path fill="#ffffff" stroke="none" d="M 984 585 L 995 576 L 1006 585 L 995 594 L 984 585"/></g><g transform="translate(-198,-166) scale(1,1)"><path fill="none" stroke="#000000" d="M 984 585 L 995 576 L 1006 585 L 995 594 L 984 585 L 984 585" stroke-miterlimit="10"/></g><g transform="translate(-198,-166) scale(1,1)"><path fill="#C0C0C0" stroke="none" d="M 945 471 L 1069.42724609375 471 Q 1079.42724609375 471 1079.42724609375 481 L 1079.42724609375 501 Q 1079.42724609375 511 1069.42724609375 511 L 945 511 Q 935 511 935 501 L 935 481 Q 935 471 945 471 Z" opacity="0.2"/></g><g transform="translate(-198,-166) scale(1,1)"><path fill="#ffffff" stroke="none" d="M 938 464 L 1062.42724609375 464 Q 1072.42724609375 464 1072.42724609375 474 L 1072.42724609375 494 Q 1072.42724609375 504 1062.42724609375 504 L 938 504 Q 928 504 928 494 L 928 474 Q 928 464 938 464 Z"/></g><g transform="translate(-198,-166) scale(1,1)"><path fill="none" stroke="#000000" d="M 938 464 L 1062.42724609375 464 Q 1072.42724609375 464 1072.42724609375 474 L 1072.42724609375 494 Q 1072.42724609375 504 1062.42724609375 504 L 938 504 Q 928 504 928 494 L 928 474 Q 928 464 938 464 Z" stroke-miterlimit="10"/></g><g transform="translate(-198,-166) scale(1,1)"><g><path fill="none" stroke="none"/><text fill="#000000" stroke="none" font-family="Arial" font-size="13px" font-style="normal" font-weight="bold" text-decoration="none" x="942.213623046875" y="483.5">AnnulerSuppression</text></g></g><g transform="translate(-198,-166) scale(1,1)"><path fill="#C0C0C0" stroke="none" d="M 1089 575 L 1200.458984375 575 Q 1210.458984375 575 1210.458984375 585 L 1210.458984375 605 Q 1210.458984375 615 1200.458984375 615 L 1089 615 Q 1079 615 1079 605 L 1079 585 Q 1079 575 1089 575 Z" opacity="0.2"/></g><g transform="translate(-198,-166) scale(1,1)"><path fill="#ffffff" stroke="none" d="M 1082 568 L 1193.458984375 568 Q 1203.458984375 568 1203.458984375 578 L 1203.458984375 598 Q 1203.458984375 608 1193.458984375 608 L 1082 608 Q 1072 608 1072 598 L 1072 578 Q 1072 568 1082 568 Z"/></g><g transform="translate(-198,-166) scale(1,1)"><path fill="none" stroke="#000000" d="M 1082 568 L 1193.458984375 568 Q 1203.458984375 568 1203.458984375 578 L 1203.458984375 598 Q 1203.458984375 608 1193.458984375 608 L 1082 608 Q 1072 608 1072 598 L 1072 578 Q 1072 568 1082 568 Z" stroke-miterlimit="10"/></g><g transform="translate(-198,-166) scale(1,1)"><g><path fill="none" stroke="none"/><text fill="#000000" stroke="none" font-family="Arial" font-size="13px" font-style="normal" font-weight="bold" text-decoration="none" x="1085.2294921875" y="587.5">ValiderSuppresion</text></g></g><g transform="translate(-198,-166) scale(1,1)"><path fill="#C0C0C0" stroke="none" d="M 1135 491.5 C 1135 484.59644 1140.59644 479 1147.5 479 C 1154.40356 479 1160 484.59644 1160 491.5 C 1160 498.40356 1154.40356 504 1147.5 504 C 1140.59644 504 1135 498.40356 1135 491.5 Z" opacity="0.2"/></g><g transform="translate(-198,-166) scale(1,1)"><path fill="none" stroke="#000000" d="M 1128 484.5 C 1128 477.59644 1133.59644 472 1140.5 472 C 1147.40356 472 1153 477.59644 1153 484.5 C 1153 491.40356 1147.40356 497 1140.5 497 C 1133.59644 497 1128 491.40356 1128 484.5 Z" stroke-miterlimit="10"/></g><g transform="translate(-198,-166) scale(1,1)"><path fill="#000000" stroke="none" d="M 1133 484.5 C 1133 480.357864 1136.357864 477 1140.5 477 C 1144.642136 477 1148 480.357864 1148 484.5 C 1148 488.642136 1144.642136 492 1140.5 492 C 1136.357864 492 1133 488.642136 1133 484.5 Z"/></g><g transform="translate(-198,-166) scale(1,1)"><path fill="none" stroke="#000000" d="M 914 587 L 983 585" stroke-miterlimit="10"/></g><g transform="translate(-198,-166) scale(1,1)"><path fill="none" stroke="#000000" d="M 972.9635553724215 589.5021971566728 L 983 585 L 972.7196278051139 581.0866960845581" stroke-miterlimit="10"/></g><g transform="translate(-198,-166) scale(1,1)"><path fill="none" stroke="#000000" d="M 995 575 L 999 505" stroke-miterlimit="10"/></g><g transform="translate(-198,-166) scale(1,1)"><path fill="none" stroke="#000000" d="M 1002.6228833874167 515.3862753651721 L 999 505 L 994.2175596687064 514.9059711526744" stroke-miterlimit="10"/></g><g transform="translate(-198,-166) scale(1,1)"><path fill="none" stroke="#000000" d="M 1007 585 L 1071 587" stroke-miterlimit="10"/></g><g transform="translate(-198,-166) scale(1,1)"><path fill="none" stroke="#000000" d="M 1060.7108005097193 590.8900351989678 L 1071 587 L 1060.9737669991969 582.4751075356859" stroke-miterlimit="10"/></g><g transform="translate(-198,-166) scale(1,1)"><path fill="none" stroke="#000000" d="M 1073 484 L 1127 484" stroke-miterlimit="10"/></g><g transform="translate(-198,-166) scale(1,1)"><path fill="none" stroke="#000000" d="M 1116.837325142376 488.209517756016 L 1127 484 L 1116.837325142376 479.790482243984" stroke-miterlimit="10"/></g><g transform="translate(-198,-166) scale(1,1)"><path fill="none" stroke="#000000" d="M 1138 567 L 1140 498" stroke-miterlimit="10"/></g><g transform="translate(-198,-166) scale(1,1)"><path fill="none" stroke="#000000" d="M 1143.913303915442 508.28037219488607 L 1140 498 L 1135.4978028433272 508.0364446275784" stroke-miterlimit="10"/></g><g transform="translate(-198,-166) scale(1,1)"><path fill="#C0C0C0" stroke="none" d="M 351 704.5 L 362.5 695 L 373 704.5 L 362.5 713 L 351 704.5" opacity="0.2"/></g><g transform="translate(-198,-166) scale(1,1)"><path fill="#ffffff" stroke="none" d="M 344 697 L 355 688 L 366 697 L 355 706 L 344 697"/></g><g transform="translate(-198,-166) scale(1,1)"><path fill="none" stroke="#000000" d="M 344 697 L 355 688 L 366 697 L 355 706 L 344 697 L 344 697" stroke-miterlimit="10"/></g><g transform="translate(-198,-166) scale(1,1)"><path fill="#C0C0C0" stroke="none" d="M 225 783 L 323.1669921875 783 Q 333.1669921875 783 333.1669921875 793 L 333.1669921875 813 Q 333.1669921875 823 323.1669921875 823 L 225 823 Q 215 823 215 813 L 215 793 Q 215 783 225 783 Z" opacity="0.2"/></g><g transform="translate(-198,-166) scale(1,1)"><path fill="#ffffff" stroke="none" d="M 218 776 L 316.1669921875 776 Q 326.1669921875 776 326.1669921875 786 L 326.1669921875 806 Q 326.1669921875 816 316.1669921875 816 L 218 816 Q 208 816 208 806 L 208 786 Q 208 776 218 776 Z"/></g><g transform="translate(-198,-166) scale(1,1)"><path fill="none" stroke="#000000" d="M 218 776 L 316.1669921875 776 Q 326.1669921875 776 326.1669921875 786 L 326.1669921875 806 Q 326.1669921875 816 316.1669921875 816 L 218 816 Q 208 816 208 806 L 208 786 Q 208 776 218 776 Z" stroke-miterlimit="10"/></g><g transform="translate(-198,-166) scale(1,1)"><g><path fill="none" stroke="none"/><text fill="#000000" stroke="none" font-family="Arial" font-size="13px" font-style="normal" font-weight="bold" text-decoration="none" x="219.58349609375" y="795.5">ValiderPersonne</text></g></g><g transform="translate(-198,-166) scale(1,1)"><path fill="#C0C0C0" stroke="none" d="M 393 783 L 473.27294921875 783 Q 483.27294921875 783 483.27294921875 793 L 483.27294921875 813 Q 483.27294921875 823 473.27294921875 823 L 393 823 Q 383 823 383 813 L 383 793 Q 383 783 393 783 Z" opacity="0.2"/></g><g transform="translate(-198,-166) scale(1,1)"><path fill="#ffffff" stroke="none" d="M 386 776 L 466.27294921875 776 Q 476.27294921875 776 476.27294921875 786 L 476.27294921875 806 Q 476.27294921875 816 466.27294921875 816 L 386 816 Q 376 816 376 806 L 376 786 Q 376 776 386 776 Z"/></g><g transform="translate(-198,-166) scale(1,1)"><path fill="none" stroke="#000000" d="M 386 776 L 466.27294921875 776 Q 476.27294921875 776 476.27294921875 786 L 476.27294921875 806 Q 476.27294921875 816 466.27294921875 816 L 386 816 Q 376 816 376 806 L 376 786 Q 376 776 386 776 Z" stroke-miterlimit="10"/></g><g transform="translate(-198,-166) scale(1,1)"><g><path fill="none" stroke="none"/><text fill="#000000" stroke="none" font-family="Arial" font-size="13px" font-style="normal" font-weight="bold" text-decoration="none" x="388.136474609375" y="795.5">AnnulerModif</text></g></g><g transform="translate(-198,-166) scale(1,1)"><path fill="#C0C0C0" stroke="none" d="M 313 591 L 419.93310546875 591 Q 429.93310546875 591 429.93310546875 601 L 429.93310546875 621 Q 429.93310546875 631 419.93310546875 631 L 313 631 Q 303 631 303 621 L 303 601 Q 303 591 313 591 Z" opacity="0.2"/></g><g transform="translate(-198,-166) scale(1,1)"><path fill="#ffffff" stroke="none" d="M 306 584 L 412.93310546875 584 Q 422.93310546875 584 422.93310546875 594 L 422.93310546875 614 Q 422.93310546875 624 412.93310546875 624 L 306 624 Q 296 624 296 614 L 296 594 Q 296 584 306 584 Z"/></g><g transform="translate(-198,-166) scale(1,1)"><path fill="none" stroke="#000000" d="M 306 584 L 412.93310546875 584 Q 422.93310546875 584 422.93310546875 594 L 422.93310546875 614 Q 422.93310546875 624 412.93310546875 624 L 306 624 Q 296 624 296 614 L 296 594 Q 296 584 306 584 Z" stroke-miterlimit="10"/></g><g transform="translate(-198,-166) scale(1,1)"><g><path fill="none" stroke="none"/><text fill="#000000" stroke="none" font-family="Arial" font-size="13px" font-style="normal" font-weight="bold" text-decoration="none" x="308.966552734375" y="603.5">ModifierPersonne</text></g></g><g transform="translate(-198,-166) scale(1,1)"><path fill="none" stroke="#000000" d="M 364 513 L 360 583" stroke-miterlimit="10"/></g><g transform="translate(-198,-166) scale(1,1)"><path fill="none" stroke="#000000" d="M 356.37711661258334 572.6137246348279 L 360 583 L 364.78244033129357 573.0940288473256" stroke-miterlimit="10"/></g><g transform="translate(-198,-166) scale(1,1)"><path fill="none" stroke="#000000" d="M 358 625 L 355 687" stroke-miterlimit="10"/></g><g transform="translate(-198,-166) scale(1,1)"><path fill="none" stroke="#000000" d="M 351.2865691827315 676.6457529696573 L 355 687 L 359.69576617687835 677.0526495984063" stroke-miterlimit="10"/></g><g transform="translate(-198,-166) scale(1,1)"><path fill="none" stroke="#000000" d="M 343 697 L 264 696 L 266 775" stroke-miterlimit="10"/></g><g transform="translate(-198,-166) scale(1,1)"><path fill="none" stroke="#000000" d="M 261.5346300859649 764.9471162579671 L 266 775 L 269.9509689177509 764.7340443888079" stroke-miterlimit="10"/></g><g transform="translate(-198,-166) scale(1,1)"><path fill="none" stroke="#000000" d="M 367 697 L 424 696 L 426 775" stroke-miterlimit="10"/></g><g transform="translate(-198,-166) scale(1,1)"><path fill="none" stroke="#000000" d="M 421.5346300859649 764.9471162579671 L 426 775 L 429.9509689177509 764.7340443888079" stroke-miterlimit="10"/></g><g transform="translate(-198,-166) scale(1,1)"><path fill="none" stroke="#000000" d="M 477 793 L 488 792 L 480 488 L 452 489" stroke-miterlimit="10"/></g><g transform="translate(-198,-166) scale(1,1)"><path fill="none" stroke="#000000" d="M 462.00595562208997 484.43044290015257 L 452 489 L 462.3064438849527 492.8441142603102" stroke-miterlimit="10"/></g><g transform="translate(-198,-166) scale(1,1)"><path fill="#C0C0C0" stroke="none" d="M 263 899.5 C 263 892.59644 268.59644 887 275.5 887 C 282.40356 887 288 892.59644 288 899.5 C 288 906.40356 282.40356 912 275.5 912 C 268.59644 912 263 906.40356 263 899.5 Z" opacity="0.2"/></g><g transform="translate(-198,-166) scale(1,1)"><path fill="none" stroke="#000000" d="M 256 892.5 C 256 885.59644 261.59644 880 268.5 880 C 275.40356 880 281 885.59644 281 892.5 C 281 899.40356 275.40356 905 268.5 905 C 261.59644 905 256 899.40356 256 892.5 Z" stroke-miterlimit="10"/></g><g transform="translate(-198,-166) scale(1,1)"><path fill="#000000" stroke="none" d="M 261 892.5 C 261 888.357864 264.357864 885 268.5 885 C 272.642136 885 276 888.357864 276 892.5 C 276 896.642136 272.642136 900 268.5 900 C 264.357864 900 261 896.642136 261 892.5 Z"/></g><g transform="translate(-198,-166) scale(1,1)"><path fill="none" stroke="#000000" d="M 267 817 L 268 879" stroke-miterlimit="10"/></g><g transform="translate(-198,-166) scale(1,1)"><path fill="none" stroke="#000000" d="M 263.62713688711733 868.9065333905545 L 268 879 L 272.04507752489906 868.7707601544613" stroke-miterlimit="10"/></g></g></svg>