<svg version="1.1" xmlns="http://www.w3.org/2000/svg" xmlns:xlink="http://www.w3.org/1999/xlink" width="660" height="499"><defs/><g><g transform="translate(-158,-174) scale(1,1)"><rect fill="#C0C0C0" stroke="none" x="391" y="191" width="424" height="479" opacity="0.2"/></g><g transform="translate(-158,-174) scale(1,1)"><rect fill="#ffffff" stroke="none" x="384" y="184" width="424" height="479"/></g><g transform="translate(-158,-174) scale(1,1)"><path fill="none" stroke="#000000" d="M 384 184 L 808 184 L 808 663 L 384 663 L 384 184 Z Z" stroke-miterlimit="10"/></g><g transform="translate(-158,-174) scale(1,1)"><g><path fill="none" stroke="none"/><text fill="#000000" stroke="none" font-family="Arial" font-size="13px" font-style="normal" font-weight="bold" text-decoration="none" x="536.5" y="203.5">CU2 - Gestion Client</text></g></g><g transform="translate(-158,-174) scale(1,1)"><path fill="#ffffff" stroke="none" d="M 183.82072727272728 409.68 C 183.82072727272728 404.886167936 187.70656959767274 401 192.5 401 C 197.29343040232726 401 201.17927272727272 404.886167936 201.17927272727272 409.68 C 201.17927272727272 414.473832064 197.29343040232726 418.36 192.5 418.36 C 187.70656959767274 418.36 183.82072727272728 414.473832064 183.82072727272728 409.68 Z"/></g><g transform="translate(-158,-174) scale(1,1)"><path fill="none" stroke="#000000" d="M 183.82072727272728 409.68 C 183.82072727272728 404.886167936 187.70656959767274 401 192.5 401 C 197.29343040232726 401 201.17927272727272 404.886167936 201.17927272727272 409.68 C 201.17927272727272 414.473832064 197.29343040232726 418.36 192.5 418.36 C 187.70656959767274 418.36 183.82072727272728 414.473832064 183.82072727272728 409.68 Z" stroke-miterlimit="10"/></g><g transform="translate(-158,-174) scale(1,1)"><path fill="none" stroke="#000000" d="M 192.5 418.36 L 192.5 435.64" stroke-miterlimit="10"/></g><g transform="translate(-158,-174) scale(1,1)"><path fill="none" stroke="#000000" d="M 183.31018181818183 424.84 L 201.68981818181817 424.84" stroke-miterlimit="10"/></g><g transform="translate(-158,-174) scale(1,1)"><path fill="none" stroke="#000000" d="M 192.5 435.64 L 179.73636363636365 453" stroke-miterlimit="10"/></g><g transform="translate(-158,-174) scale(1,1)"><path fill="none" stroke="#000000" d="M 192.5 435.64 L 205.26363636363635 453" stroke-miterlimit="10"/></g><g transform="translate(-158,-174) scale(1,1)"><g><path fill="none" stroke="none"/><text fill="#000000" stroke="none" font-family="Arial" font-size="13px" font-style="normal" font-weight="bold" text-decoration="none" x="175.5" y="473.5">Agent</text></g></g><g transform="translate(-158,-174) scale(1,1)"><path fill="#C0C0C0" stroke="none" d="M 471 272 C 471 262.6111584 520.0248144 255 580.5 255 C 640.9751856 255 690 262.6111584 690 272 C 690 281.3888416 640.9751856 289 580.5 289 C 520.0248144 289 471 281.3888416 471 272 Z" opacity="0.2"/></g><g transform="translate(-158,-174) scale(1,1)"><path fill="#ffffff" stroke="none" d="M 464 265 C 464 255.6111584 513.0248144 248 573.5 248 C 633.9751856 248 683 255.6111584 683 265 C 683 274.3888416 633.9751856 282 573.5 282 C 513.0248144 282 464 274.3888416 464 265 Z"/></g><g transform="translate(-158,-174) scale(1,1)"><path fill="none" stroke="#000000" d="M 464 265 C 464 255.6111584 513.0248144 248 573.5 248 C 633.9751856 248 683 255.6111584 683 265 C 683 274.3888416 633.9751856 282 573.5 282 C 513.0248144 282 464 274.3888416 464 265 Z" stroke-miterlimit="10"/></g><g transform="translate(-158,-174) scale(1,1)"><g><path fill="none" stroke="none"/><text fill="#000000" stroke="none" font-family="Arial" font-size="13px" font-style="normal" font-weight="bold" text-decoration="none" x="510" y="272">ListerPersonnesClient</text></g></g><g transform="translate(-158,-174) scale(1,1)"><path fill="#C0C0C0" stroke="none" d="M 447 344 C 447 334.6111584 508.56084 327 584.5 327 C 660.43916 327 722 334.6111584 722 344 C 722 353.3888416 660.43916 361 584.5 361 C 508.56084 361 447 353.3888416 447 344 Z" opacity="0.2"/></g><g transform="translate(-158,-174) scale(1,1)"><path fill="#ffffff" stroke="none" d="M 440 337 C 440 327.6111584 501.56084 320 577.5 320 C 653.43916 320 715 327.6111584 715 337 C 715 346.3888416 653.43916 354 577.5 354 C 501.56084 354 440 346.3888416 440 337 Z"/></g><g transform="translate(-158,-174) scale(1,1)"><path fill="none" stroke="#000000" d="M 440 337 C 440 327.6111584 501.56084 320 577.5 320 C 653.43916 320 715 327.6111584 715 337 C 715 346.3888416 653.43916 354 577.5 354 C 501.56084 354 440 346.3888416 440 337 Z" stroke-miterlimit="10"/></g><g transform="translate(-158,-174) scale(1,1)"><g><path fill="none" stroke="none"/><text fill="#000000" stroke="none" font-family="Arial" font-size="13px" font-style="normal" font-weight="bold" text-decoration="none" x="497.5" y="344">ListerDetailPersonnesClient</text></g></g><g transform="translate(-158,-174) scale(1,1)"><path fill="#C0C0C0" stroke="none" d="M 463 408 C 463 398.6111584 513.5918176 391 576 391 C 638.4081824 391 689 398.6111584 689 408 C 689 417.3888416 638.4081824 425 576 425 C 513.5918176 425 463 417.3888416 463 408 Z" opacity="0.2"/></g><g transform="translate(-158,-174) scale(1,1)"><path fill="#ffffff" stroke="none" d="M 456 401 C 456 391.6111584 506.5918176 384 569 384 C 631.4081824 384 682 391.6111584 682 401 C 682 410.3888416 631.4081824 418 569 418 C 506.5918176 418 456 410.3888416 456 401 Z"/></g><g transform="translate(-158,-174) scale(1,1)"><path fill="none" stroke="#000000" d="M 456 401 C 456 391.6111584 506.5918176 384 569 384 C 631.4081824 384 682 391.6111584 682 401 C 682 410.3888416 631.4081824 418 569 418 C 506.5918176 418 456 410.3888416 456 401 Z" stroke-miterlimit="10"/></g><g transform="translate(-158,-174) scale(1,1)"><g><path fill="none" stroke="none"/><text fill="#000000" stroke="none" font-family="Arial" font-size="13px" font-style="normal" font-weight="bold" text-decoration="none" x="504.5" y="408">AjouterPersonneClient</text></g></g><g transform="translate(-158,-174) scale(1,1)"><path fill="#C0C0C0" stroke="none" d="M 463 480 C 463 470.6111584 519.8598304 463 590 463 C 660.1401696 463 717 470.6111584 717 480 C 717 489.3888416 660.1401696 497 590 497 C 519.8598304 497 463 489.3888416 463 480 Z" opacity="0.2"/></g><g transform="translate(-158,-174) scale(1,1)"><path fill="#ffffff" stroke="none" d="M 456 473 C 456 463.6111584 512.8598304 456 583 456 C 653.1401696 456 710 463.6111584 710 473 C 710 482.3888416 653.1401696 490 583 490 C 512.8598304 490 456 482.3888416 456 473 Z"/></g><g transform="translate(-158,-174) scale(1,1)"><path fill="none" stroke="#000000" d="M 456 473 C 456 463.6111584 512.8598304 456 583 456 C 653.1401696 456 710 463.6111584 710 473 C 710 482.3888416 653.1401696 490 583 490 C 512.8598304 490 456 482.3888416 456 473 Z" stroke-miterlimit="10"/></g><g transform="translate(-158,-174) scale(1,1)"><g><path fill="none" stroke="none"/><text fill="#000000" stroke="none" font-family="Arial" font-size="13px" font-style="normal" font-weight="bold" text-decoration="none" x="509.5" y="480">SupprimerPersonneClient</text></g></g><g transform="translate(-158,-174) scale(1,1)"><path fill="#C0C0C0" stroke="none" d="M 479 552 C 479 542.6111584 529.8156752 535 592.5 535 C 655.1843248 535 706 542.6111584 706 552 C 706 561.3888416 655.1843248 569 592.5 569 C 529.8156752 569 479 561.3888416 479 552 Z" opacity="0.2"/></g><g transform="translate(-158,-174) scale(1,1)"><path fill="#ffffff" stroke="none" d="M 472 545 C 472 535.6111584 522.8156752 528 585.5 528 C 648.1843248 528 699 535.6111584 699 545 C 699 554.3888416 648.1843248 562 585.5 562 C 522.8156752 562 472 554.3888416 472 545 Z"/></g><g transform="translate(-158,-174) scale(1,1)"><path fill="none" stroke="#000000" d="M 472 545 C 472 535.6111584 522.8156752 528 585.5 528 C 648.1843248 528 699 535.6111584 699 545 C 699 554.3888416 648.1843248 562 585.5 562 C 522.8156752 562 472 554.3888416 472 545 Z" stroke-miterlimit="10"/></g><g transform="translate(-158,-174) scale(1,1)"><g><path fill="none" stroke="none"/><text fill="#000000" stroke="none" font-family="Arial" font-size="13px" font-style="normal" font-weight="bold" text-decoration="none" x="520.5" y="552">ModifierInfosPersonne</text></g></g><g transform="translate(-158,-174) scale(1,1)"><path fill="#C0C0C0" stroke="none" d="M 495 624 C 495 614.6111584 536.6375136 607 588 607 C 639.3624864 607 681 614.6111584 681 624 C 681 633.3888416 639.3624864 641 588 641 C 536.6375136 641 495 633.3888416 495 624 Z" opacity="0.2"/></g><g transform="translate(-158,-174) scale(1,1)"><path fill="#ffffff" stroke="none" d="M 488 617 C 488 607.6111584 529.6375136 600 581 600 C 632.3624864 600 674 607.6111584 674 617 C 674 626.3888416 632.3624864 634 581 634 C 529.6375136 634 488 626.3888416 488 617 Z"/></g><g transform="translate(-158,-174) scale(1,1)"><path fill="none" stroke="#000000" d="M 488 617 C 488 607.6111584 529.6375136 600 581 600 C 632.3624864 600 674 607.6111584 674 617 C 674 626.3888416 632.3624864 634 581 634 C 529.6375136 634 488 626.3888416 488 617 Z" stroke-miterlimit="10"/></g><g transform="translate(-158,-174) scale(1,1)"><g><path fill="none" stroke="none"/><text fill="#000000" stroke="none" font-family="Arial" font-size="13px" font-style="normal" font-weight="bold" text-decoration="none" x="526.5" y="624">ConsulterDateMAJ</text></g></g><g transform="translate(-158,-174) scale(1,1)"><path fill="none" stroke="#000000" d="M 218 427 L 534 283" stroke-miterlimit="10"/></g><g transform="translate(-158,-174) scale(1,1)"><path fill="none" stroke="#000000" d="M 218 432 L 509 355" stroke-miterlimit="10"/></g><g transform="translate(-158,-174) scale(1,1)"><path fill="none" stroke="#000000" d="M 218 436 L 455 412" stroke-miterlimit="10"/></g><g transform="translate(-158,-174) scale(1,1)"><path fill="none" stroke="#000000" d="M 218 441 L 455 462" stroke-miterlimit="10"/></g><g transform="translate(-158,-174) scale(1,1)"><path fill="none" stroke="#000000" d="M 218 446 L 518 527" stroke-miterlimit="10"/></g><g transform="translate(-158,-174) scale(1,1)"><path fill="none" stroke="#000000" d="M 218 451 L 542 599" stroke-miterlimit="10"/></g></g></svg>