<svg version="1.1" xmlns="http://www.w3.org/2000/svg" xmlns:xlink="http://www.w3.org/1999/xlink" width="881.7060546875" height="877"><defs/><g><g transform="translate(-102,-406) scale(1,1)"><path fill="#C0C0C0" stroke="none" d="M 727 432.5 C 727 427.2532944 731.2532944 423 736.5 423 C 741.7467056 423 746 427.2532944 746 432.5 C 746 437.7467056 741.7467056 442 736.5 442 C 731.2532944 442 727 437.7467056 727 432.5 Z" opacity="0.2"/></g><g transform="translate(-102,-406) scale(1,1)"><path fill="#000000" stroke="none" d="M 720 425.5 C 720 420.2532944 724.2532944 416 729.5 416 C 734.7467056 416 739 420.2532944 739 425.5 C 739 430.7467056 734.7467056 435 729.5 435 C 724.2532944 435 720 430.7467056 720 425.5 Z"/></g><g transform="translate(-102,-406) scale(1,1)"><path fill="#C0C0C0" stroke="none" d="M 697 479 L 788.765625 479 Q 798.765625 479 798.765625 489 L 798.765625 509 Q 798.765625 519 788.765625 519 L 697 519 Q 687 519 687 509 L 687 489 Q 687 479 697 479 Z" opacity="0.2"/></g><g transform="translate(-102,-406) scale(1,1)"><path fill="#ffffff" stroke="none" d="M 690 472 L 781.765625 472 Q 791.765625 472 791.765625 482 L 791.765625 502 Q 791.765625 512 781.765625 512 L 690 512 Q 680 512 680 502 L 680 482 Q 680 472 690 472 Z"/></g><g transform="translate(-102,-406) scale(1,1)"><path fill="none" stroke="#000000" d="M 690 472 L 781.765625 472 Q 791.765625 472 791.765625 482 L 791.765625 502 Q 791.765625 512 781.765625 512 L 690 512 Q 680 512 680 502 L 680 482 Q 680 472 690 472 Z" stroke-miterlimit="10"/></g><g transform="translate(-102,-406) scale(1,1)"><g><path fill="none" stroke="none"/><text fill="#000000" stroke="none" font-family="Arial" font-size="13px" font-style="normal" font-weight="bold" text-decoration="none" x="693.3828125" y="491.5">Identifier client</text></g></g><g transform="translate(-102,-406) scale(1,1)"><path fill="none" stroke="#000000" d="M 730 436 L 733 471" stroke-miterlimit="10"/></g><g transform="translate(-102,-406) scale(1,1)"><path fill="none" stroke="#000000" d="M 727.9379570577379 461.2339505811872 L 733 471 L 736.3262348783145 460.51495533942347" stroke-miterlimit="10"/></g><g transform="translate(-102,-406) scale(1,1)"><path fill="#C0C0C0" stroke="none" d="M 727 704.5 L 738.5 695 L 749 704.5 L 738.5 713 L 727 704.5" opacity="0.2"/></g><g transform="translate(-102,-406) scale(1,1)"><path fill="#ffffff" stroke="none" d="M 720 697 L 731 688 L 742 697 L 731 706 L 720 697"/></g><g transform="translate(-102,-406) scale(1,1)"><path fill="none" stroke="#000000" d="M 720 697 L 731 688 L 742 697 L 731 706 L 720 697 L 720 697" stroke-miterlimit="10"/></g><g transform="translate(-102,-406) scale(1,1)"><path fill="#C0C0C0" stroke="none" d="M 673 559 L 820.41259765625 559 Q 830.41259765625 559 830.41259765625 569 L 830.41259765625 589 Q 830.41259765625 599 820.41259765625 599 L 673 599 Q 663 599 663 589 L 663 569 Q 663 559 673 559 Z" opacity="0.2"/></g><g transform="translate(-102,-406) scale(1,1)"><path fill="#ffffff" stroke="none" d="M 666 552 L 813.41259765625 552 Q 823.41259765625 552 823.41259765625 562 L 823.41259765625 582 Q 823.41259765625 592 813.41259765625 592 L 666 592 Q 656 592 656 582 L 656 562 Q 656 552 666 552 Z"/></g><g transform="translate(-102,-406) scale(1,1)"><path fill="none" stroke="#000000" d="M 666 552 L 813.41259765625 552 Q 823.41259765625 552 823.41259765625 562 L 823.41259765625 582 Q 823.41259765625 592 813.41259765625 592 L 666 592 Q 656 592 656 582 L 656 562 Q 656 552 666 552 Z" stroke-miterlimit="10"/></g><g transform="translate(-102,-406) scale(1,1)"><g><path fill="none" stroke="none"/><text fill="#000000" stroke="none" font-family="Arial" font-size="13px" font-style="normal" font-weight="bold" text-decoration="none" x="671.206298828125" y="571.5">Consulter liste contacts</text></g></g><g transform="translate(-102,-406) scale(1,1)"><path fill="none" stroke="#000000" d="M 736 513 L 738 551" stroke-miterlimit="10"/></g><g transform="translate(-102,-406) scale(1,1)"><path fill="none" stroke="#000000" d="M 733.2621621840279 541.0726190347331 L 738 551 L 741.6695611521266 540.6301243522015" stroke-miterlimit="10"/></g><g transform="translate(-102,-406) scale(1,1)"><path fill="none" stroke="#000000" d="M 738 593 L 732 687" stroke-miterlimit="10"/></g><g transform="translate(-102,-406) scale(1,1)"><path fill="none" stroke="#000000" d="M 728.4463953815032 676.589817762623 L 732 687 L 736.8483325300421 677.1261116231681" stroke-miterlimit="10"/></g><g transform="translate(-102,-406) scale(1,1)"><path fill="#C0C0C0" stroke="none" d="M 841 775 L 919.4228515625 775 Q 929.4228515625 775 929.4228515625 785 L 929.4228515625 805 Q 929.4228515625 815 919.4228515625 815 L 841 815 Q 831 815 831 805 L 831 785 Q 831 775 841 775 Z" opacity="0.2"/></g><g transform="translate(-102,-406) scale(1,1)"><path fill="#ffffff" stroke="none" d="M 834 768 L 912.4228515625 768 Q 922.4228515625 768 922.4228515625 778 L 922.4228515625 798 Q 922.4228515625 808 912.4228515625 808 L 834 808 Q 824 808 824 798 L 824 778 Q 824 768 834 768 Z"/></g><g transform="translate(-102,-406) scale(1,1)"><path fill="none" stroke="#000000" d="M 834 768 L 912.4228515625 768 Q 922.4228515625 768 922.4228515625 778 L 922.4228515625 798 Q 922.4228515625 808 912.4228515625 808 L 834 808 Q 824 808 824 798 L 824 778 Q 824 768 834 768 Z" stroke-miterlimit="10"/></g><g transform="translate(-102,-406) scale(1,1)"><g><path fill="none" stroke="none"/><text fill="#000000" stroke="none" font-family="Arial" font-size="13px" font-style="normal" font-weight="bold" text-decoration="none" x="834.21142578125" y="787.5">Créer contact</text></g></g><g transform="translate(-102,-406) scale(1,1)"><path fill="none" stroke="#000000" d="M 742 696 L 870 696 L 870 768" stroke-miterlimit="10"/></g><g transform="translate(-102,-406) scale(1,1)"><path fill="none" stroke="#000000" d="M 865.790482243984 757.8373251423759 L 870 768 L 874.209517756016 757.8373251423759" stroke-miterlimit="10"/></g><g transform="translate(-102,-406) scale(1,1)"><path fill="#C0C0C0" stroke="none" d="M 505 847 L 691.4638671875 847 Q 701.4638671875 847 701.4638671875 857 L 701.4638671875 877 Q 701.4638671875 887 691.4638671875 887 L 505 887 Q 495 887 495 877 L 495 857 Q 495 847 505 847 Z" opacity="0.2"/></g><g transform="translate(-102,-406) scale(1,1)"><path fill="#ffffff" stroke="none" d="M 498 840 L 684.4638671875 840 Q 694.4638671875 840 694.4638671875 850 L 694.4638671875 870 Q 694.4638671875 880 684.4638671875 880 L 498 880 Q 488 880 488 870 L 488 850 Q 488 840 498 840 Z"/></g><g transform="translate(-102,-406) scale(1,1)"><path fill="none" stroke="#000000" d="M 498 840 L 684.4638671875 840 Q 694.4638671875 840 694.4638671875 850 L 694.4638671875 870 Q 694.4638671875 880 684.4638671875 880 L 498 880 Q 488 880 488 870 L 488 850 Q 488 840 498 840 Z" stroke-miterlimit="10"/></g><g transform="translate(-102,-406) scale(1,1)"><g><path fill="none" stroke="none"/><text fill="#000000" stroke="none" font-family="Arial" font-size="13px" font-style="normal" font-weight="bold" text-decoration="none" x="506.73193359375" y="859.5">Consulter le détail du contact</text></g></g><g transform="translate(-102,-406) scale(1,1)"><path fill="none" stroke="#000000" d="M 720 696 L 561 696 L 561 840" stroke-miterlimit="10"/></g><g transform="translate(-102,-406) scale(1,1)"><path fill="none" stroke="#000000" d="M 556.790482243984 829.8373251423759 L 561 840 L 565.209517756016 829.8373251423759" stroke-miterlimit="10"/></g><g transform="translate(-102,-406) scale(1,1)"><path fill="none" stroke="#000000" d="M 870 808 L 870 872 L 694 872" stroke-miterlimit="10"/></g><g transform="translate(-102,-406) scale(1,1)"><path fill="none" stroke="#000000" d="M 704.1626748576241 867.790482243984 L 694 872 L 704.1626748576241 876.209517756016" stroke-miterlimit="10"/></g><g transform="translate(-102,-406) scale(1,1)"><path fill="#C0C0C0" stroke="none" d="M 591 960.5 L 602.5 951 L 613 960.5 L 602.5 969 L 591 960.5" opacity="0.2"/></g><g transform="translate(-102,-406) scale(1,1)"><path fill="#ffffff" stroke="none" d="M 584 953 L 595 944 L 606 953 L 595 962 L 584 953"/></g><g transform="translate(-102,-406) scale(1,1)"><path fill="none" stroke="#000000" d="M 584 953 L 595 944 L 606 953 L 595 962 L 584 953 L 584 953" stroke-miterlimit="10"/></g><g transform="translate(-102,-406) scale(1,1)"><path fill="none" stroke="#000000" d="M 592 881 L 595 943" stroke-miterlimit="10"/></g><g transform="translate(-102,-406) scale(1,1)"><path fill="none" stroke="#000000" d="M 590.3042338231216 933.0526495984063 L 595 943 L 598.7134308172685 932.6457529696573" stroke-miterlimit="10"/></g><g transform="translate(-102,-406) scale(1,1)"><path fill="#C0C0C0" stroke="none" d="M 129 1031 L 245.3251953125 1031 Q 255.3251953125 1031 255.3251953125 1041 L 255.3251953125 1061 Q 255.3251953125 1071 245.3251953125 1071 L 129 1071 Q 119 1071 119 1061 L 119 1041 Q 119 1031 129 1031 Z" opacity="0.2"/></g><g transform="translate(-102,-406) scale(1,1)"><path fill="#ffffff" stroke="none" d="M 122 1024 L 238.3251953125 1024 Q 248.3251953125 1024 248.3251953125 1034 L 248.3251953125 1054 Q 248.3251953125 1064 238.3251953125 1064 L 122 1064 Q 112 1064 112 1054 L 112 1034 Q 112 1024 122 1024 Z"/></g><g transform="translate(-102,-406) scale(1,1)"><path fill="none" stroke="#000000" d="M 122 1024 L 238.3251953125 1024 Q 248.3251953125 1024 248.3251953125 1034 L 248.3251953125 1054 Q 248.3251953125 1064 238.3251953125 1064 L 122 1064 Q 112 1064 112 1054 L 112 1034 Q 112 1024 122 1024 Z" stroke-miterlimit="10"/></g><g transform="translate(-102,-406) scale(1,1)"><g><path fill="none" stroke="none"/><text fill="#000000" stroke="none" font-family="Arial" font-size="13px" font-style="normal" font-weight="bold" text-decoration="none" x="124.66259765625" y="1043.5">Mise a jour contact</text></g></g><g transform="translate(-102,-406) scale(1,1)"><path fill="#C0C0C0" stroke="none" d="M 449 1031 L 546.14208984375 1031 Q 556.14208984375 1031 556.14208984375 1041 L 556.14208984375 1061 Q 556.14208984375 1071 546.14208984375 1071 L 449 1071 Q 439 1071 439 1061 L 439 1041 Q 439 1031 449 1031 Z" opacity="0.2"/></g><g transform="translate(-102,-406) scale(1,1)"><path fill="#ffffff" stroke="none" d="M 442 1024 L 539.14208984375 1024 Q 549.14208984375 1024 549.14208984375 1034 L 549.14208984375 1054 Q 549.14208984375 1064 539.14208984375 1064 L 442 1064 Q 432 1064 432 1054 L 432 1034 Q 432 1024 442 1024 Z"/></g><g transform="translate(-102,-406) scale(1,1)"><path fill="none" stroke="#000000" d="M 442 1024 L 539.14208984375 1024 Q 549.14208984375 1024 549.14208984375 1034 L 549.14208984375 1054 Q 549.14208984375 1064 539.14208984375 1064 L 442 1064 Q 432 1064 432 1054 L 432 1034 Q 432 1024 442 1024 Z" stroke-miterlimit="10"/></g><g transform="translate(-102,-406) scale(1,1)"><g><path fill="none" stroke="none"/><text fill="#000000" stroke="none" font-family="Arial" font-size="13px" font-style="normal" font-weight="bold" text-decoration="none" x="444.571044921875" y="1043.5">Cloturer contact</text></g></g><g transform="translate(-102,-406) scale(1,1)"><path fill="#C0C0C0" stroke="none" d="M 721 1031 L 970.7060546875 1031 Q 980.7060546875 1031 980.7060546875 1041 L 980.7060546875 1061 Q 980.7060546875 1071 970.7060546875 1071 L 721 1071 Q 711 1071 711 1061 L 711 1041 Q 711 1031 721 1031 Z" opacity="0.2"/></g><g transform="translate(-102,-406) scale(1,1)"><path fill="#ffffff" stroke="none" d="M 714 1024 L 963.7060546875 1024 Q 973.7060546875 1024 973.7060546875 1034 L 973.7060546875 1054 Q 973.7060546875 1064 963.7060546875 1064 L 714 1064 Q 704 1064 704 1054 L 704 1034 Q 704 1024 714 1024 Z"/></g><g transform="translate(-102,-406) scale(1,1)"><path fill="none" stroke="#000000" d="M 714 1024 L 963.7060546875 1024 Q 973.7060546875 1024 973.7060546875 1034 L 973.7060546875 1054 Q 973.7060546875 1064 963.7060546875 1064 L 714 1064 Q 704 1064 704 1054 L 704 1034 Q 704 1024 714 1024 Z" stroke-miterlimit="10"/></g><g transform="translate(-102,-406) scale(1,1)"><g><path fill="none" stroke="none"/><text fill="#000000" stroke="none" font-family="Arial" font-size="13px" font-style="normal" font-weight="bold" text-decoration="none" x="729.35302734375" y="1043.5">Consulter liste offres (Produit/Contrat)</text></g></g><g transform="translate(-102,-406) scale(1,1)"><path fill="#C0C0C0" stroke="none" d="M 761 1143 L 930.5693359375 1143 Q 940.5693359375 1143 940.5693359375 1153 L 940.5693359375 1173 Q 940.5693359375 1183 930.5693359375 1183 L 761 1183 Q 751 1183 751 1173 L 751 1153 Q 751 1143 761 1143 Z" opacity="0.2"/></g><g transform="translate(-102,-406) scale(1,1)"><path fill="#ffffff" stroke="none" d="M 754 1136 L 923.5693359375 1136 Q 933.5693359375 1136 933.5693359375 1146 L 933.5693359375 1166 Q 933.5693359375 1176 923.5693359375 1176 L 754 1176 Q 744 1176 744 1166 L 744 1146 Q 744 1136 754 1136 Z"/></g><g transform="translate(-102,-406) scale(1,1)"><path fill="none" stroke="#000000" d="M 754 1136 L 923.5693359375 1136 Q 933.5693359375 1136 933.5693359375 1146 L 933.5693359375 1166 Q 933.5693359375 1176 923.5693359375 1176 L 754 1176 Q 744 1176 744 1166 L 744 1146 Q 744 1136 754 1136 Z" stroke-miterlimit="10"/></g><g transform="translate(-102,-406) scale(1,1)"><g><path fill="none" stroke="none"/><text fill="#000000" stroke="none" font-family="Arial" font-size="13px" font-style="normal" font-weight="bold" text-decoration="none" x="763.28466796875" y="1155.5">Faire une proposition offre</text></g></g><g transform="translate(-102,-406) scale(1,1)"><path fill="none" stroke="#000000" d="M 583 963 L 514 1023" stroke-miterlimit="10"/></g><g transform="translate(-102,-406) scale(1,1)"><path fill="none" stroke="#000000" d="M 518.9066146159198 1013.1549437273908 L 514 1023 L 524.4310065191111 1019.5079944160607" stroke-miterlimit="10"/></g><g transform="translate(-102,-406) scale(1,1)"><path fill="none" stroke="#000000" d="M 584 952 L 180 952 L 180 1024" stroke-miterlimit="10"/></g><g transform="translate(-102,-406) scale(1,1)"><path fill="none" stroke="#000000" d="M 175.790482243984 1013.8373251423759 L 180 1024 L 184.209517756016 1013.8373251423759" stroke-miterlimit="10"/></g><g transform="translate(-102,-406) scale(1,1)"><path fill="none" stroke="#000000" d="M 606 952 L 824 952 L 824 1024" stroke-miterlimit="10"/></g><g transform="translate(-102,-406) scale(1,1)"><path fill="none" stroke="#000000" d="M 819.790482243984 1013.8373251423759 L 824 1024 L 828.209517756016 1013.8373251423759" stroke-miterlimit="10"/></g><g transform="translate(-102,-406) scale(1,1)"><path fill="none" stroke="#000000" d="M 838 1065 L 838 1135" stroke-miterlimit="10"/></g><g transform="translate(-102,-406) scale(1,1)"><path fill="none" stroke="#000000" d="M 833.790482243984 1124.837325142376 L 838 1135 L 842.209517756016 1124.837325142376" stroke-miterlimit="10"/></g><g transform="translate(-102,-406) scale(1,1)"><path fill="#C0C0C0" stroke="none" d="M 599 1267.5 C 599 1260.59644 604.59644 1255 611.5 1255 C 618.40356 1255 624 1260.59644 624 1267.5 C 624 1274.40356 618.40356 1280 611.5 1280 C 604.59644 1280 599 1274.40356 599 1267.5 Z" opacity="0.2"/></g><g transform="translate(-102,-406) scale(1,1)"><path fill="none" stroke="#000000" d="M 592 1260.5 C 592 1253.59644 597.59644 1248 604.5 1248 C 611.40356 1248 617 1253.59644 617 1260.5 C 617 1267.40356 611.40356 1273 604.5 1273 C 597.59644 1273 592 1267.40356 592 1260.5 Z" stroke-miterlimit="10"/></g><g transform="translate(-102,-406) scale(1,1)"><path fill="#000000" stroke="none" d="M 597 1260.5 C 597 1256.357864 600.357864 1253 604.5 1253 C 608.642136 1253 612 1256.357864 612 1260.5 C 612 1264.642136 608.642136 1268 604.5 1268 C 600.357864 1268 597 1264.642136 597 1260.5 Z"/></g><g transform="translate(-102,-406) scale(1,1)"><path fill="none" stroke="#000000" d="M 501 1065 L 597 1247" stroke-miterlimit="10"/></g><g transform="translate(-102,-406) scale(1,1)"><path fill="none" stroke="#000000" d="M 588.5353277403591 1239.9750926314387 L 597 1247 L 595.9819324822033 1236.0472132071693" stroke-miterlimit="10"/></g><g transform="translate(-102,-406) scale(1,1)"><path fill="none" stroke="#000000" d="M 180 1064 L 180 1256 L 592 1256" stroke-miterlimit="10"/></g><g transform="translate(-102,-406) scale(1,1)"><path fill="none" stroke="#000000" d="M 581.8373251423759 1260.2095177560159 L 592 1256 L 581.8373251423758 1251.7904822439841" stroke-miterlimit="10"/></g><g transform="translate(-102,-406) scale(1,1)"><path fill="none" stroke="#000000" d="M 832 1176 L 832 1260 L 617 1260" stroke-miterlimit="10"/></g><g transform="translate(-102,-406) scale(1,1)"><path fill="none" stroke="#000000" d="M 627.1626748576241 1255.7904822439841 L 617 1260 L 627.1626748576241 1264.2095177560159" stroke-miterlimit="10"/></g><g transform="translate(-102,-406) scale(1,1)"><path fill="#C0C0C0" stroke="none" d="M 305 1031 L 400.04736328125 1031 Q 410.04736328125 1031 410.04736328125 1041 L 410.04736328125 1061 Q 410.04736328125 1071 400.04736328125 1071 L 305 1071 Q 295 1071 295 1061 L 295 1041 Q 295 1031 305 1031 Z" opacity="0.2"/></g><g transform="translate(-102,-406) scale(1,1)"><path fill="#ffffff" stroke="none" d="M 298 1024 L 393.04736328125 1024 Q 403.04736328125 1024 403.04736328125 1034 L 403.04736328125 1054 Q 403.04736328125 1064 393.04736328125 1064 L 298 1064 Q 288 1064 288 1054 L 288 1034 Q 288 1024 298 1024 Z"/></g><g transform="translate(-102,-406) scale(1,1)"><path fill="none" stroke="#000000" d="M 298 1024 L 393.04736328125 1024 Q 403.04736328125 1024 403.04736328125 1034 L 403.04736328125 1054 Q 403.04736328125 1064 393.04736328125 1064 L 298 1064 Q 288 1064 288 1054 L 288 1034 Q 288 1024 298 1024 Z" stroke-miterlimit="10"/></g><g transform="translate(-102,-406) scale(1,1)"><g><path fill="none" stroke="none"/><text fill="#000000" stroke="none" font-family="Arial" font-size="13px" font-style="normal" font-weight="bold" text-decoration="none" x="300.023681640625" y="1043.5">Annuler contact</text></g></g><g transform="translate(-102,-406) scale(1,1)"><path fill="#C0C0C0" stroke="none" d="M 593 1031 L 683.166015625 1031 Q 693.166015625 1031 693.166015625 1041 L 693.166015625 1061 Q 693.166015625 1071 683.166015625 1071 L 593 1071 Q 583 1071 583 1061 L 583 1041 Q 583 1031 593 1031 Z" opacity="0.2"/></g><g transform="translate(-102,-406) scale(1,1)"><path fill="#ffffff" stroke="none" d="M 586 1024 L 676.166015625 1024 Q 686.166015625 1024 686.166015625 1034 L 686.166015625 1054 Q 686.166015625 1064 676.166015625 1064 L 586 1064 Q 576 1064 576 1054 L 576 1034 Q 576 1024 586 1024 Z"/></g><g transform="translate(-102,-406) scale(1,1)"><path fill="none" stroke="#000000" d="M 586 1024 L 676.166015625 1024 Q 686.166015625 1024 686.166015625 1034 L 686.166015625 1054 Q 686.166015625 1064 676.166015625 1064 L 586 1064 Q 576 1064 576 1054 L 576 1034 Q 576 1024 586 1024 Z" stroke-miterlimit="10"/></g><g transform="translate(-102,-406) scale(1,1)"><g><path fill="none" stroke="none"/><text fill="#000000" stroke="none" font-family="Arial" font-size="13px" font-style="normal" font-weight="bold" text-decoration="none" x="588.5830078125" y="1043.5">Créer entretien</text></g></g><g transform="translate(-102,-406) scale(1,1)"><path fill="none" stroke="#000000" d="M 583 957 L 403 1023" stroke-miterlimit="10"/></g><g transform="translate(-102,-406) scale(1,1)"><path fill="none" stroke="#000000" d="M 411.09234867165617 1015.5492354099499 L 403 1023 L 413.99064078810306 1023.453668454805" stroke-miterlimit="10"/></g><g transform="translate(-102,-406) scale(1,1)"><path fill="none" stroke="#000000" d="M 599 963 L 623 1023" stroke-miterlimit="10"/></g><g transform="translate(-102,-406) scale(1,1)"><path fill="none" stroke="#000000" d="M 615.3172381947317 1015.1275689241817 L 623 1023 L 623.1341164273886 1012.0008176311189" stroke-miterlimit="10"/></g><g transform="translate(-102,-406) scale(1,1)"><path fill="none" stroke="#000000" d="M 370 1065 L 591 1249" stroke-miterlimit="10"/></g><g transform="translate(-102,-406) scale(1,1)"><path fill="none" stroke="#000000" d="M 580.4964934837393 1245.7325314289396 L 591 1249 L 585.8833485000257 1239.262450132204" stroke-miterlimit="10"/></g><g transform="translate(-102,-406) scale(1,1)"><path fill="none" stroke="#000000" d="M 628 1065 L 606 1247" stroke-miterlimit="10"/></g><g transform="translate(-102,-406) scale(1,1)"><path fill="none" stroke="#000000" d="M 603.0404809288408 1236.40560304371 L 606 1247 L 611.3986739261071 1237.4159340653578" stroke-miterlimit="10"/></g><g transform="translate(-102,-406) scale(1,1)"><path fill="#C0C0C0" stroke="none" d="M 329 623 L 701.1494140625 623 Q 711.1494140625 623 711.1494140625 633 L 711.1494140625 653 Q 711.1494140625 663 701.1494140625 663 L 329 663 Q 319 663 319 653 L 319 633 Q 319 623 329 623 Z" opacity="0.2"/></g><g transform="translate(-102,-406) scale(1,1)"><path fill="#ffffff" stroke="none" d="M 322 616 L 694.1494140625 616 Q 704.1494140625 616 704.1494140625 626 L 704.1494140625 646 Q 704.1494140625 656 694.1494140625 656 L 322 656 Q 312 656 312 646 L 312 626 Q 312 616 322 616 Z"/></g><g transform="translate(-102,-406) scale(1,1)"><path fill="none" stroke="#000000" d="M 322 616 L 694.1494140625 616 Q 704.1494140625 616 704.1494140625 626 L 704.1494140625 646 Q 704.1494140625 656 694.1494140625 656 L 322 656 Q 312 656 312 646 L 312 626 Q 312 616 322 616 Z" stroke-miterlimit="10"/></g><g transform="translate(-102,-406) scale(1,1)"><g><path fill="none" stroke="none"/><text fill="#000000" stroke="none" font-family="Arial" font-size="13px" font-style="normal" font-weight="bold" text-decoration="none" x="345.07470703125" y="635.5">Modifier les types communications à privilégier ou éviter</text></g></g><g transform="translate(-102,-406) scale(1,1)"><path fill="none" stroke="#000000" d="M 719 694 L 585 657" stroke-miterlimit="10"/></g><g transform="translate(-102,-406) scale(1,1)"><path fill="none" stroke="#000000" d="M 595.9165001732233 655.647216215349 L 585 657 L 593.6756938869163 663.7625687117045" stroke-miterlimit="10"/></g><g transform="translate(-102,-406) scale(1,1)"><path fill="none" stroke="#000000" d="M 584 615 L 663 593" stroke-miterlimit="10"/></g><g transform="translate(-102,-406) scale(1,1)"><path fill="none" stroke="#000000" d="M 654.3391571333436 599.781578049325 L 663 593 L 652.0805594523725 591.6711591040198" stroke-miterlimit="10"/></g></g></svg>