<svg version="1.1" xmlns="http://www.w3.org/2000/svg" xmlns:xlink="http://www.w3.org/1999/xlink" width="1054.17724609375" height="499"><defs/><g><g transform="translate(-118,-243) scale(1,1)"><rect fill="#C0C0C0" stroke="none" x="358" y="260" width="713" height="479" opacity="0.2"/></g><g transform="translate(-118,-243) scale(1,1)"><rect fill="#ffffff" stroke="none" x="351" y="253" width="713" height="479"/></g><g transform="translate(-118,-243) scale(1,1)"><path fill="none" stroke="#000000" d="M 351 253 L 1064 253 L 1064 732 L 351 732 L 351 253 Z Z" stroke-miterlimit="10"/></g><g transform="translate(-118,-243) scale(1,1)"><g><path fill="none" stroke="none"/><text fill="#000000" stroke="none" font-family="Arial" font-size="13px" font-style="normal" font-weight="bold" text-decoration="none" x="606" y="272.5">CU3 - Gestion des contacts clients</text></g></g><g transform="translate(-118,-243) scale(1,1)"><path fill="#ffffff" stroke="none" d="M 143.82072727272728 478.68 C 143.82072727272728 473.886167936 147.70656959767274 470 152.5 470 C 157.29343040232726 470 161.17927272727272 473.886167936 161.17927272727272 478.68 C 161.17927272727272 483.473832064 157.29343040232726 487.36 152.5 487.36 C 147.70656959767274 487.36 143.82072727272728 483.473832064 143.82072727272728 478.68 Z"/></g><g transform="translate(-118,-243) scale(1,1)"><path fill="none" stroke="#000000" d="M 143.82072727272728 478.68 C 143.82072727272728 473.886167936 147.70656959767274 470 152.5 470 C 157.29343040232726 470 161.17927272727272 473.886167936 161.17927272727272 478.68 C 161.17927272727272 483.473832064 157.29343040232726 487.36 152.5 487.36 C 147.70656959767274 487.36 143.82072727272728 483.473832064 143.82072727272728 478.68 Z" stroke-miterlimit="10"/></g><g transform="translate(-118,-243) scale(1,1)"><path fill="none" stroke="#000000" d="M 152.5 487.36 L 152.5 504.64" stroke-miterlimit="10"/></g><g transform="translate(-118,-243) scale(1,1)"><path fill="none" stroke="#000000" d="M 143.31018181818183 493.84 L 161.68981818181817 493.84" stroke-miterlimit="10"/></g><g transform="translate(-118,-243) scale(1,1)"><path fill="none" stroke="#000000" d="M 152.5 504.64 L 139.73636363636365 522" stroke-miterlimit="10"/></g><g transform="translate(-118,-243) scale(1,1)"><path fill="none" stroke="#000000" d="M 152.5 504.64 L 165.26363636363635 522" stroke-miterlimit="10"/></g><g transform="translate(-118,-243) scale(1,1)"><g><path fill="none" stroke="none"/><text fill="#000000" stroke="none" font-family="Arial" font-size="13px" font-style="normal" font-weight="bold" text-decoration="none" x="135.5" y="542.5">Agent</text></g></g><g transform="translate(-118,-243) scale(1,1)"><path fill="#C0C0C0" stroke="none" d="M 438 341 C 438 331.6111584 490.1588208 324 554.5 324 C 618.8411791999999 324 671 331.6111584 671 341 C 671 350.3888416 618.8411791999999 358 554.5 358 C 490.1588208 358 438 350.3888416 438 341 Z" opacity="0.2"/></g><g transform="translate(-118,-243) scale(1,1)"><path fill="#ffffff" stroke="none" d="M 431 334 C 431 324.6111584 483.1588208 317 547.5 317 C 611.8411791999999 317 664 324.6111584 664 334 C 664 343.3888416 611.8411791999999 351 547.5 351 C 483.1588208 351 431 343.3888416 431 334 Z"/></g><g transform="translate(-118,-243) scale(1,1)"><path fill="none" stroke="#000000" d="M 431 334 C 431 324.6111584 483.1588208 317 547.5 317 C 611.8411791999999 317 664 324.6111584 664 334 C 664 343.3888416 611.8411791999999 351 547.5 351 C 483.1588208 351 431 343.3888416 431 334 Z" stroke-miterlimit="10"/></g><g transform="translate(-118,-243) scale(1,1)"><g><path fill="none" stroke="none"/><text fill="#000000" stroke="none" font-family="Arial" font-size="13px" font-style="normal" font-weight="bold" text-decoration="none" x="480" y="341">ConsulterListeContacts</text></g></g><g transform="translate(-118,-243) scale(1,1)"><path fill="#C0C0C0" stroke="none" d="M 414 413 C 414 403.6111584 476.9039856 396 554.5 396 C 632.0960144000001 396 695 403.6111584 695 413 C 695 422.3888416 632.0960144000001 430 554.5 430 C 476.9039856 430 414 422.3888416 414 413 Z" opacity="0.2"/></g><g transform="translate(-118,-243) scale(1,1)"><path fill="#ffffff" stroke="none" d="M 407 406 C 407 396.6111584 469.9039856 389 547.5 389 C 625.0960144000001 389 688 396.6111584 688 406 C 688 415.3888416 625.0960144000001 423 547.5 423 C 469.9039856 423 407 415.3888416 407 406 Z"/></g><g transform="translate(-118,-243) scale(1,1)"><path fill="none" stroke="#000000" d="M 407 406 C 407 396.6111584 469.9039856 389 547.5 389 C 625.0960144000001 389 688 396.6111584 688 406 C 688 415.3888416 625.0960144000001 423 547.5 423 C 469.9039856 423 407 415.3888416 407 406 Z" stroke-miterlimit="10"/></g><g transform="translate(-118,-243) scale(1,1)"><g><path fill="none" stroke="none"/><text fill="#000000" stroke="none" font-family="Arial" font-size="13px" font-style="normal" font-weight="bold" text-decoration="none" x="509.5" y="413">CréerContact</text></g></g><g transform="translate(-118,-243) scale(1,1)"><path fill="#C0C0C0" stroke="none" d="M 430 477 C 430 467.6111584 478.129384 460 537.5 460 C 596.870616 460 645 467.6111584 645 477 C 645 486.3888416 596.870616 494 537.5 494 C 478.129384 494 430 486.3888416 430 477 Z" opacity="0.2"/></g><g transform="translate(-118,-243) scale(1,1)"><path fill="#ffffff" stroke="none" d="M 423 470 C 423 460.6111584 471.129384 453 530.5 453 C 589.870616 453 638 460.6111584 638 470 C 638 479.3888416 589.870616 487 530.5 487 C 471.129384 487 423 479.3888416 423 470 Z"/></g><g transform="translate(-118,-243) scale(1,1)"><path fill="none" stroke="#000000" d="M 423 470 C 423 460.6111584 471.129384 453 530.5 453 C 589.870616 453 638 460.6111584 638 470 C 638 479.3888416 589.870616 487 530.5 487 C 471.129384 487 423 479.3888416 423 470 Z" stroke-miterlimit="10"/></g><g transform="translate(-118,-243) scale(1,1)"><g><path fill="none" stroke="none"/><text fill="#000000" stroke="none" font-family="Arial" font-size="13px" font-style="normal" font-weight="bold" text-decoration="none" x="477" y="477">MiseAJourContact</text></g></g><g transform="translate(-118,-243) scale(1,1)"><path fill="#C0C0C0" stroke="none" d="M 430 549 C 430 539.6111584 484.845112 532 552.5 532 C 620.154888 532 675 539.6111584 675 549 C 675 558.3888416 620.154888 566 552.5 566 C 484.845112 566 430 558.3888416 430 549 Z" opacity="0.2"/></g><g transform="translate(-118,-243) scale(1,1)"><path fill="#ffffff" stroke="none" d="M 423 542 C 423 532.6111584 477.845112 525 545.5 525 C 613.154888 525 668 532.6111584 668 542 C 668 551.3888416 613.154888 559 545.5 559 C 477.845112 559 423 551.3888416 423 542 Z"/></g><g transform="translate(-118,-243) scale(1,1)"><path fill="none" stroke="#000000" d="M 423 542 C 423 532.6111584 477.845112 525 545.5 525 C 613.154888 525 668 532.6111584 668 542 C 668 551.3888416 613.154888 559 545.5 559 C 477.845112 559 423 551.3888416 423 542 Z" stroke-miterlimit="10"/></g><g transform="translate(-118,-243) scale(1,1)"><g><path fill="none" stroke="none"/><text fill="#000000" stroke="none" font-family="Arial" font-size="13px" font-style="normal" font-weight="bold" text-decoration="none" x="500.5" y="549">CloturerContact</text></g></g><g transform="translate(-118,-243) scale(1,1)"><path fill="none" stroke="#000000" d="M 178 497 L 506 352" stroke-miterlimit="10"/></g><g transform="translate(-118,-243) scale(1,1)"><path fill="none" stroke="#000000" d="M 178 501 L 477 424" stroke-miterlimit="10"/></g><g transform="translate(-118,-243) scale(1,1)"><path fill="none" stroke="#000000" d="M 178 505 L 422 481" stroke-miterlimit="10"/></g><g transform="translate(-118,-243) scale(1,1)"><path fill="none" stroke="#000000" d="M 178 510 L 422 531" stroke-miterlimit="10"/></g><g transform="translate(-118,-243) scale(1,1)"><path fill="#C0C0C0" stroke="none" d="M 735 458.5 C 735 447.7304464 802.15728 439 885 439 C 967.84272 439 1035 447.7304464 1035 458.5 C 1035 469.2695536 967.84272 478 885 478 C 802.15728 478 735 469.2695536 735 458.5 Z" opacity="0.2"/></g><g transform="translate(-118,-243) scale(1,1)"><path fill="#ffffff" stroke="none" d="M 728 451.5 C 728 440.7304464 795.15728 432 878 432 C 960.84272 432 1028 440.7304464 1028 451.5 C 1028 462.2695536 960.84272 471 878 471 C 795.15728 471 728 462.2695536 728 451.5 Z"/></g><g transform="translate(-118,-243) scale(1,1)"><path fill="none" stroke="#000000" d="M 728 451.5 C 728 440.7304464 795.15728 432 878 432 C 960.84272 432 1028 440.7304464 1028 451.5 C 1028 462.2695536 960.84272 471 878 471 C 795.15728 471 728 462.2695536 728 451.5 Z" stroke-miterlimit="10"/></g><g transform="translate(-118,-243) scale(1,1)"><g><path fill="none" stroke="none"/><text fill="#000000" stroke="none" font-family="Arial" font-size="13px" font-style="normal" font-weight="bold" text-decoration="none" x="827.5" y="458.5">FairePropositions</text></g></g><g transform="translate(-118,-243) scale(1,1)"><path fill="#ffffff" stroke="none" d="M 1128.4093503196023 465.68 C 1128.4093503196023 460.886167936 1132.2951926445478 457 1137.088623046875 457 C 1141.8820534492022 457 1145.7678957741477 460.886167936 1145.7678957741477 465.68 C 1145.7678957741477 470.473832064 1141.8820534492022 474.36 1137.088623046875 474.36 C 1132.2951926445478 474.36 1128.4093503196023 470.473832064 1128.4093503196023 465.68 Z"/></g><g transform="translate(-118,-243) scale(1,1)"><path fill="none" stroke="#000000" d="M 1128.4093503196023 465.68 C 1128.4093503196023 460.886167936 1132.2951926445478 457 1137.088623046875 457 C 1141.8820534492022 457 1145.7678957741477 460.886167936 1145.7678957741477 465.68 C 1145.7678957741477 470.473832064 1141.8820534492022 474.36 1137.088623046875 474.36 C 1132.2951926445478 474.36 1128.4093503196023 470.473832064 1128.4093503196023 465.68 Z" stroke-miterlimit="10"/></g><g transform="translate(-118,-243) scale(1,1)"><path fill="none" stroke="#000000" d="M 1137.088623046875 474.36 L 1137.088623046875 491.64" stroke-miterlimit="10"/></g><g transform="translate(-118,-243) scale(1,1)"><path fill="none" stroke="#000000" d="M 1127.8988048650567 480.84 L 1146.2784412286933 480.84" stroke-miterlimit="10"/></g><g transform="translate(-118,-243) scale(1,1)"><path fill="none" stroke="#000000" d="M 1137.088623046875 491.64 L 1124.3249866832386 509" stroke-miterlimit="10"/></g><g transform="translate(-118,-243) scale(1,1)"><path fill="none" stroke="#000000" d="M 1137.088623046875 491.64 L 1149.8522594105114 509" stroke-miterlimit="10"/></g><g transform="translate(-118,-243) scale(1,1)"><g><path fill="none" stroke="none"/><text fill="#000000" stroke="none" font-family="Arial" font-size="13px" font-style="normal" font-weight="bold" text-decoration="none" x="1118.588623046875" y="529.5">SGBD</text></g></g><g transform="translate(-118,-243) scale(1,1)"><path fill="none" stroke="#000000" d="M 1002 472 L 1111 491" stroke-miterlimit="10"/></g><g transform="translate(-118,-243) scale(1,1)"><path fill="none" stroke="#000000" d="M 669 532 L 1111 497" stroke-miterlimit="10"/></g><g transform="translate(-118,-243) scale(1,1)"><path fill="none" stroke="#000000" d="M 639 478 L 779 488 L 1111 494" stroke-miterlimit="10"/></g><g transform="translate(-118,-243) scale(1,1)"><path fill="none" stroke="#000000" d="M 689 404 L 912 400 L 1111 484" stroke-miterlimit="10"/></g><g transform="translate(-118,-243) scale(1,1)"><path fill="none" stroke="#000000" d="M 665 347 L 936 376 L 1111 480" stroke-miterlimit="10"/></g><g transform="translate(-118,-243) scale(1,1)"><path fill="none" stroke="#000000" d="M 679 424 L 731 431" stroke-miterlimit="10" stroke-dasharray="3"/></g><g transform="translate(-118,-243) scale(1,1)"><path fill="none" stroke="#000000" d="M 720.3665724977693 433.8160645508945 L 731 431 L 721.4897729657206 425.4722896461137" stroke-miterlimit="10"/></g><g transform="translate(-118,-243) scale(1,1)"><g><path fill="none" stroke="none"/><text fill="#000000" stroke="none" font-family="Arial" font-size="13px" font-style="normal" font-weight="normal" text-decoration="none" x="688" y="421">«extend»</text></g></g><g transform="translate(-118,-243) scale(1,1)"><path fill="none" stroke="#000000" d="M 639 464 L 727 459" stroke-miterlimit="10" stroke-dasharray="3"/></g><g transform="translate(-118,-243) scale(1,1)"><path fill="none" stroke="#000000" d="M 717.0924816508295 463.77923426511506 L 727 459 L 716.6148976328294 455.3737555483134" stroke-miterlimit="10"/></g><g transform="translate(-118,-243) scale(1,1)"><g><path fill="none" stroke="none"/><text fill="#000000" stroke="none" font-family="Arial" font-size="13px" font-style="normal" font-weight="normal" text-decoration="none" x="640" y="452">«extend»</text></g></g><g transform="translate(-118,-243) scale(1,1)"><path fill="#C0C0C0" stroke="none" d="M 471 608 C 471 598.6111584 506.81721600000003 591 551 591 C 595.182784 591 631 598.6111584 631 608 C 631 617.3888416 595.182784 625 551 625 C 506.81721600000003 625 471 617.3888416 471 608 Z" opacity="0.2"/></g><g transform="translate(-118,-243) scale(1,1)"><path fill="#ffffff" stroke="none" d="M 464 601 C 464 591.6111584 499.81721600000003 584 544 584 C 588.182784 584 624 591.6111584 624 601 C 624 610.3888416 588.182784 618 544 618 C 499.81721600000003 618 464 610.3888416 464 601 Z"/></g><g transform="translate(-118,-243) scale(1,1)"><path fill="none" stroke="#000000" d="M 464 601 C 464 591.6111584 499.81721600000003 584 544 584 C 588.182784 584 624 591.6111584 624 601 C 624 610.3888416 588.182784 618 544 618 C 499.81721600000003 618 464 610.3888416 464 601 Z" stroke-miterlimit="10"/></g><g transform="translate(-118,-243) scale(1,1)"><g><path fill="none" stroke="none"/><text fill="#000000" stroke="none" font-family="Arial" font-size="13px" font-style="normal" font-weight="bold" text-decoration="none" x="499.5" y="608">AnnulerContact</text></g></g><g transform="translate(-118,-243) scale(1,1)"><path fill="none" stroke="#000000" d="M 178 514 L 468 583" stroke-miterlimit="10"/></g><g transform="translate(-118,-243) scale(1,1)"><path fill="none" stroke="#000000" d="M 625 587 L 1111 500" stroke-miterlimit="10"/></g></g></svg>