<svg version="1.1" xmlns="http://www.w3.org/2000/svg" xmlns:xlink="http://www.w3.org/1999/xlink" width="896" height="540"><defs/><g><g transform="translate(-98,-102) scale(1,1)"><rect fill="#C0C0C0" stroke="none" x="275" y="119" width="716" height="520" opacity="0.2"/></g><g transform="translate(-98,-102) scale(1,1)"><rect fill="#ffffff" stroke="none" x="268" y="112" width="716" height="520"/></g><g transform="translate(-98,-102) scale(1,1)"><path fill="none" stroke="#000000" d="M 268 112 L 984 112 L 984 632 L 268 632 L 268 112 Z Z" stroke-miterlimit="10"/></g><g transform="translate(-98,-102) scale(1,1)"><g><path fill="none" stroke="none"/><text fill="#000000" stroke="none" font-family="Arial" font-size="13px" font-style="normal" font-weight="bold" text-decoration="none" x="543.5" y="131.5">CU4 - Gestion Contrat Client</text></g></g><g transform="translate(-98,-102) scale(1,1)"><path fill="#ffffff" stroke="none" d="M 123.82072727272728 289.68 C 123.82072727272728 284.886167936 127.70656959767274 281 132.5 281 C 137.29343040232726 281 141.17927272727272 284.886167936 141.17927272727272 289.68 C 141.17927272727272 294.473832064 137.29343040232726 298.36 132.5 298.36 C 127.70656959767274 298.36 123.82072727272728 294.473832064 123.82072727272728 289.68 Z"/></g><g transform="translate(-98,-102) scale(1,1)"><path fill="none" stroke="#000000" d="M 123.82072727272728 289.68 C 123.82072727272728 284.886167936 127.70656959767274 281 132.5 281 C 137.29343040232726 281 141.17927272727272 284.886167936 141.17927272727272 289.68 C 141.17927272727272 294.473832064 137.29343040232726 298.36 132.5 298.36 C 127.70656959767274 298.36 123.82072727272728 294.473832064 123.82072727272728 289.68 Z" stroke-miterlimit="10"/></g><g transform="translate(-98,-102) scale(1,1)"><path fill="none" stroke="#000000" d="M 132.5 298.36 L 132.5 315.64" stroke-miterlimit="10"/></g><g transform="translate(-98,-102) scale(1,1)"><path fill="none" stroke="#000000" d="M 123.31018181818183 304.84 L 141.68981818181817 304.84" stroke-miterlimit="10"/></g><g transform="translate(-98,-102) scale(1,1)"><path fill="none" stroke="#000000" d="M 132.5 315.64 L 119.73636363636365 333" stroke-miterlimit="10"/></g><g transform="translate(-98,-102) scale(1,1)"><path fill="none" stroke="#000000" d="M 132.5 315.64 L 145.26363636363635 333" stroke-miterlimit="10"/></g><g transform="translate(-98,-102) scale(1,1)"><g><path fill="none" stroke="none"/><text fill="#000000" stroke="none" font-family="Arial" font-size="13px" font-style="normal" font-weight="bold" text-decoration="none" x="115.5" y="353.5">Agent</text></g></g><g transform="translate(-98,-102) scale(1,1)"><path fill="#C0C0C0" stroke="none" d="M 291 196 C 291 186.6111584 438.52215839999997 179 620.5 179 C 802.4778416 179 950 186.6111584 950 196 C 950 205.3888416 802.4778416 213 620.5 213 C 438.52215839999997 213 291 205.3888416 291 196 Z" opacity="0.2"/></g><g transform="translate(-98,-102) scale(1,1)"><path fill="#ffffff" stroke="none" d="M 284 189 C 284 179.6111584 431.52215839999997 172 613.5 172 C 795.4778416 172 943 179.6111584 943 189 C 943 198.3888416 795.4778416 206 613.5 206 C 431.52215839999997 206 284 198.3888416 284 189 Z"/></g><g transform="translate(-98,-102) scale(1,1)"><path fill="none" stroke="#000000" d="M 284 189 C 284 179.6111584 431.52215839999997 172 613.5 172 C 795.4778416 172 943 179.6111584 943 189 C 943 198.3888416 795.4778416 206 613.5 206 C 431.52215839999997 206 284 198.3888416 284 189 Z" stroke-miterlimit="10"/></g><g transform="translate(-98,-102) scale(1,1)"><g><path fill="none" stroke="none"/><text fill="#000000" stroke="none" font-family="Arial" font-size="13px" font-style="normal" font-weight="bold" text-decoration="none" x="417" y="196">Consulter liste contrats souscrits par le client dans chaque domaine</text></g></g><g transform="translate(-98,-102) scale(1,1)"><path fill="#C0C0C0" stroke="none" d="M 531 312 C 531 302.6111584 568.6080768 295 615 295 C 661.3919232 295 699 302.6111584 699 312 C 699 321.3888416 661.3919232 329 615 329 C 568.6080768 329 531 321.3888416 531 312 Z" opacity="0.2"/></g><g transform="translate(-98,-102) scale(1,1)"><path fill="#ffffff" stroke="none" d="M 524 305 C 524 295.6111584 561.6080768 288 608 288 C 654.3919232 288 692 295.6111584 692 305 C 692 314.3888416 654.3919232 322 608 322 C 561.6080768 322 524 314.3888416 524 305 Z"/></g><g transform="translate(-98,-102) scale(1,1)"><path fill="none" stroke="#000000" d="M 524 305 C 524 295.6111584 561.6080768 288 608 288 C 654.3919232 288 692 295.6111584 692 305 C 692 314.3888416 654.3919232 322 608 322 C 561.6080768 322 524 314.3888416 524 305 Z" stroke-miterlimit="10"/></g><g transform="translate(-98,-102) scale(1,1)"><g><path fill="none" stroke="none"/><text fill="#000000" stroke="none" font-family="Arial" font-size="13px" font-style="normal" font-weight="bold" text-decoration="none" x="561" y="312">Souscrire option</text></g></g><g transform="translate(-98,-102) scale(1,1)"><path fill="#C0C0C0" stroke="none" d="M 535 360 C 535 350.6111584 568.8024976 343 610.5 343 C 652.1975024 343 686 350.6111584 686 360 C 686 369.3888416 652.1975024 377 610.5 377 C 568.8024976 377 535 369.3888416 535 360 Z" opacity="0.2"/></g><g transform="translate(-98,-102) scale(1,1)"><path fill="#ffffff" stroke="none" d="M 528 353 C 528 343.6111584 561.8024976 336 603.5 336 C 645.1975024 336 679 343.6111584 679 353 C 679 362.3888416 645.1975024 370 603.5 370 C 561.8024976 370 528 362.3888416 528 353 Z"/></g><g transform="translate(-98,-102) scale(1,1)"><path fill="none" stroke="#000000" d="M 528 353 C 528 343.6111584 561.8024976 336 603.5 336 C 645.1975024 336 679 343.6111584 679 353 C 679 362.3888416 645.1975024 370 603.5 370 C 561.8024976 370 528 362.3888416 528 353 Z" stroke-miterlimit="10"/></g><g transform="translate(-98,-102) scale(1,1)"><g><path fill="none" stroke="none"/><text fill="#000000" stroke="none" font-family="Arial" font-size="13px" font-style="normal" font-weight="bold" text-decoration="none" x="562.5" y="360">Résilier option</text></g></g><g transform="translate(-98,-102) scale(1,1)"><path fill="#C0C0C0" stroke="none" d="M 535 412 C 535 402.6111584 570.1456432 395 613.5 395 C 656.8543568 395 692 402.6111584 692 412 C 692 421.3888416 656.8543568 429 613.5 429 C 570.1456432 429 535 421.3888416 535 412 Z" opacity="0.2"/></g><g transform="translate(-98,-102) scale(1,1)"><path fill="#ffffff" stroke="none" d="M 528 405 C 528 395.6111584 563.1456432 388 606.5 388 C 649.8543568 388 685 395.6111584 685 405 C 685 414.3888416 649.8543568 422 606.5 422 C 563.1456432 422 528 414.3888416 528 405 Z"/></g><g transform="translate(-98,-102) scale(1,1)"><path fill="none" stroke="#000000" d="M 528 405 C 528 395.6111584 563.1456432 388 606.5 388 C 649.8543568 388 685 395.6111584 685 405 C 685 414.3888416 649.8543568 422 606.5 422 C 563.1456432 422 528 414.3888416 528 405 Z" stroke-miterlimit="10"/></g><g transform="translate(-98,-102) scale(1,1)"><g><path fill="none" stroke="none"/><text fill="#000000" stroke="none" font-family="Arial" font-size="13px" font-style="normal" font-weight="bold" text-decoration="none" x="563" y="412">Résilier contrat</text></g></g><g transform="translate(-98,-102) scale(1,1)"><path fill="none" stroke="#000000" d="M 158 324 L 527 391" stroke-miterlimit="10"/></g><g transform="translate(-98,-102) scale(1,1)"><path fill="none" stroke="#000000" d="M 158 321 L 527 348" stroke-miterlimit="10"/></g><g transform="translate(-98,-102) scale(1,1)"><path fill="none" stroke="#000000" d="M 158 318 L 523 308" stroke-miterlimit="10"/></g><g transform="translate(-98,-102) scale(1,1)"><path fill="none" stroke="#000000" d="M 158 312 L 546 207" stroke-miterlimit="10"/></g><g transform="translate(-98,-102) scale(1,1)"><path fill="#C0C0C0" stroke="none" d="M 467 468 C 467 458.6111584 536.395856 451 622 451 C 707.604144 451 777 458.6111584 777 468 C 777 477.3888416 707.604144 485 622 485 C 536.395856 485 467 477.3888416 467 468 Z" opacity="0.2"/></g><g transform="translate(-98,-102) scale(1,1)"><path fill="#ffffff" stroke="none" d="M 460 461 C 460 451.6111584 529.395856 444 615 444 C 700.604144 444 770 451.6111584 770 461 C 770 470.3888416 700.604144 478 615 478 C 529.395856 478 460 470.3888416 460 461 Z"/></g><g transform="translate(-98,-102) scale(1,1)"><path fill="none" stroke="#000000" d="M 460 461 C 460 451.6111584 529.395856 444 615 444 C 700.604144 444 770 451.6111584 770 461 C 770 470.3888416 700.604144 478 615 478 C 529.395856 478 460 470.3888416 460 461 Z" stroke-miterlimit="10"/></g><g transform="translate(-98,-102) scale(1,1)"><g><path fill="none" stroke="none"/><text fill="#000000" stroke="none" font-family="Arial" font-size="13px" font-style="normal" font-weight="bold" text-decoration="none" x="526" y="468">Choisir périodicité de paiement</text></g></g><g transform="translate(-98,-102) scale(1,1)"><path fill="none" stroke="#000000" d="M 158 327 L 554 443" stroke-miterlimit="10"/></g><g transform="translate(-98,-102) scale(1,1)"><path fill="#C0C0C0" stroke="none" d="M 523 540 C 523 530.6111584 560.3842192 523 606.5 523 C 652.6157808 523 690 530.6111584 690 540 C 690 549.3888416 652.6157808 557 606.5 557 C 560.3842192 557 523 549.3888416 523 540 Z" opacity="0.2"/></g><g transform="translate(-98,-102) scale(1,1)"><path fill="#ffffff" stroke="none" d="M 516 533 C 516 523.6111584 553.3842192 516 599.5 516 C 645.6157808 516 683 523.6111584 683 533 C 683 542.3888416 645.6157808 550 599.5 550 C 553.3842192 550 516 542.3888416 516 533 Z"/></g><g transform="translate(-98,-102) scale(1,1)"><path fill="none" stroke="#000000" d="M 516 533 C 516 523.6111584 553.3842192 516 599.5 516 C 645.6157808 516 683 523.6111584 683 533 C 683 542.3888416 645.6157808 550 599.5 550 C 553.3842192 550 516 542.3888416 516 533 Z" stroke-miterlimit="10"/></g><g transform="translate(-98,-102) scale(1,1)"><g><path fill="none" stroke="none"/><text fill="#000000" stroke="none" font-family="Arial" font-size="13px" font-style="normal" font-weight="bold" text-decoration="none" x="553.5" y="540">Création contrat</text></g></g><g transform="translate(-98,-102) scale(1,1)"><path fill="none" stroke="#000000" d="M 158 331 L 560 515" stroke-miterlimit="10"/></g><g transform="translate(-98,-102) scale(1,1)"><path fill="#C0C0C0" stroke="none" d="M 767 340 C 767 330.6111584 813.1146656 323 870 323 C 926.8853344 323 973 330.6111584 973 340 C 973 349.3888416 926.8853344 357 870 357 C 813.1146656 357 767 349.3888416 767 340 Z" opacity="0.2"/></g><g transform="translate(-98,-102) scale(1,1)"><path fill="#ffffff" stroke="none" d="M 760 333 C 760 323.6111584 806.1146656 316 863 316 C 919.8853344 316 966 323.6111584 966 333 C 966 342.3888416 919.8853344 350 863 350 C 806.1146656 350 760 342.3888416 760 333 Z"/></g><g transform="translate(-98,-102) scale(1,1)"><path fill="none" stroke="#000000" d="M 760 333 C 760 323.6111584 806.1146656 316 863 316 C 919.8853344 316 966 323.6111584 966 333 C 966 342.3888416 919.8853344 350 863 350 C 806.1146656 350 760 342.3888416 760 333 Z" stroke-miterlimit="10"/></g><g transform="translate(-98,-102) scale(1,1)"><g><path fill="none" stroke="none"/><text fill="#000000" stroke="none" font-family="Arial" font-size="13px" font-style="normal" font-weight="bold" text-decoration="none" x="805.5" y="340">Calculer tarif annuel</text></g></g><g transform="translate(-98,-102) scale(1,1)"><path fill="#C0C0C0" stroke="none" d="M 799 424 C 799 414.6111584 840.413656 407 891.5 407 C 942.586344 407 984 414.6111584 984 424 C 984 433.3888416 942.586344 441 891.5 441 C 840.413656 441 799 433.3888416 799 424 Z" opacity="0.2"/></g><g transform="translate(-98,-102) scale(1,1)"><path fill="#ffffff" stroke="none" d="M 792 417 C 792 407.6111584 833.413656 400 884.5 400 C 935.586344 400 977 407.6111584 977 417 C 977 426.3888416 935.586344 434 884.5 434 C 833.413656 434 792 426.3888416 792 417 Z"/></g><g transform="translate(-98,-102) scale(1,1)"><path fill="none" stroke="#000000" d="M 792 417 C 792 407.6111584 833.413656 400 884.5 400 C 935.586344 400 977 407.6111584 977 417 C 977 426.3888416 935.586344 434 884.5 434 C 833.413656 434 792 426.3888416 792 417 Z" stroke-miterlimit="10"/></g><g transform="translate(-98,-102) scale(1,1)"><g><path fill="none" stroke="none"/><text fill="#000000" stroke="none" font-family="Arial" font-size="13px" font-style="normal" font-weight="bold" text-decoration="none" x="832.5" y="424">Établir mensualité</text></g></g><g transform="translate(-98,-102) scale(1,1)"><path fill="#C0C0C0" stroke="none" d="M 427 608 C 427 598.6111584 515.6476096 591 625 591 C 734.3523904 591 823 598.6111584 823 608 C 823 617.3888416 734.3523904 625 625 625 C 515.6476096 625 427 617.3888416 427 608 Z" opacity="0.2"/></g><g transform="translate(-98,-102) scale(1,1)"><path fill="#ffffff" stroke="none" d="M 420 601 C 420 591.6111584 508.6476096 584 618 584 C 727.3523904 584 816 591.6111584 816 601 C 816 610.3888416 727.3523904 618 618 618 C 508.6476096 618 420 610.3888416 420 601 Z"/></g><g transform="translate(-98,-102) scale(1,1)"><path fill="none" stroke="#000000" d="M 420 601 C 420 591.6111584 508.6476096 584 618 584 C 727.3523904 584 816 591.6111584 816 601 C 816 610.3888416 727.3523904 618 618 618 C 508.6476096 618 420 610.3888416 420 601 Z" stroke-miterlimit="10"/></g><g transform="translate(-98,-102) scale(1,1)"><g><path fill="none" stroke="none"/><text fill="#000000" stroke="none" font-family="Arial" font-size="13px" font-style="normal" font-weight="bold" text-decoration="none" x="503.5" y="608">Consulter liste Contrat pour un domaine</text></g></g><g transform="translate(-98,-102) scale(1,1)"><path fill="none" stroke="#000000" d="M 158 334 L 587 583" stroke-miterlimit="10"/></g><g transform="translate(-98,-102) scale(1,1)"><path fill="none" stroke="#000000" d="M 604 551 L 613 583" stroke-miterlimit="10" stroke-dasharray="3"/></g><g transform="translate(-98,-102) scale(1,1)"><path fill="none" stroke="#000000" d="M 606.1962045072163 574.35659980723 L 613 583 L 614.300796958063 572.0771831804294" stroke-miterlimit="10"/></g><g transform="translate(-98,-102) scale(1,1)"><g><path fill="none" stroke="none"/><text fill="#000000" stroke="none" font-family="Arial" font-size="13px" font-style="normal" font-weight="normal" text-decoration="none" x="609" y="565">«include»</text></g></g><g transform="translate(-98,-102) scale(1,1)"><path fill="none" stroke="#000000" d="M 725 443 L 791 432" stroke-miterlimit="10" stroke-dasharray="3"/></g><g transform="translate(-98,-102) scale(1,1)"><path fill="none" stroke="#000000" d="M 781.6676397266908 437.8229761917047 L 791 432 L 780.2835588144249 429.5184907181093" stroke-miterlimit="10"/></g><g transform="translate(-98,-102) scale(1,1)"><g><path fill="none" stroke="none"/><text fill="#000000" stroke="none" font-family="Arial" font-size="13px" font-style="normal" font-weight="normal" text-decoration="none" x="725" y="433">«include»</text></g></g><g transform="translate(-98,-102) scale(1,1)"><path fill="none" stroke="#000000" d="M 680 347 L 759 341" stroke-miterlimit="10" stroke-dasharray="3"/></g><g transform="translate(-98,-102) scale(1,1)"><path fill="none" stroke="#000000" d="M 749.1853017412078 345.9670613131773 L 759 341 L 748.5477175687912 337.5722030430253" stroke-miterlimit="10"/></g><g transform="translate(-98,-102) scale(1,1)"><g><path fill="none" stroke="none"/><text fill="#000000" stroke="none" font-family="Arial" font-size="13px" font-style="normal" font-weight="normal" text-decoration="none" x="696" y="360">«include»</text></g></g><g transform="translate(-98,-102) scale(1,1)"><path fill="none" stroke="#000000" d="M 693 314 L 759 322" stroke-miterlimit="10" stroke-dasharray="3"/></g><g transform="translate(-98,-102) scale(1,1)"><path fill="none" stroke="#000000" d="M 748.404632324834 324.95604191919654 L 759 322 L 749.4177063811898 316.5981809542609" stroke-miterlimit="10"/></g><g transform="translate(-98,-102) scale(1,1)"><g><path fill="none" stroke="none"/><text fill="#000000" stroke="none" font-family="Arial" font-size="13px" font-style="normal" font-weight="normal" text-decoration="none" x="699" y="313">«include»</text></g></g></g></svg>