<svg version="1.1" xmlns="http://www.w3.org/2000/svg" xmlns:xlink="http://www.w3.org/1999/xlink" width="1947.357421875" height="1133"><defs/><g><g transform="translate(-118,-262) scale(1,1)"><path fill="#C0C0C0" stroke="none" d="M 591 288.5 C 591 283.2532944 595.2532944 279 600.5 279 C 605.7467056 279 610 283.2532944 610 288.5 C 610 293.7467056 605.7467056 298 600.5 298 C 595.2532944 298 591 293.7467056 591 288.5 Z" opacity="0.2"/></g><g transform="translate(-118,-262) scale(1,1)"><path fill="#000000" stroke="none" d="M 584 281.5 C 584 276.2532944 588.2532944 272 593.5 272 C 598.7467056 272 603 276.2532944 603 281.5 C 603 286.7467056 598.7467056 291 593.5 291 C 588.2532944 291 584 286.7467056 584 281.5 Z"/></g><g transform="translate(-118,-262) scale(1,1)"><path fill="#C0C0C0" stroke="none" d="M 575 1379.5 C 575 1372.59644 580.59644 1367 587.5 1367 C 594.40356 1367 600 1372.59644 600 1379.5 C 600 1386.40356 594.40356 1392 587.5 1392 C 580.59644 1392 575 1386.40356 575 1379.5 Z" opacity="0.2"/></g><g transform="translate(-118,-262) scale(1,1)"><path fill="none" stroke="#000000" d="M 568 1372.5 C 568 1365.59644 573.59644 1360 580.5 1360 C 587.40356 1360 593 1365.59644 593 1372.5 C 593 1379.40356 587.40356 1385 580.5 1385 C 573.59644 1385 568 1379.40356 568 1372.5 Z" stroke-miterlimit="10"/></g><g transform="translate(-118,-262) scale(1,1)"><path fill="#000000" stroke="none" d="M 573 1372.5 C 573 1368.357864 576.357864 1365 580.5 1365 C 584.642136 1365 588 1368.357864 588 1372.5 C 588 1376.642136 584.642136 1380 580.5 1380 C 576.357864 1380 573 1376.642136 573 1372.5 Z"/></g><g transform="translate(-118,-262) scale(1,1)"><path fill="#C0C0C0" stroke="none" d="M 185 475 L 597 475 Q 607 475 607 485 L 607 505 Q 607 515 597 515 L 185 515 Q 175 515 175 505 L 175 485 Q 175 475 185 475 Z" opacity="0.2"/></g><g transform="translate(-118,-262) scale(1,1)"><path fill="#ffffff" stroke="none" d="M 178 468 L 590 468 Q 600 468 600 478 L 600 498 Q 600 508 590 508 L 178 508 Q 168 508 168 498 L 168 478 Q 168 468 178 468 Z"/></g><g transform="translate(-118,-262) scale(1,1)"><path fill="none" stroke="#000000" d="M 178 468 L 590 468 Q 600 468 600 478 L 600 498 Q 600 508 590 508 L 178 508 Q 168 508 168 498 L 168 478 Q 168 468 178 468 Z" stroke-miterlimit="10"/></g><g transform="translate(-118,-262) scale(1,1)"><g><path fill="none" stroke="none"/><text fill="#000000" stroke="none" font-family="Arial" font-size="13px" font-style="normal" font-weight="bold" text-decoration="none" x="253" y="487.5">Consulter liste contrats souscrits par le client</text></g></g><g transform="translate(-118,-262) scale(1,1)"><path fill="#C0C0C0" stroke="none" d="M 657 479 L 868.86083984375 479 Q 878.86083984375 479 878.86083984375 489 L 878.86083984375 509 Q 878.86083984375 519 868.86083984375 519 L 657 519 Q 647 519 647 509 L 647 489 Q 647 479 657 479 Z" opacity="0.2"/></g><g transform="translate(-118,-262) scale(1,1)"><path fill="#ffffff" stroke="none" d="M 650 472 L 861.86083984375 472 Q 871.86083984375 472 871.86083984375 482 L 871.86083984375 502 Q 871.86083984375 512 861.86083984375 512 L 650 512 Q 640 512 640 502 L 640 482 Q 640 472 650 472 Z"/></g><g transform="translate(-118,-262) scale(1,1)"><path fill="none" stroke="#000000" d="M 650 472 L 861.86083984375 472 Q 871.86083984375 472 871.86083984375 482 L 871.86083984375 502 Q 871.86083984375 512 861.86083984375 512 L 650 512 Q 640 512 640 502 L 640 482 Q 640 472 650 472 Z" stroke-miterlimit="10"/></g><g transform="translate(-118,-262) scale(1,1)"><g><path fill="none" stroke="none"/><text fill="#000000" stroke="none" font-family="Arial" font-size="13px" font-style="normal" font-weight="bold" text-decoration="none" x="660.930419921875" y="491.5">Nouvelle souscription de  contrat</text></g></g><g transform="translate(-118,-262) scale(1,1)"><path fill="#C0C0C0" stroke="none" d="M 583 432 L 599.5 415 L 615 432 L 599.5 448 L 583 432" opacity="0.2"/></g><g transform="translate(-118,-262) scale(1,1)"><path fill="#ffffff" stroke="none" d="M 576 424.5 L 592 408 L 608 424.5 L 592 441 L 576 424.5"/></g><g transform="translate(-118,-262) scale(1,1)"><path fill="none" stroke="#000000" d="M 576 424.5 L 592 408 L 608 424.5 L 592 441 L 576 424.5 L 576 424.5" stroke-miterlimit="10"/></g><g transform="translate(-118,-262) scale(1,1)"><path fill="none" stroke="#000000" d="M 575 424 L 384 424 L 384 467" stroke-miterlimit="10"/></g><g transform="translate(-118,-262) scale(1,1)"><path fill="none" stroke="#000000" d="M 379.790482243984 456.83732514237585 L 384 467 L 388.209517756016 456.83732514237585" stroke-miterlimit="10"/></g><g transform="translate(-118,-262) scale(1,1)"><path fill="none" stroke="#000000" d="M 609 424 L 728 424 L 747 471" stroke-miterlimit="10"/></g><g transform="translate(-118,-262) scale(1,1)"><path fill="none" stroke="#000000" d="M 739.2884531858998 463.15576353403713 L 747 471 L 747.0938257526254 460.0004001559991" stroke-miterlimit="10"/></g><g transform="translate(-118,-262) scale(1,1)"><path fill="#C0C0C0" stroke="none" d="M 743 711.5 L 759.5 695 L 775 711.5 L 759.5 727 L 743 711.5" opacity="0.2"/></g><g transform="translate(-118,-262) scale(1,1)"><path fill="#ffffff" stroke="none" d="M 736 704 L 752 688 L 768 704 L 752 720 L 736 704"/></g><g transform="translate(-118,-262) scale(1,1)"><path fill="none" stroke="#000000" d="M 736 704 L 752 688 L 768 704 L 752 720 L 736 704 L 736 704" stroke-miterlimit="10"/></g><g transform="translate(-118,-262) scale(1,1)"><path fill="#C0C0C0" stroke="none" d="M 529 951 L 627.70361328125 951 Q 637.70361328125 951 637.70361328125 961 L 637.70361328125 981 Q 637.70361328125 991 627.70361328125 991 L 529 991 Q 519 991 519 981 L 519 961 Q 519 951 529 951 Z" opacity="0.2"/></g><g transform="translate(-118,-262) scale(1,1)"><path fill="#ffffff" stroke="none" d="M 522 944 L 620.70361328125 944 Q 630.70361328125 944 630.70361328125 954 L 630.70361328125 974 Q 630.70361328125 984 620.70361328125 984 L 522 984 Q 512 984 512 974 L 512 954 Q 512 944 522 944 Z"/></g><g transform="translate(-118,-262) scale(1,1)"><path fill="none" stroke="#000000" d="M 522 944 L 620.70361328125 944 Q 630.70361328125 944 630.70361328125 954 L 630.70361328125 974 Q 630.70361328125 984 620.70361328125 984 L 522 984 Q 512 984 512 974 L 512 954 Q 512 944 522 944 Z" stroke-miterlimit="10"/></g><g transform="translate(-118,-262) scale(1,1)"><g><path fill="none" stroke="none"/><text fill="#000000" stroke="none" font-family="Arial" font-size="13px" font-style="normal" font-weight="bold" text-decoration="none" x="524.351806640625" y="963.5">Souscrire option</text></g></g><g transform="translate(-118,-262) scale(1,1)"><path fill="#C0C0C0" stroke="none" d="M 705 951 L 810.96533203125 951 Q 820.96533203125 951 820.96533203125 961 L 820.96533203125 981 Q 820.96533203125 991 810.96533203125 991 L 705 991 Q 695 991 695 981 L 695 961 Q 695 951 705 951 Z" opacity="0.2"/></g><g transform="translate(-118,-262) scale(1,1)"><path fill="#ffffff" stroke="none" d="M 698 944 L 803.96533203125 944 Q 813.96533203125 944 813.96533203125 954 L 813.96533203125 974 Q 813.96533203125 984 803.96533203125 984 L 698 984 Q 688 984 688 974 L 688 954 Q 688 944 698 944 Z"/></g><g transform="translate(-118,-262) scale(1,1)"><path fill="none" stroke="#000000" d="M 698 944 L 803.96533203125 944 Q 813.96533203125 944 813.96533203125 954 L 813.96533203125 974 Q 813.96533203125 984 803.96533203125 984 L 698 984 Q 688 984 688 974 L 688 954 Q 688 944 698 944 Z" stroke-miterlimit="10"/></g><g transform="translate(-118,-262) scale(1,1)"><g><path fill="none" stroke="none"/><text fill="#000000" stroke="none" font-family="Arial" font-size="13px" font-style="normal" font-weight="bold" text-decoration="none" x="709.982666015625" y="963.5">Résilier option</text></g></g><g transform="translate(-118,-262) scale(1,1)"><path fill="none" stroke="#000000" d="M 740 721 L 586 943" stroke-miterlimit="10"/></g><g transform="translate(-118,-262) scale(1,1)"><path fill="none" stroke="#000000" d="M 588.3337294896907 932.2504089999225 L 586 943 L 595.251304638752 937.0490872564785" stroke-miterlimit="10"/></g><g transform="translate(-118,-262) scale(1,1)"><path fill="none" stroke="#000000" d="M 752 721 L 750 943" stroke-miterlimit="10"/></g><g transform="translate(-118,-262) scale(1,1)"><path fill="none" stroke="#000000" d="M 745.8822049746824 932.7998154855185 L 750 943 L 754.3008988536056 932.8756595745177" stroke-miterlimit="10"/></g><g transform="translate(-118,-262) scale(1,1)"><path fill="#C0C0C0" stroke="none" d="M 353 871 L 444.2451171875 871 Q 454.2451171875 871 454.2451171875 881 L 454.2451171875 901 Q 454.2451171875 911 444.2451171875 911 L 353 911 Q 343 911 343 901 L 343 881 Q 343 871 353 871 Z" opacity="0.2"/></g><g transform="translate(-118,-262) scale(1,1)"><path fill="#ffffff" stroke="none" d="M 346 864 L 437.2451171875 864 Q 447.2451171875 864 447.2451171875 874 L 447.2451171875 894 Q 447.2451171875 904 437.2451171875 904 L 346 904 Q 336 904 336 894 L 336 874 Q 336 864 346 864 Z"/></g><g transform="translate(-118,-262) scale(1,1)"><path fill="none" stroke="#000000" d="M 346 864 L 437.2451171875 864 Q 447.2451171875 864 447.2451171875 874 L 447.2451171875 894 Q 447.2451171875 904 437.2451171875 904 L 346 904 Q 336 904 336 894 L 336 874 Q 336 864 346 864 Z" stroke-miterlimit="10"/></g><g transform="translate(-118,-262) scale(1,1)"><g><path fill="none" stroke="none"/><text fill="#000000" stroke="none" font-family="Arial" font-size="13px" font-style="normal" font-weight="bold" text-decoration="none" x="348.12255859375" y="883.5">Résilier contrat</text></g></g><g transform="translate(-118,-262) scale(1,1)"><path fill="#C0C0C0" stroke="none" d="M 383 703.5 L 399.5 687 L 415 703.5 L 399.5 719 L 383 703.5" opacity="0.2"/></g><g transform="translate(-118,-262) scale(1,1)"><path fill="#ffffff" stroke="none" d="M 376 696 L 392 680 L 408 696 L 392 712 L 376 696"/></g><g transform="translate(-118,-262) scale(1,1)"><path fill="none" stroke="#000000" d="M 376 696 L 392 680 L 408 696 L 392 712 L 376 696 L 376 696" stroke-miterlimit="10"/></g><g transform="translate(-118,-262) scale(1,1)"><path fill="none" stroke="#000000" d="M 388 509 L 391 527" stroke-miterlimit="10"/></g><g transform="translate(-118,-262) scale(1,1)"><path fill="none" stroke="#000000" d="M 385.1770238082953 517.6676397266908 L 391 527 L 393.4815092818907 516.2835588144249" stroke-miterlimit="10"/></g><g transform="translate(-118,-262) scale(1,1)"><path fill="none" stroke="#000000" d="M 409 696 L 735 704" stroke-miterlimit="10"/></g><g transform="translate(-118,-262) scale(1,1)"><path fill="none" stroke="#000000" d="M 724.7371138117112 707.9589350949757 L 735 704 L 724.9436537297805 699.5424334336499" stroke-miterlimit="10"/></g><g transform="translate(-118,-262) scale(1,1)"><path fill="none" stroke="#000000" d="M 392 713 L 391 863" stroke-miterlimit="10"/></g><g transform="translate(-118,-262) scale(1,1)"><path fill="none" stroke="#000000" d="M 386.8583254458912 852.809488143972 L 391 863 L 395.2771738744812 852.8656138001626" stroke-miterlimit="10"/></g><g transform="translate(-118,-262) scale(1,1)"><path fill="#C0C0C0" stroke="none" d="M 1137 767 L 1336.47314453125 767 Q 1346.47314453125 767 1346.47314453125 777 L 1346.47314453125 797 Q 1346.47314453125 807 1336.47314453125 807 L 1137 807 Q 1127 807 1127 797 L 1127 777 Q 1127 767 1137 767 Z" opacity="0.2"/></g><g transform="translate(-118,-262) scale(1,1)"><path fill="#ffffff" stroke="none" d="M 1130 760 L 1329.47314453125 760 Q 1339.47314453125 760 1339.47314453125 770 L 1339.47314453125 790 Q 1339.47314453125 800 1329.47314453125 800 L 1130 800 Q 1120 800 1120 790 L 1120 770 Q 1120 760 1130 760 Z"/></g><g transform="translate(-118,-262) scale(1,1)"><path fill="none" stroke="#000000" d="M 1130 760 L 1329.47314453125 760 Q 1339.47314453125 760 1339.47314453125 770 L 1339.47314453125 790 Q 1339.47314453125 800 1329.47314453125 800 L 1130 800 Q 1120 800 1120 790 L 1120 770 Q 1120 760 1130 760 Z" stroke-miterlimit="10"/></g><g transform="translate(-118,-262) scale(1,1)"><g><path fill="none" stroke="none"/><text fill="#000000" stroke="none" font-family="Arial" font-size="13px" font-style="normal" font-weight="bold" text-decoration="none" x="1140.736572265625" y="779.5">Choisir périodicité de paiement</text></g></g><g transform="translate(-118,-262) scale(1,1)"><path fill="none" stroke="#000000" d="M 399 905 L 575 1359" stroke-miterlimit="10"/></g><g transform="translate(-118,-262) scale(1,1)"><path fill="none" stroke="#000000" d="M 567.4017401052846 1351.0459792197682 L 575 1359 L 575.2515609346295 1348.0028768718282" stroke-miterlimit="10"/></g><g transform="translate(-118,-262) scale(1,1)"><path fill="none" stroke="#000000" d="M 167 488 L 128 488 L 128 1232 L 567 1368" stroke-miterlimit="10"/></g><g transform="translate(-118,-262) scale(1,1)"><path fill="none" stroke="#000000" d="M 556.0468030302923 1369.013644978672 L 567 1368 L 558.5381649089132 1360.9716753851824" stroke-miterlimit="10"/></g><g transform="translate(-118,-262) scale(1,1)"><path fill="#C0C0C0" stroke="none" d="M 649 1111 L 766.2548828125 1111 Q 776.2548828125 1111 776.2548828125 1121 L 776.2548828125 1141 Q 776.2548828125 1151 766.2548828125 1151 L 649 1151 Q 639 1151 639 1141 L 639 1121 Q 639 1111 649 1111 Z" opacity="0.2"/></g><g transform="translate(-118,-262) scale(1,1)"><path fill="#ffffff" stroke="none" d="M 642 1104 L 759.2548828125 1104 Q 769.2548828125 1104 769.2548828125 1114 L 769.2548828125 1134 Q 769.2548828125 1144 759.2548828125 1144 L 642 1144 Q 632 1144 632 1134 L 632 1114 Q 632 1104 642 1104 Z"/></g><g transform="translate(-118,-262) scale(1,1)"><path fill="none" stroke="#000000" d="M 642 1104 L 759.2548828125 1104 Q 769.2548828125 1104 769.2548828125 1114 L 769.2548828125 1134 Q 769.2548828125 1144 759.2548828125 1144 L 642 1144 Q 632 1144 632 1134 L 632 1114 Q 632 1104 642 1104 Z" stroke-miterlimit="10"/></g><g transform="translate(-118,-262) scale(1,1)"><g><path fill="none" stroke="none"/><text fill="#000000" stroke="none" font-family="Arial" font-size="13px" font-style="normal" font-weight="bold" text-decoration="none" x="648.12744140625" y="1123.5">Définir tarif annuel</text></g></g><g transform="translate(-118,-262) scale(1,1)"><path fill="none" stroke="#000000" d="M 745 1103 L 864 1048 L 792 800 L 759 721" stroke-miterlimit="10"/></g><g transform="translate(-118,-262) scale(1,1)"><path fill="none" stroke="#000000" d="M 766.8014004893779 728.7548791353788 L 759 721 L 759.0328955648827 731.9999508126996" stroke-miterlimit="10"/></g><g transform="translate(-118,-262) scale(1,1)"><path fill="none" stroke="#000000" d="M 588 985 L 683 1103" stroke-miterlimit="10"/></g><g transform="translate(-118,-262) scale(1,1)"><path fill="none" stroke="#000000" d="M 673.3479819234587 1097.7237753032948 L 683 1103 L 679.9058468280467 1092.4441383038384" stroke-miterlimit="10"/></g><g transform="translate(-118,-262) scale(1,1)"><path fill="none" stroke="#000000" d="M 743 985 L 707 1103" stroke-miterlimit="10"/></g><g transform="translate(-118,-262) scale(1,1)"><path fill="none" stroke="#000000" d="M 705.939227730617 1092.0512666398113 L 707 1103 L 713.9918443394174 1094.5079971306318" stroke-miterlimit="10"/></g><g transform="translate(-118,-262) scale(1,1)"><path fill="none" stroke="#000000" d="M 769 706 L 912 720 L 1000 776 L 1119 778" stroke-miterlimit="10"/></g><g transform="translate(-118,-262) scale(1,1)"><path fill="none" stroke="#000000" d="M 1108.7680219353501 782.0381462188143 L 1119 778 L 1108.9094983507878 773.6202995002805" stroke-miterlimit="10"/></g><g transform="translate(-118,-262) scale(1,1)"><path fill="#C0C0C0" stroke="none" d="M 281 535 L 524.18017578125 535 Q 534.18017578125 535 534.18017578125 545 L 534.18017578125 565 Q 534.18017578125 575 524.18017578125 575 L 281 575 Q 271 575 271 565 L 271 545 Q 271 535 281 535 Z" opacity="0.2"/></g><g transform="translate(-118,-262) scale(1,1)"><path fill="#ffffff" stroke="none" d="M 274 528 L 517.18017578125 528 Q 527.18017578125 528 527.18017578125 538 L 527.18017578125 558 Q 527.18017578125 568 517.18017578125 568 L 274 568 Q 264 568 264 558 L 264 538 Q 264 528 274 528 Z"/></g><g transform="translate(-118,-262) scale(1,1)"><path fill="none" stroke="#000000" d="M 274 528 L 517.18017578125 528 Q 527.18017578125 528 527.18017578125 538 L 527.18017578125 558 Q 527.18017578125 568 517.18017578125 568 L 274 568 Q 264 568 264 558 L 264 538 Q 264 528 274 528 Z" stroke-miterlimit="10"/></g><g transform="translate(-118,-262) scale(1,1)"><g><path fill="none" stroke="none"/><text fill="#000000" stroke="none" font-family="Arial" font-size="13px" font-style="normal" font-weight="bold" text-decoration="none" x="288.590087890625" y="547.5">Consulter la souscription d'un contrat</text></g></g><g transform="translate(-118,-262) scale(1,1)"><path fill="none" stroke="#000000" d="M 395 569 L 392 679" stroke-miterlimit="10"/></g><g transform="translate(-118,-262) scale(1,1)"><path fill="none" stroke="#000000" d="M 388.0691077340795 668.7263401850302 L 392 679 L 396.4850139454228 668.955864899885" stroke-miterlimit="10"/></g><g transform="translate(-118,-262) scale(1,1)"><path fill="#C0C0C0" stroke="none" d="M 913 1103 L 1142.1328125 1103 Q 1152.1328125 1103 1152.1328125 1113 L 1152.1328125 1133 Q 1152.1328125 1143 1142.1328125 1143 L 913 1143 Q 903 1143 903 1133 L 903 1113 Q 903 1103 913 1103 Z" opacity="0.2"/></g><g transform="translate(-118,-262) scale(1,1)"><path fill="#ffffff" stroke="none" d="M 906 1096 L 1135.1328125 1096 Q 1145.1328125 1096 1145.1328125 1106 L 1145.1328125 1126 Q 1145.1328125 1136 1135.1328125 1136 L 906 1136 Q 896 1136 896 1126 L 896 1106 Q 896 1096 906 1096 Z"/></g><g transform="translate(-118,-262) scale(1,1)"><path fill="none" stroke="#000000" d="M 906 1096 L 1135.1328125 1096 Q 1145.1328125 1096 1145.1328125 1106 L 1145.1328125 1126 Q 1145.1328125 1136 1135.1328125 1136 L 906 1136 Q 896 1136 896 1126 L 896 1106 Q 896 1096 906 1096 Z" stroke-miterlimit="10"/></g><g transform="translate(-118,-262) scale(1,1)"><g><path fill="none" stroke="none"/><text fill="#000000" stroke="none" font-family="Arial" font-size="13px" font-style="normal" font-weight="bold" text-decoration="none" x="918.56640625" y="1115.5">Valider les modifications du contrat</text></g></g><g transform="translate(-118,-262) scale(1,1)"><path fill="none" stroke="#000000" d="M 1123 985 L 1036 1095" stroke-miterlimit="10"/></g><g transform="translate(-118,-262) scale(1,1)"><path fill="none" stroke="#000000" d="M 1039.0026177052196 1084.4177371552062 L 1036 1095 L 1045.6059611585238 1089.6403815228196" stroke-miterlimit="10"/></g><g transform="translate(-118,-262) scale(1,1)"><path fill="#C0C0C0" stroke="none" d="M 1127 975.5 L 1143.5 959 L 1159 975.5 L 1143.5 991 L 1127 975.5" opacity="0.2"/></g><g transform="translate(-118,-262) scale(1,1)"><path fill="#ffffff" stroke="none" d="M 1120 968 L 1136 952 L 1152 968 L 1136 984 L 1120 968"/></g><g transform="translate(-118,-262) scale(1,1)"><path fill="none" stroke="#000000" d="M 1120 968 L 1136 952 L 1152 968 L 1136 984 L 1120 968 L 1120 968" stroke-miterlimit="10"/></g><g transform="translate(-118,-262) scale(1,1)"><path fill="#C0C0C0" stroke="none" d="M 1209 1103 L 1443.75048828125 1103 Q 1453.75048828125 1103 1453.75048828125 1113 L 1453.75048828125 1133 Q 1453.75048828125 1143 1443.75048828125 1143 L 1209 1143 Q 1199 1143 1199 1133 L 1199 1113 Q 1199 1103 1209 1103 Z" opacity="0.2"/></g><g transform="translate(-118,-262) scale(1,1)"><path fill="#ffffff" stroke="none" d="M 1202 1096 L 1436.75048828125 1096 Q 1446.75048828125 1096 1446.75048828125 1106 L 1446.75048828125 1126 Q 1446.75048828125 1136 1436.75048828125 1136 L 1202 1136 Q 1192 1136 1192 1126 L 1192 1106 Q 1192 1096 1202 1096 Z"/></g><g transform="translate(-118,-262) scale(1,1)"><path fill="none" stroke="#000000" d="M 1202 1096 L 1436.75048828125 1096 Q 1446.75048828125 1096 1446.75048828125 1106 L 1446.75048828125 1126 Q 1446.75048828125 1136 1436.75048828125 1136 L 1202 1136 Q 1192 1136 1192 1126 L 1192 1106 Q 1192 1096 1202 1096 Z" stroke-miterlimit="10"/></g><g transform="translate(-118,-262) scale(1,1)"><g><path fill="none" stroke="none"/><text fill="#000000" stroke="none" font-family="Arial" font-size="13px" font-style="normal" font-weight="bold" text-decoration="none" x="1215.375244140625" y="1115.5">Annuler les modifications du contrat</text></g></g><g transform="translate(-118,-262) scale(1,1)"><path fill="none" stroke="#000000" d="M 1153 982 L 1293 1095" stroke-miterlimit="10"/></g><g transform="translate(-118,-262) scale(1,1)"><path fill="none" stroke="#000000" d="M 1282.4480064008897 1091.8926810456062 L 1293 1095 L 1287.7358200749934 1085.3414074670707" stroke-miterlimit="10"/></g><g transform="translate(-118,-262) scale(1,1)"><path fill="#C0C0C0" stroke="none" d="M 1505 1103 L 1718.73974609375 1103 Q 1728.73974609375 1103 1728.73974609375 1113 L 1728.73974609375 1133 Q 1728.73974609375 1143 1718.73974609375 1143 L 1505 1143 Q 1495 1143 1495 1133 L 1495 1113 Q 1495 1103 1505 1103 Z" opacity="0.2"/></g><g transform="translate(-118,-262) scale(1,1)"><path fill="#ffffff" stroke="none" d="M 1498 1096 L 1711.73974609375 1096 Q 1721.73974609375 1096 1721.73974609375 1106 L 1721.73974609375 1126 Q 1721.73974609375 1136 1711.73974609375 1136 L 1498 1136 Q 1488 1136 1488 1126 L 1488 1106 Q 1488 1096 1498 1096 Z"/></g><g transform="translate(-118,-262) scale(1,1)"><path fill="none" stroke="#000000" d="M 1498 1096 L 1711.73974609375 1096 Q 1721.73974609375 1096 1721.73974609375 1106 L 1721.73974609375 1126 Q 1721.73974609375 1136 1711.73974609375 1136 L 1498 1136 Q 1488 1136 1488 1126 L 1488 1106 Q 1488 1096 1498 1096 Z" stroke-miterlimit="10"/></g><g transform="translate(-118,-262) scale(1,1)"><g><path fill="none" stroke="none"/><text fill="#000000" stroke="none" font-family="Arial" font-size="13px" font-style="normal" font-weight="bold" text-decoration="none" x="1509.869873046875" y="1115.5">Valider la souscription du contrat</text></g></g><g transform="translate(-118,-262) scale(1,1)"><path fill="#C0C0C0" stroke="none" d="M 1311 911.5 L 1327.5 895 L 1343 911.5 L 1327.5 927 L 1311 911.5" opacity="0.2"/></g><g transform="translate(-118,-262) scale(1,1)"><path fill="#ffffff" stroke="none" d="M 1304 904 L 1320 888 L 1336 904 L 1320 920 L 1304 904"/></g><g transform="translate(-118,-262) scale(1,1)"><path fill="none" stroke="#000000" d="M 1304 904 L 1320 888 L 1336 904 L 1320 920 L 1304 904 L 1304 904" stroke-miterlimit="10"/></g><g transform="translate(-118,-262) scale(1,1)"><path fill="none" stroke="#000000" d="M 1303 910 L 1153 962" stroke-miterlimit="10"/></g><g transform="translate(-118,-262) scale(1,1)"><path fill="none" stroke="#000000" d="M 1161.2232640976315 954.6939800451543 L 1153 962 L 1163.9808620604788 962.6485895533675" stroke-miterlimit="10"/></g><g transform="translate(-118,-262) scale(1,1)"><g><path fill="none" stroke="none"/><text fill="#000000" stroke="none" font-family="Arial" font-size="13px" font-style="normal" font-weight="normal" text-decoration="none" x="1264" y="909">Sinon</text></g></g><g transform="translate(-118,-262) scale(1,1)"><path fill="none" stroke="#000000" d="M 1337 908 L 1591 964" stroke-miterlimit="10"/></g><g transform="translate(-118,-262) scale(1,1)"><path fill="none" stroke="#000000" d="M 1580.1693478801417 965.9227518453014 L 1591 964 L 1581.9819815730243 957.7011633097273" stroke-miterlimit="10"/></g><g transform="translate(-118,-262) scale(1,1)"><g><path fill="none" stroke="none"/><text fill="#000000" stroke="none" font-family="Arial" font-size="13px" font-style="normal" font-weight="normal" text-decoration="none" x="1327" y="892">Si création contrat</text></g></g><g transform="translate(-118,-262) scale(1,1)"><path fill="none" stroke="#000000" d="M 1244 801 L 1308 887" stroke-miterlimit="10"/></g><g transform="translate(-118,-262) scale(1,1)"><path fill="none" stroke="#000000" d="M 1298.5557586754799 881.3602920461938 L 1308 887 L 1305.3097886543176 876.3340371782215" stroke-miterlimit="10"/></g><g transform="translate(-118,-262) scale(1,1)"><path fill="none" stroke="#000000" d="M 1281 1137 L 1168 1200 L 594 1368" stroke-miterlimit="10"/></g><g transform="translate(-118,-262) scale(1,1)"><path fill="none" stroke="#000000" d="M 602.5710509265886 1361.1052856466838 L 594 1368 L 604.9359475056601 1369.185348958512" stroke-miterlimit="10"/></g><g transform="translate(-118,-262) scale(1,1)"><path fill="none" stroke="#000000" d="M 1563 1137 L 1408 1216 L 594 1369" stroke-miterlimit="10"/></g><g transform="translate(-118,-262) scale(1,1)"><path fill="none" stroke="#000000" d="M 603.210169085314 1362.9856184507528 L 594 1369 L 604.7653829942162 1371.2597630379842" stroke-miterlimit="10"/></g><g transform="translate(-118,-262) scale(1,1)"><path fill="none" stroke="#000000" d="M 984 1137 L 594 1364" stroke-miterlimit="10"/></g><g transform="translate(-118,-262) scale(1,1)"><path fill="none" stroke="#000000" d="M 600.6656280580091 1355.249605575045 L 594 1364 L 604.9007740366281 1362.525847564743" stroke-miterlimit="10"/></g><g transform="translate(-118,-262) scale(1,1)"><path fill="#C0C0C0" stroke="none" d="M 537 351 L 670.00634765625 351 Q 680.00634765625 351 680.00634765625 361 L 680.00634765625 381 Q 680.00634765625 391 670.00634765625 391 L 537 391 Q 527 391 527 381 L 527 361 Q 527 351 537 351 Z" opacity="0.2"/></g><g transform="translate(-118,-262) scale(1,1)"><path fill="#ffffff" stroke="none" d="M 530 344 L 663.00634765625 344 Q 673.00634765625 344 673.00634765625 354 L 673.00634765625 374 Q 673.00634765625 384 663.00634765625 384 L 530 384 Q 520 384 520 374 L 520 354 Q 520 344 530 344 Z"/></g><g transform="translate(-118,-262) scale(1,1)"><path fill="none" stroke="#000000" d="M 530 344 L 663.00634765625 344 Q 673.00634765625 344 673.00634765625 354 L 673.00634765625 374 Q 673.00634765625 384 663.00634765625 384 L 530 384 Q 520 384 520 374 L 520 354 Q 520 344 530 344 Z" stroke-miterlimit="10"/></g><g transform="translate(-118,-262) scale(1,1)"><g><path fill="none" stroke="none"/><text fill="#000000" stroke="none" font-family="Arial" font-size="13px" font-style="normal" font-weight="bold" text-decoration="none" x="534.003173828125" y="363.5">Sélectionner domaine</text></g></g><g transform="translate(-118,-262) scale(1,1)"><path fill="none" stroke="#000000" d="M 593 292 L 595 343" stroke-miterlimit="10"/></g><g transform="translate(-118,-262) scale(1,1)"><path fill="none" stroke="#000000" d="M 590.3954851875804 333.0100829161495 L 595 343 L 598.8080544655463 332.6801782385822" stroke-miterlimit="10"/></g><g transform="translate(-118,-262) scale(1,1)"><path fill="none" stroke="#000000" d="M 595 385 L 593 407" stroke-miterlimit="10"/></g><g transform="translate(-118,-262) scale(1,1)"><path fill="none" stroke="#000000" d="M 589.727855214301 396.49794931923185 L 593 407 L 598.112315485744 397.2601729802721" stroke-miterlimit="10"/></g><g transform="translate(-118,-262) scale(1,1)"><path fill="#C0C0C0" stroke="none" d="M 673 543 L 847.23486328125 543 Q 857.23486328125 543 857.23486328125 553 L 857.23486328125 573 Q 857.23486328125 583 847.23486328125 583 L 673 583 Q 663 583 663 573 L 663 553 Q 663 543 673 543 Z" opacity="0.2"/></g><g transform="translate(-118,-262) scale(1,1)"><path fill="#ffffff" stroke="none" d="M 666 536 L 840.23486328125 536 Q 850.23486328125 536 850.23486328125 546 L 850.23486328125 566 Q 850.23486328125 576 840.23486328125 576 L 666 576 Q 656 576 656 566 L 656 546 Q 656 536 666 536 Z"/></g><g transform="translate(-118,-262) scale(1,1)"><path fill="none" stroke="#000000" d="M 666 536 L 840.23486328125 536 Q 850.23486328125 536 850.23486328125 546 L 850.23486328125 566 Q 850.23486328125 576 840.23486328125 576 L 666 576 Q 656 576 656 566 L 656 546 Q 656 536 666 536 Z" stroke-miterlimit="10"/></g><g transform="translate(-118,-262) scale(1,1)"><g><path fill="none" stroke="none"/><text fill="#000000" stroke="none" font-family="Arial" font-size="13px" font-style="normal" font-weight="bold" text-decoration="none" x="673.617431640625" y="555.5">Consulter liste des contrats</text></g></g><g transform="translate(-118,-262) scale(1,1)"><path fill="none" stroke="#000000" d="M 754 513 L 754 535" stroke-miterlimit="10"/></g><g transform="translate(-118,-262) scale(1,1)"><path fill="none" stroke="#000000" d="M 749.790482243984 524.8373251423759 L 754 535 L 758.209517756016 524.8373251423759" stroke-miterlimit="10"/></g><g transform="translate(-118,-262) scale(1,1)"><path fill="#C0C0C0" stroke="none" d="M 689 615 L 833.63232421875 615 Q 843.63232421875 615 843.63232421875 625 L 843.63232421875 645 Q 843.63232421875 655 833.63232421875 655 L 689 655 Q 679 655 679 645 L 679 625 Q 679 615 689 615 Z" opacity="0.2"/></g><g transform="translate(-118,-262) scale(1,1)"><path fill="#ffffff" stroke="none" d="M 682 608 L 826.63232421875 608 Q 836.63232421875 608 836.63232421875 618 L 836.63232421875 638 Q 836.63232421875 648 826.63232421875 648 L 682 648 Q 672 648 672 638 L 672 618 Q 672 608 682 608 Z"/></g><g transform="translate(-118,-262) scale(1,1)"><path fill="none" stroke="#000000" d="M 682 608 L 826.63232421875 608 Q 836.63232421875 608 836.63232421875 618 L 836.63232421875 638 Q 836.63232421875 648 826.63232421875 648 L 682 648 Q 672 648 672 638 L 672 618 Q 672 608 682 608 Z" stroke-miterlimit="10"/></g><g transform="translate(-118,-262) scale(1,1)"><g><path fill="none" stroke="none"/><text fill="#000000" stroke="none" font-family="Arial" font-size="13px" font-style="normal" font-weight="bold" text-decoration="none" x="687.316162109375" y="627.5">Sélectionner un contrat</text></g></g><g transform="translate(-118,-262) scale(1,1)"><path fill="none" stroke="#000000" d="M 753 577 L 754 607" stroke-miterlimit="10"/></g><g transform="translate(-118,-262) scale(1,1)"><path fill="none" stroke="#000000" d="M 749.4542511303202 596.9832057416654 L 754 607 L 757.8686132944972 596.7027270028594" stroke-miterlimit="10"/></g><g transform="translate(-118,-262) scale(1,1)"><path fill="none" stroke="#000000" d="M 753 649 L 752 687" stroke-miterlimit="10"/></g><g transform="translate(-118,-262) scale(1,1)"><path fill="none" stroke="#000000" d="M 748.0592853332588 676.7301038021151 L 752 687 L 756.4754071800323 676.9515806928197" stroke-miterlimit="10"/></g><g transform="translate(-118,-262) scale(1,1)"><path fill="none" stroke="#000000" d="M 1230 759 L 1232 680 L 968 672 L 769 701" stroke-miterlimit="10"/></g><g transform="translate(-118,-262) scale(1,1)"><path fill="none" stroke="#000000" d="M 778.4494168141124 695.3689679566558 L 769 701 L 779.6634876504445 703.7000057645897" stroke-miterlimit="10"/></g><g transform="translate(-118,-262) scale(1,1)"><path fill="#C0C0C0" stroke="none" d="M 1833 1103 L 2052.357421875 1103 Q 2062.357421875 1103 2062.357421875 1113 L 2062.357421875 1133 Q 2062.357421875 1143 2052.357421875 1143 L 1833 1143 Q 1823 1143 1823 1133 L 1823 1113 Q 1823 1103 1833 1103 Z" opacity="0.2"/></g><g transform="translate(-118,-262) scale(1,1)"><path fill="#ffffff" stroke="none" d="M 1826 1096 L 2045.357421875 1096 Q 2055.357421875 1096 2055.357421875 1106 L 2055.357421875 1126 Q 2055.357421875 1136 2045.357421875 1136 L 1826 1136 Q 1816 1136 1816 1126 L 1816 1106 Q 1816 1096 1826 1096 Z"/></g><g transform="translate(-118,-262) scale(1,1)"><path fill="none" stroke="#000000" d="M 1826 1096 L 2045.357421875 1096 Q 2055.357421875 1096 2055.357421875 1106 L 2055.357421875 1126 Q 2055.357421875 1136 2045.357421875 1136 L 1826 1136 Q 1816 1136 1816 1126 L 1816 1106 Q 1816 1096 1826 1096 Z" stroke-miterlimit="10"/></g><g transform="translate(-118,-262) scale(1,1)"><g><path fill="none" stroke="none"/><text fill="#000000" stroke="none" font-family="Arial" font-size="13px" font-style="normal" font-weight="bold" text-decoration="none" x="1838.6787109375" y="1115.5">Annuler la souscription du contrat</text></g></g><g transform="translate(-118,-262) scale(1,1)"><path fill="#C0C0C0" stroke="none" d="M 1599 975.5 L 1615.5 959 L 1631 975.5 L 1615.5 991 L 1599 975.5" opacity="0.2"/></g><g transform="translate(-118,-262) scale(1,1)"><path fill="#ffffff" stroke="none" d="M 1592 968 L 1608 952 L 1624 968 L 1608 984 L 1592 968"/></g><g transform="translate(-118,-262) scale(1,1)"><path fill="none" stroke="#000000" d="M 1592 968 L 1608 952 L 1624 968 L 1608 984 L 1592 968 L 1592 968" stroke-miterlimit="10"/></g><g transform="translate(-118,-262) scale(1,1)"><path fill="none" stroke="#000000" d="M 1608 985 L 1605 1095" stroke-miterlimit="10"/></g><g transform="translate(-118,-262) scale(1,1)"><path fill="none" stroke="#000000" d="M 1601.0691077340796 1084.72634018503 L 1605 1095 L 1609.485013945423 1084.955864899885" stroke-miterlimit="10"/></g><g transform="translate(-118,-262) scale(1,1)"><path fill="none" stroke="#000000" d="M 1625 976 L 1889 1095" stroke-miterlimit="10"/></g><g transform="translate(-118,-262) scale(1,1)"><path fill="none" stroke="#000000" d="M 1878.0052119146499 1094.6614221533528 L 1889 1095 L 1881.4649214784636 1086.9861000958158" stroke-miterlimit="10"/></g><g transform="translate(-118,-262) scale(1,1)"><path fill="none" stroke="#000000" d="M 1862 1137 L 1417 1264 L 594 1370" stroke-miterlimit="10"/></g><g transform="translate(-118,-262) scale(1,1)"><path fill="none" stroke="#000000" d="M 603.5416847479472 1364.5267694940928 L 594 1370 L 604.6171483949418 1372.8768315834936" stroke-miterlimit="10"/></g><g transform="translate(-118,-262) scale(1,1)"><path fill="#C0C0C0" stroke="none" d="M 1039 871.5 L 1055.5 855 L 1071 871.5 L 1055.5 887 L 1039 871.5" opacity="0.2"/></g><g transform="translate(-118,-262) scale(1,1)"><path fill="#ffffff" stroke="none" d="M 1032 864 L 1048 848 L 1064 864 L 1048 880 L 1032 864"/></g><g transform="translate(-118,-262) scale(1,1)"><path fill="none" stroke="#000000" d="M 1032 864 L 1048 848 L 1064 864 L 1048 880 L 1032 864 L 1032 864" stroke-miterlimit="10"/></g><g transform="translate(-118,-262) scale(1,1)"><path fill="none" stroke="#000000" d="M 767 721 L 888 856 L 1031 863" stroke-miterlimit="10"/></g><g transform="translate(-118,-262) scale(1,1)"><path fill="none" stroke="#000000" d="M 1020.6436653599582 866.7076047285908 L 1031 863 L 1021.0552931022434 858.2986379933351" stroke-miterlimit="10"/></g><g transform="translate(-118,-262) scale(1,1)"><path fill="none" stroke="#000000" d="M 1062 881 L 1122 951" stroke-miterlimit="10"/></g><g transform="translate(-118,-262) scale(1,1)"><path fill="none" stroke="#000000" d="M 1112.1901147223912 946.023439858682 L 1122 951 L 1118.5823230204494 940.5444041746322" stroke-miterlimit="10"/></g><g transform="translate(-118,-262) scale(1,1)"><path fill="none" stroke="#000000" d="M 1065 864 L 1088 864 L 1088 824 L 769 710" stroke-miterlimit="10"/></g><g transform="translate(-118,-262) scale(1,1)"><path fill="none" stroke="#000000" d="M 779.9865391253559 709.4559797365687 L 769 710 L 777.1533367346857 717.3839758999353" stroke-miterlimit="10"/></g><g transform="translate(-118,-262) scale(1,1)"><g><path fill="none" stroke="none"/><text fill="#000000" stroke="none" font-family="Arial" font-size="13px" font-style="normal" font-weight="normal" text-decoration="none" x="973" y="834">Si création contrat</text></g></g><g transform="translate(-118,-262) scale(1,1)"><g><path fill="none" stroke="none"/><text fill="#000000" stroke="none" font-family="Arial" font-size="13px" font-style="normal" font-weight="normal" text-decoration="none" x="1077" y="890">sinon</text></g></g></g></svg>