<svg version="1.1" xmlns="http://www.w3.org/2000/svg" xmlns:xlink="http://www.w3.org/1999/xlink" width="2692" height="1388"><defs/><g><g transform="translate(-182,2) scale(1,1)"><path fill="none" stroke="#000000" d="M 192 8 L 2864 8 L 2864 1376 L 192 1376 L 192 8" stroke-miterlimit="10"/></g><g transform="translate(-182,2) scale(1,1)"><path fill="#ffffff" stroke="none" d="M 192 8 L 192 30 L 494 30 L 505 19 L 505 8 L 192 8"/></g><g transform="translate(-182,2) scale(1,1)"><path fill="none" stroke="#000000" d="M 192 8 L 192 30 L 494 30 L 505 19 L 505 8 L 192 8 L 192 8" stroke-miterlimit="10"/></g><g transform="translate(-182,2) scale(1,1)"><g><path fill="none" stroke="none"/><text fill="#000000" stroke="none" font-family="Arial" font-size="13px" font-style="normal" font-weight="normal" text-decoration="none" x="263" y="25.5">CU4 - Diagramme de séquence détaillé</text></g></g><g transform="translate(-182,2) scale(1,1)"><g><path fill="none" stroke="none"/><text fill="#000000" stroke="none" font-family="Arial" font-size="13px" font-style="normal" font-weight="bold" text-decoration="none" x="197" y="25.5">interaction</text></g></g><g transform="translate(-182,2) scale(1,1)"><rect fill="#C0C0C0" stroke="none" x="215" y="47" width="72" height="39" opacity="0.2"/></g><g transform="translate(-182,2) scale(1,1)"><rect fill="#ffffff" stroke="none" x="208" y="40" width="72" height="39"/></g><g transform="translate(-182,2) scale(1,1)"><path fill="none" stroke="#000000" d="M 208 40 L 280 40 L 280 79 L 208 79 L 208 40 Z Z" stroke-miterlimit="10"/></g><g transform="translate(-182,2) scale(1,1)"><g><path fill="none" stroke="none"/><text fill="#000000" stroke="none" font-family="Arial" font-size="13px" font-style="normal" font-weight="bold" text-decoration="none" x="225" y="59.5">Acteur</text></g></g><g transform="translate(-182,2) scale(1,1)"><path fill="none" stroke="#000000" d="M 245.5 80 L 245.5 1360" stroke-miterlimit="10" stroke-dasharray="3"/></g><g transform="translate(-182,2) scale(1,1)"><rect fill="#C0C0C0" stroke="none" x="575" y="47" width="72" height="39" opacity="0.2"/></g><g transform="translate(-182,2) scale(1,1)"><rect fill="#ffffff" stroke="none" x="568" y="40" width="72" height="39"/></g><g transform="translate(-182,2) scale(1,1)"><path fill="none" stroke="#000000" d="M 568 40 L 640 40 L 640 79 L 568 79 L 568 40 Z Z" stroke-miterlimit="10"/></g><g transform="translate(-182,2) scale(1,1)"><g><path fill="none" stroke="none"/><text fill="#000000" stroke="none" font-family="Arial" font-size="13px" font-style="normal" font-weight="bold" text-decoration="none" x="592" y="59.5">IHM</text></g></g><g transform="translate(-182,2) scale(1,1)"><path fill="none" stroke="#000000" d="M 605.5 80 L 605.5 1366" stroke-miterlimit="10" stroke-dasharray="3"/></g><g transform="translate(-182,2) scale(1,1)"><rect fill="#C0C0C0" stroke="none" x="1679" y="47" width="74.4658203125" height="39" opacity="0.2"/></g><g transform="translate(-182,2) scale(1,1)"><rect fill="#ffffff" stroke="none" x="1672" y="40" width="74.4658203125" height="39"/></g><g transform="translate(-182,2) scale(1,1)"><path fill="none" stroke="#000000" d="M 1672 40 L 1746.4658203125 40 L 1746.4658203125 79 L 1672 79 L 1672 40 Z Z" stroke-miterlimit="10"/></g><g transform="translate(-182,2) scale(1,1)"><g><path fill="none" stroke="none"/><text fill="#000000" stroke="none" font-family="Arial" font-size="13px" font-style="normal" font-weight="bold" text-decoration="none" x="1683.23291015625" y="59.5">Système</text></g></g><g transform="translate(-182,2) scale(1,1)"><path fill="none" stroke="#000000" d="M 1710.5 80 L 1710.5 1366" stroke-miterlimit="10" stroke-dasharray="3"/></g><g transform="translate(-182,2) scale(1,1)"><rect fill="#C0C0C0" stroke="none" x="2055" y="47" width="72" height="39" opacity="0.2"/></g><g transform="translate(-182,2) scale(1,1)"><rect fill="#ffffff" stroke="none" x="2048" y="40" width="72" height="39"/></g><g transform="translate(-182,2) scale(1,1)"><path fill="none" stroke="#000000" d="M 2048 40 L 2120 40 L 2120 79 L 2048 79 L 2048 40 Z Z" stroke-miterlimit="10"/></g><g transform="translate(-182,2) scale(1,1)"><g><path fill="none" stroke="none"/><text fill="#000000" stroke="none" font-family="Arial" font-size="13px" font-style="normal" font-weight="bold" text-decoration="none" x="2067.5" y="59.5">Client</text></g></g><g transform="translate(-182,2) scale(1,1)"><path fill="none" stroke="#000000" d="M 2085.5 80 L 2085.5 1360" stroke-miterlimit="10" stroke-dasharray="3"/></g><g transform="translate(-182,2) scale(1,1)"><rect fill="#C0C0C0" stroke="none" x="2551" y="47" width="72" height="39" opacity="0.2"/></g><g transform="translate(-182,2) scale(1,1)"><rect fill="#ffffff" stroke="none" x="2544" y="40" width="72" height="39"/></g><g transform="translate(-182,2) scale(1,1)"><path fill="none" stroke="#000000" d="M 2544 40 L 2616 40 L 2616 79 L 2544 79 L 2544 40 Z Z" stroke-miterlimit="10"/></g><g transform="translate(-182,2) scale(1,1)"><g><path fill="none" stroke="none"/><text fill="#000000" stroke="none" font-family="Arial" font-size="13px" font-style="normal" font-weight="bold" text-decoration="none" x="2559" y="59.5">Contrat</text></g></g><g transform="translate(-182,2) scale(1,1)"><path fill="none" stroke="#000000" d="M 2581.5 80 L 2581.5 1360" stroke-miterlimit="10" stroke-dasharray="3"/></g><g transform="translate(-182,2) scale(1,1)"><rect fill="#C0C0C0" stroke="none" x="2767" y="47" width="80.39453125" height="39" opacity="0.2"/></g><g transform="translate(-182,2) scale(1,1)"><rect fill="#ffffff" stroke="none" x="2760" y="40" width="80.39453125" height="39"/></g><g transform="translate(-182,2) scale(1,1)"><path fill="none" stroke="#000000" d="M 2760 40 L 2840.39453125 40 L 2840.39453125 79 L 2760 79 L 2760 40 Z Z" stroke-miterlimit="10"/></g><g transform="translate(-182,2) scale(1,1)"><g><path fill="none" stroke="none"/><text fill="#000000" stroke="none" font-family="Arial" font-size="13px" font-style="normal" font-weight="bold" text-decoration="none" x="2773.697265625" y="59.5">Structure</text></g></g><g transform="translate(-182,2) scale(1,1)"><path fill="none" stroke="#000000" d="M 2801.5 80 L 2801.5 1368" stroke-miterlimit="10" stroke-dasharray="3"/></g><g transform="translate(-182,2) scale(1,1)"><path fill="none" stroke="#000000" d="M 245 104 L 598 104" stroke-miterlimit="10"/></g><g transform="translate(-182,2) scale(1,1)"><path fill="#000000" stroke="none" d="M 587.8373251423759 108.20951775601598 L 598 104 L 587.8373251423758 99.79048224398402"/></g><g transform="translate(-182,2) scale(1,1)"><path fill="none" stroke="#000000" d="M 587.8373251423759 108.20951775601598 L 598 104 L 587.8373251423758 99.79048224398402 L 587.8373251423759 108.20951775601598" stroke-miterlimit="10"/></g><g transform="translate(-182,2) scale(1,1)"><g><path fill="none" stroke="none"/><text fill="#000000" stroke="none" font-family="Arial" font-size="13px" font-style="normal" font-weight="normal" text-decoration="none" x="266" y="101">1 : consulterFenetreVisualisationSouscriptionsContrat</text></g></g><g transform="translate(-182,2) scale(1,1)"><rect fill="#ffffff" stroke="none" x="598" y="104" width="13" height="64"/></g><g transform="translate(-182,2) scale(1,1)"><path fill="none" stroke="#000000" d="M 598 104 L 611 104 L 611 168 L 598 168 L 598 104 Z Z" stroke-miterlimit="10"/></g><g transform="translate(-182,2) scale(1,1)"><path fill="none" stroke="#000000" d="M 611 112 L 1703 112" stroke-miterlimit="10"/></g><g transform="translate(-182,2) scale(1,1)"><path fill="#000000" stroke="none" d="M 1692.837325142376 116.20951775601598 L 1703 112 L 1692.837325142376 107.79048224398402"/></g><g transform="translate(-182,2) scale(1,1)"><path fill="none" stroke="#000000" d="M 1692.837325142376 116.20951775601598 L 1703 112 L 1692.837325142376 107.79048224398402 L 1692.837325142376 116.20951775601598" stroke-miterlimit="10"/></g><g transform="translate(-182,2) scale(1,1)"><g><path fill="none" stroke="none"/><text fill="#000000" stroke="none" font-family="Arial" font-size="13px" font-style="normal" font-weight="normal" text-decoration="none" x="1028" y="109">2 : SM4.1 : rechercherClient(idClient) : Client</text></g></g><g transform="translate(-182,2) scale(1,1)"><rect fill="#ffffff" stroke="none" x="1703" y="112" width="13" height="28"/></g><g transform="translate(-182,2) scale(1,1)"><path fill="none" stroke="#000000" d="M 1703 112 L 1716 112 L 1716 140 L 1703 140 L 1703 112 Z Z" stroke-miterlimit="10"/></g><g transform="translate(-182,2) scale(1,1)"><path fill="none" stroke="#000000" d="M 1716 128 L 2078 128" stroke-miterlimit="10"/></g><g transform="translate(-182,2) scale(1,1)"><path fill="#000000" stroke="none" d="M 2067.837325142376 132.209517756016 L 2078 128 L 2067.837325142376 123.79048224398402"/></g><g transform="translate(-182,2) scale(1,1)"><path fill="none" stroke="#000000" d="M 2067.837325142376 132.209517756016 L 2078 128 L 2067.837325142376 123.79048224398402 L 2067.837325142376 132.209517756016" stroke-miterlimit="10"/></g><g transform="translate(-182,2) scale(1,1)"><g><path fill="none" stroke="none"/><text fill="#000000" stroke="none" font-family="Arial" font-size="13px" font-style="normal" font-weight="normal" text-decoration="none" x="1763" y="125">3 : SOM4.1 : rechercherClient(idClient) : Client</text></g></g><g transform="translate(-182,2) scale(1,1)"><rect fill="#ffffff" stroke="none" x="2078" y="128" width="13" height="28"/></g><g transform="translate(-182,2) scale(1,1)"><path fill="none" stroke="#000000" d="M 2078 128 L 2091 128 L 2091 156 L 2078 156 L 2078 128 Z Z" stroke-miterlimit="10"/></g><g transform="translate(-182,2) scale(1,1)"><path fill="none" stroke="#000000" d="M 611 160 L 1703 160" stroke-miterlimit="10"/></g><g transform="translate(-182,2) scale(1,1)"><path fill="#000000" stroke="none" d="M 1692.837325142376 164.209517756016 L 1703 160 L 1692.837325142376 155.790482243984"/></g><g transform="translate(-182,2) scale(1,1)"><path fill="none" stroke="#000000" d="M 1692.837325142376 164.209517756016 L 1703 160 L 1692.837325142376 155.790482243984 L 1692.837325142376 164.209517756016" stroke-miterlimit="10"/></g><g transform="translate(-182,2) scale(1,1)"><g><path fill="none" stroke="none"/><text fill="#000000" stroke="none" font-family="Arial" font-size="13px" font-style="normal" font-weight="normal" text-decoration="none" x="1008" y="157">4 : SM4.2 : rechercherDomaines() : liste&lt;Domaine&gt;</text></g></g><g transform="translate(-182,2) scale(1,1)"><rect fill="#ffffff" stroke="none" x="1703" y="160" width="13" height="28"/></g><g transform="translate(-182,2) scale(1,1)"><path fill="none" stroke="#000000" d="M 1703 160 L 1716 160 L 1716 188 L 1703 188 L 1703 160 Z Z" stroke-miterlimit="10"/></g><g transform="translate(-182,2) scale(1,1)"><path fill="none" stroke="#000000" d="M 1716 183 L 2574 183" stroke-miterlimit="10"/></g><g transform="translate(-182,2) scale(1,1)"><path fill="#000000" stroke="none" d="M 2563.837325142376 187.209517756016 L 2574 183 L 2563.837325142376 178.790482243984"/></g><g transform="translate(-182,2) scale(1,1)"><path fill="none" stroke="#000000" d="M 2563.837325142376 187.209517756016 L 2574 183 L 2563.837325142376 178.790482243984 L 2563.837325142376 187.209517756016" stroke-miterlimit="10"/></g><g transform="translate(-182,2) scale(1,1)"><g><path fill="none" stroke="none"/><text fill="#000000" stroke="none" font-family="Arial" font-size="13px" font-style="normal" font-weight="normal" text-decoration="none" x="1976" y="179">5 : SOM4.2 : rechercherDomaine() : liste&lt;Domaine&gt;</text></g></g><g transform="translate(-182,2) scale(1,1)"><rect fill="#ffffff" stroke="none" x="2574" y="183" width="13" height="28"/></g><g transform="translate(-182,2) scale(1,1)"><path fill="none" stroke="#000000" d="M 2574 183 L 2587 183 L 2587 211 L 2574 211 L 2574 183 Z Z" stroke-miterlimit="10"/></g><g transform="translate(-182,2) scale(1,1)"><path fill="none" stroke="#000000" d="M 245 208 L 598 208" stroke-miterlimit="10"/></g><g transform="translate(-182,2) scale(1,1)"><path fill="#000000" stroke="none" d="M 587.8373251423759 212.209517756016 L 598 208 L 587.8373251423758 203.790482243984"/></g><g transform="translate(-182,2) scale(1,1)"><path fill="none" stroke="#000000" d="M 587.8373251423759 212.209517756016 L 598 208 L 587.8373251423758 203.790482243984 L 587.8373251423759 212.209517756016" stroke-miterlimit="10"/></g><g transform="translate(-182,2) scale(1,1)"><g><path fill="none" stroke="none"/><text fill="#000000" stroke="none" font-family="Arial" font-size="13px" font-style="normal" font-weight="normal" text-decoration="none" x="364" y="205">6 : consulterDomaine</text></g></g><g transform="translate(-182,2) scale(1,1)"><rect fill="#ffffff" stroke="none" x="598" y="208" width="13" height="32"/></g><g transform="translate(-182,2) scale(1,1)"><path fill="none" stroke="#000000" d="M 598 208 L 611 208 L 611 240 L 598 240 L 598 208 Z Z" stroke-miterlimit="10"/></g><g transform="translate(-182,2) scale(1,1)"><path fill="none" stroke="#000000" d="M 611 232 L 1703 232" stroke-miterlimit="10"/></g><g transform="translate(-182,2) scale(1,1)"><path fill="#000000" stroke="none" d="M 1692.837325142376 236.209517756016 L 1703 232 L 1692.837325142376 227.790482243984"/></g><g transform="translate(-182,2) scale(1,1)"><path fill="none" stroke="#000000" d="M 1692.837325142376 236.209517756016 L 1703 232 L 1692.837325142376 227.790482243984 L 1692.837325142376 236.209517756016" stroke-miterlimit="10"/></g><g transform="translate(-182,2) scale(1,1)"><g><path fill="none" stroke="none"/><text fill="#000000" stroke="none" font-family="Arial" font-size="13px" font-style="normal" font-weight="normal" text-decoration="none" x="865" y="229">7 : SM4.3 : rechercherSouscriptionContrat(idClient, idDomaine) : liste &lt;SouscriptionContrat, Contrat&gt;</text></g></g><g transform="translate(-182,2) scale(1,1)"><rect fill="#ffffff" stroke="none" x="1703" y="232" width="13" height="28"/></g><g transform="translate(-182,2) scale(1,1)"><path fill="none" stroke="#000000" d="M 1703 232 L 1716 232 L 1716 260 L 1703 260 L 1703 232 Z Z" stroke-miterlimit="10"/></g><g transform="translate(-182,2) scale(1,1)"><path fill="none" stroke="#000000" d="M 1716 248 L 2574 248" stroke-miterlimit="10"/></g><g transform="translate(-182,2) scale(1,1)"><path fill="#000000" stroke="none" d="M 2563.837325142376 252.209517756016 L 2574 248 L 2563.837325142376 243.790482243984"/></g><g transform="translate(-182,2) scale(1,1)"><path fill="none" stroke="#000000" d="M 2563.837325142376 252.209517756016 L 2574 248 L 2563.837325142376 243.790482243984 L 2563.837325142376 252.209517756016" stroke-miterlimit="10"/></g><g transform="translate(-182,2) scale(1,1)"><g><path fill="none" stroke="none"/><text fill="#000000" stroke="none" font-family="Arial" font-size="13px" font-style="normal" font-weight="normal" text-decoration="none" x="1849" y="245">8 : SOM4.3: rechercherSouscriptionsContrat(idClient, idDomaine) : liste&lt;SouscriptionContrat, Contrat&gt;</text></g></g><g transform="translate(-182,2) scale(1,1)"><rect fill="#ffffff" stroke="none" x="2574" y="248" width="13" height="28"/></g><g transform="translate(-182,2) scale(1,1)"><path fill="none" stroke="#000000" d="M 2574 248 L 2587 248 L 2587 276 L 2574 276 L 2574 248 Z Z" stroke-miterlimit="10"/></g><g transform="translate(-182,2) scale(1,1)"><path fill="none" stroke="#000000" d="M 245 320 L 598 320" stroke-miterlimit="10"/></g><g transform="translate(-182,2) scale(1,1)"><path fill="#000000" stroke="none" d="M 587.8373251423759 324.209517756016 L 598 320 L 587.8373251423758 315.790482243984"/></g><g transform="translate(-182,2) scale(1,1)"><path fill="none" stroke="#000000" d="M 587.8373251423759 324.209517756016 L 598 320 L 587.8373251423758 315.790482243984 L 587.8373251423759 324.209517756016" stroke-miterlimit="10"/></g><g transform="translate(-182,2) scale(1,1)"><g><path fill="none" stroke="none"/><text fill="#000000" stroke="none" font-family="Arial" font-size="13px" font-style="normal" font-weight="normal" text-decoration="none" x="328" y="317">9 : consulterSouscriptionContrat</text></g></g><g transform="translate(-182,2) scale(1,1)"><rect fill="#ffffff" stroke="none" x="598" y="320" width="13" height="32"/></g><g transform="translate(-182,2) scale(1,1)"><path fill="none" stroke="#000000" d="M 598 320 L 611 320 L 611 352 L 598 352 L 598 320 Z Z" stroke-miterlimit="10"/></g><g transform="translate(-182,2) scale(1,1)"><path fill="none" stroke="#000000" d="M 611 344 L 1703 344" stroke-miterlimit="10"/></g><g transform="translate(-182,2) scale(1,1)"><path fill="#000000" stroke="none" d="M 1692.837325142376 348.209517756016 L 1703 344 L 1692.837325142376 339.790482243984"/></g><g transform="translate(-182,2) scale(1,1)"><path fill="none" stroke="#000000" d="M 1692.837325142376 348.209517756016 L 1703 344 L 1692.837325142376 339.790482243984 L 1692.837325142376 348.209517756016" stroke-miterlimit="10"/></g><g transform="translate(-182,2) scale(1,1)"><g><path fill="none" stroke="none"/><text fill="#000000" stroke="none" font-family="Arial" font-size="13px" font-style="normal" font-weight="normal" text-decoration="none" x="747" y="341">10 : SM4.4 : consulterSouscriptionContrat(idSouscriptionContrat) : Contrat, SouscriptionContrat, Agent, liste&lt;Option&gt;, liste&lt;OptionSouscrite&gt;</text></g></g><g transform="translate(-182,2) scale(1,1)"><rect fill="#ffffff" stroke="none" x="1703" y="344" width="13" height="96"/></g><g transform="translate(-182,2) scale(1,1)"><path fill="none" stroke="#000000" d="M 1703 344 L 1716 344 L 1716 440 L 1703 440 L 1703 344 Z Z" stroke-miterlimit="10"/></g><g transform="translate(-182,2) scale(1,1)"><path fill="none" stroke="#000000" d="M 1716 388 L 2574 388" stroke-miterlimit="10"/></g><g transform="translate(-182,2) scale(1,1)"><path fill="#000000" stroke="none" d="M 2563.837325142376 392.209517756016 L 2574 388 L 2563.837325142376 383.790482243984"/></g><g transform="translate(-182,2) scale(1,1)"><path fill="none" stroke="#000000" d="M 2563.837325142376 392.209517756016 L 2574 388 L 2563.837325142376 383.790482243984 L 2563.837325142376 392.209517756016" stroke-miterlimit="10"/></g><g transform="translate(-182,2) scale(1,1)"><g><path fill="none" stroke="none"/><text fill="#000000" stroke="none" font-family="Arial" font-size="13px" font-style="normal" font-weight="normal" text-decoration="none" x="1749" y="385">11 : SOM4.4 : rechercherSouscriptionContrat(idSouscriptionContrat) : Contrat, SouscriptionContrat, liste&lt;Option&gt;, liste&lt;Option&gt;, idAgent</text></g></g><g transform="translate(-182,2) scale(1,1)"><rect fill="#ffffff" stroke="none" x="2574" y="388" width="13" height="28"/></g><g transform="translate(-182,2) scale(1,1)"><path fill="none" stroke="#000000" d="M 2574 388 L 2587 388 L 2587 416 L 2574 416 L 2574 388 Z Z" stroke-miterlimit="10"/></g><g transform="translate(-182,2) scale(1,1)"><path fill="none" stroke="#000000" d="M 1716 432 L 2794 432" stroke-miterlimit="10"/></g><g transform="translate(-182,2) scale(1,1)"><path fill="#000000" stroke="none" d="M 2783.837325142376 436.209517756016 L 2794 432 L 2783.837325142376 427.790482243984"/></g><g transform="translate(-182,2) scale(1,1)"><path fill="none" stroke="#000000" d="M 2783.837325142376 436.209517756016 L 2794 432 L 2783.837325142376 427.790482243984 L 2783.837325142376 436.209517756016" stroke-miterlimit="10"/></g><g transform="translate(-182,2) scale(1,1)"><g><path fill="none" stroke="none"/><text fill="#000000" stroke="none" font-family="Arial" font-size="13px" font-style="normal" font-weight="normal" text-decoration="none" x="2116" y="429">12 : SOM4.5 : rechercherAgent(idAgent) : Agent</text></g></g><g transform="translate(-182,2) scale(1,1)"><rect fill="#ffffff" stroke="none" x="2794" y="432" width="13" height="28"/></g><g transform="translate(-182,2) scale(1,1)"><path fill="none" stroke="#000000" d="M 2794 432 L 2807 432 L 2807 460 L 2794 460 L 2794 432 Z Z" stroke-miterlimit="10"/></g><g transform="translate(-182,2) scale(1,1)"><path fill="none" stroke="#000000" d="M 245 472 L 598 472" stroke-miterlimit="10"/></g><g transform="translate(-182,2) scale(1,1)"><path fill="#000000" stroke="none" d="M 587.8373251423759 476.209517756016 L 598 472 L 587.8373251423758 467.790482243984"/></g><g transform="translate(-182,2) scale(1,1)"><path fill="none" stroke="#000000" d="M 587.8373251423759 476.209517756016 L 598 472 L 587.8373251423758 467.790482243984 L 587.8373251423759 476.209517756016" stroke-miterlimit="10"/></g><g transform="translate(-182,2) scale(1,1)"><g><path fill="none" stroke="none"/><text fill="#000000" stroke="none" font-family="Arial" font-size="13px" font-style="normal" font-weight="normal" text-decoration="none" x="327" y="469">13 : nouvelleSouscriptionContrat</text></g></g><g transform="translate(-182,2) scale(1,1)"><rect fill="#ffffff" stroke="none" x="598" y="472" width="13" height="28"/></g><g transform="translate(-182,2) scale(1,1)"><path fill="none" stroke="#000000" d="M 598 472 L 611 472 L 611 500 L 598 500 L 598 472 Z Z" stroke-miterlimit="10"/></g><g transform="translate(-182,2) scale(1,1)"><path fill="none" stroke="#000000" d="M 611 480 L 1703 480" stroke-miterlimit="10"/></g><g transform="translate(-182,2) scale(1,1)"><path fill="#000000" stroke="none" d="M 1692.837325142376 484.209517756016 L 1703 480 L 1692.837325142376 475.790482243984"/></g><g transform="translate(-182,2) scale(1,1)"><path fill="none" stroke="#000000" d="M 1692.837325142376 484.209517756016 L 1703 480 L 1692.837325142376 475.790482243984 L 1692.837325142376 484.209517756016" stroke-miterlimit="10"/></g><g transform="translate(-182,2) scale(1,1)"><g><path fill="none" stroke="none"/><text fill="#000000" stroke="none" font-family="Arial" font-size="13px" font-style="normal" font-weight="normal" text-decoration="none" x="936" y="477">14 : SM4.5 : rechercherContrats(idDomaine) : liste&lt;Contrat, liste&lt;Options&gt;&gt;</text></g></g><g transform="translate(-182,2) scale(1,1)"><rect fill="#ffffff" stroke="none" x="1703" y="480" width="13" height="28"/></g><g transform="translate(-182,2) scale(1,1)"><path fill="none" stroke="#000000" d="M 1703 480 L 1716 480 L 1716 508 L 1703 508 L 1703 480 Z Z" stroke-miterlimit="10"/></g><g transform="translate(-182,2) scale(1,1)"><path fill="none" stroke="#000000" d="M 1716 496 L 2574 496" stroke-miterlimit="10"/></g><g transform="translate(-182,2) scale(1,1)"><path fill="#000000" stroke="none" d="M 2563.837325142376 500.209517756016 L 2574 496 L 2563.837325142376 491.790482243984"/></g><g transform="translate(-182,2) scale(1,1)"><path fill="none" stroke="#000000" d="M 2563.837325142376 500.209517756016 L 2574 496 L 2563.837325142376 491.790482243984 L 2563.837325142376 500.209517756016" stroke-miterlimit="10"/></g><g transform="translate(-182,2) scale(1,1)"><g><path fill="none" stroke="none"/><text fill="#000000" stroke="none" font-family="Arial" font-size="13px" font-style="normal" font-weight="normal" text-decoration="none" x="1919" y="493">15 : SOM4.6 : rechercherContrats(idDomaine) : liste&lt;Contrat, liste&lt;Options&gt;&gt;</text></g></g><g transform="translate(-182,2) scale(1,1)"><rect fill="#ffffff" stroke="none" x="2574" y="496" width="13" height="28"/></g><g transform="translate(-182,2) scale(1,1)"><path fill="none" stroke="#000000" d="M 2574 496 L 2587 496 L 2587 524 L 2574 524 L 2574 496 Z Z" stroke-miterlimit="10"/></g><g transform="translate(-182,2) scale(1,1)"><path fill="none" stroke="#000000" d="M 245 592 L 598 592" stroke-miterlimit="10"/></g><g transform="translate(-182,2) scale(1,1)"><path fill="#000000" stroke="none" d="M 587.8373251423759 596.209517756016 L 598 592 L 587.8373251423758 587.790482243984"/></g><g transform="translate(-182,2) scale(1,1)"><path fill="none" stroke="#000000" d="M 587.8373251423759 596.209517756016 L 598 592 L 587.8373251423758 587.790482243984 L 587.8373251423759 596.209517756016" stroke-miterlimit="10"/></g><g transform="translate(-182,2) scale(1,1)"><g><path fill="none" stroke="none"/><text fill="#000000" stroke="none" font-family="Arial" font-size="13px" font-style="normal" font-weight="normal" text-decoration="none" x="299" y="589">16 : validationNouvelleSouscriptionContrat</text></g></g><g transform="translate(-182,2) scale(1,1)"><rect fill="#ffffff" stroke="none" x="598" y="592" width="13" height="28"/></g><g transform="translate(-182,2) scale(1,1)"><path fill="none" stroke="#000000" d="M 598 592 L 611 592 L 611 620 L 598 620 L 598 592 Z Z" stroke-miterlimit="10"/></g><g transform="translate(-182,2) scale(1,1)"><path fill="none" stroke="#000000" d="M 611 608 L 1703 608" stroke-miterlimit="10"/></g><g transform="translate(-182,2) scale(1,1)"><path fill="#000000" stroke="none" d="M 1692.837325142376 612.209517756016 L 1703 608 L 1692.837325142376 603.790482243984"/></g><g transform="translate(-182,2) scale(1,1)"><path fill="none" stroke="#000000" d="M 1692.837325142376 612.209517756016 L 1703 608 L 1692.837325142376 603.790482243984 L 1692.837325142376 612.209517756016" stroke-miterlimit="10"/></g><g transform="translate(-182,2) scale(1,1)"><g><path fill="none" stroke="none"/><text fill="#000000" stroke="none" font-family="Arial" font-size="13px" font-style="normal" font-weight="normal" text-decoration="none" x="623" y="603">17 : SM4.6 : souscriptionContrat(idClient,  idContrat,  idAgent, dateSouscription, periodicite, liste&lt;Option&gt;) : SouscriptionContrat, Agent, liste&lt;Option&gt;, liste&lt;OptionSouscrite&gt;, Contrat</text></g></g><g transform="translate(-182,2) scale(1,1)"><rect fill="#ffffff" stroke="none" x="1703" y="608" width="13" height="152"/></g><g transform="translate(-182,2) scale(1,1)"><path fill="none" stroke="#000000" d="M 1703 608 L 1716 608 L 1716 760 L 1703 760 L 1703 608 Z Z" stroke-miterlimit="10"/></g><g transform="translate(-182,2) scale(1,1)"><path fill="none" stroke="#000000" d="M 1716 632 L 2574 632" stroke-miterlimit="10"/></g><g transform="translate(-182,2) scale(1,1)"><path fill="#000000" stroke="none" d="M 2563.837325142376 636.209517756016 L 2574 632 L 2563.837325142376 627.790482243984"/></g><g transform="translate(-182,2) scale(1,1)"><path fill="none" stroke="#000000" d="M 2563.837325142376 636.209517756016 L 2574 632 L 2563.837325142376 627.790482243984 L 2563.837325142376 636.209517756016" stroke-miterlimit="10"/></g><g transform="translate(-182,2) scale(1,1)"><g><path fill="none" stroke="none"/><text fill="#000000" stroke="none" font-family="Arial" font-size="13px" font-style="normal" font-weight="normal" text-decoration="none" x="1769" y="629">18 : SOM4.7 : souscriptionContrat(idClient,  idContrat,  idAgent, dateSouscription, periodicite, liste&lt;Option&gt;) : SouscriptionContrat</text></g></g><g transform="translate(-182,2) scale(1,1)"><rect fill="#ffffff" stroke="none" x="2574" y="632" width="13" height="28"/></g><g transform="translate(-182,2) scale(1,1)"><path fill="none" stroke="#000000" d="M 2574 632 L 2587 632 L 2587 660 L 2574 660 L 2574 632 Z Z" stroke-miterlimit="10"/></g><g transform="translate(-182,2) scale(1,1)"><path fill="none" stroke="#000000" d="M 1716 688 L 2574 688" stroke-miterlimit="10"/></g><g transform="translate(-182,2) scale(1,1)"><path fill="#000000" stroke="none" d="M 2563.837325142376 692.209517756016 L 2574 688 L 2563.837325142376 683.790482243984"/></g><g transform="translate(-182,2) scale(1,1)"><path fill="none" stroke="#000000" d="M 2563.837325142376 692.209517756016 L 2574 688 L 2563.837325142376 683.790482243984 L 2563.837325142376 692.209517756016" stroke-miterlimit="10"/></g><g transform="translate(-182,2) scale(1,1)"><g><path fill="none" stroke="none"/><text fill="#000000" stroke="none" font-family="Arial" font-size="13px" font-style="normal" font-weight="normal" text-decoration="none" x="1749" y="685">19 : SOM4.4 : rechercherSouscriptionContrat(idSouscriptionContrat) : Contrat, SouscriptionContrat, liste&lt;Option&gt;, liste&lt;Option&gt;, idAgent</text></g></g><g transform="translate(-182,2) scale(1,1)"><rect fill="#ffffff" stroke="none" x="2574" y="688" width="13" height="28"/></g><g transform="translate(-182,2) scale(1,1)"><path fill="none" stroke="#000000" d="M 2574 688 L 2587 688 L 2587 716 L 2574 716 L 2574 688 Z Z" stroke-miterlimit="10"/></g><g transform="translate(-182,2) scale(1,1)"><path fill="none" stroke="#000000" d="M 1716 752 L 2794 752" stroke-miterlimit="10"/></g><g transform="translate(-182,2) scale(1,1)"><path fill="#000000" stroke="none" d="M 2783.837325142376 756.209517756016 L 2794 752 L 2783.837325142376 747.790482243984"/></g><g transform="translate(-182,2) scale(1,1)"><path fill="none" stroke="#000000" d="M 2783.837325142376 756.209517756016 L 2794 752 L 2783.837325142376 747.790482243984 L 2783.837325142376 756.209517756016" stroke-miterlimit="10"/></g><g transform="translate(-182,2) scale(1,1)"><g><path fill="none" stroke="none"/><text fill="#000000" stroke="none" font-family="Arial" font-size="13px" font-style="normal" font-weight="normal" text-decoration="none" x="2116" y="749">20 : SOM4.5 : rechercherAgent(idAgent) : Agent</text></g></g><g transform="translate(-182,2) scale(1,1)"><rect fill="#ffffff" stroke="none" x="2794" y="752" width="13" height="28"/></g><g transform="translate(-182,2) scale(1,1)"><path fill="none" stroke="#000000" d="M 2794 752 L 2807 752 L 2807 780 L 2794 780 L 2794 752 Z Z" stroke-miterlimit="10"/></g><g transform="translate(-182,2) scale(1,1)"><path fill="none" stroke="#000000" d="M 245 824 L 598 824" stroke-miterlimit="10"/></g><g transform="translate(-182,2) scale(1,1)"><path fill="#000000" stroke="none" d="M 587.8373251423759 828.209517756016 L 598 824 L 587.8373251423758 819.790482243984"/></g><g transform="translate(-182,2) scale(1,1)"><path fill="none" stroke="#000000" d="M 587.8373251423759 828.209517756016 L 598 824 L 587.8373251423758 819.790482243984 L 587.8373251423759 828.209517756016" stroke-miterlimit="10"/></g><g transform="translate(-182,2) scale(1,1)"><g><path fill="none" stroke="none"/><text fill="#000000" stroke="none" font-family="Arial" font-size="13px" font-style="normal" font-weight="normal" text-decoration="none" x="354" y="821">21 : selectionnerOption</text></g></g><g transform="translate(-182,2) scale(1,1)"><rect fill="#ffffff" stroke="none" x="598" y="824" width="13" height="28"/></g><g transform="translate(-182,2) scale(1,1)"><path fill="none" stroke="#000000" d="M 598 824 L 611 824 L 611 852 L 598 852 L 598 824 Z Z" stroke-miterlimit="10"/></g><g transform="translate(-182,2) scale(1,1)"><path fill="none" stroke="#000000" d="M 611 832 L 1703 832" stroke-miterlimit="10"/></g><g transform="translate(-182,2) scale(1,1)"><path fill="#000000" stroke="none" d="M 1692.837325142376 836.209517756016 L 1703 832 L 1692.837325142376 827.790482243984"/></g><g transform="translate(-182,2) scale(1,1)"><path fill="none" stroke="#000000" d="M 1692.837325142376 836.209517756016 L 1703 832 L 1692.837325142376 827.790482243984 L 1692.837325142376 836.209517756016" stroke-miterlimit="10"/></g><g transform="translate(-182,2) scale(1,1)"><g><path fill="none" stroke="none"/><text fill="#000000" stroke="none" font-family="Arial" font-size="13px" font-style="normal" font-weight="normal" text-decoration="none" x="1017" y="829">22 : SM4.7 : rechercherOption(idOption) : Option</text></g></g><g transform="translate(-182,2) scale(1,1)"><rect fill="#ffffff" stroke="none" x="1703" y="832" width="13" height="28"/></g><g transform="translate(-182,2) scale(1,1)"><path fill="none" stroke="#000000" d="M 1703 832 L 1716 832 L 1716 860 L 1703 860 L 1703 832 Z Z" stroke-miterlimit="10"/></g><g transform="translate(-182,2) scale(1,1)"><path fill="none" stroke="#000000" d="M 1716 852 L 2574 852" stroke-miterlimit="10"/></g><g transform="translate(-182,2) scale(1,1)"><path fill="#000000" stroke="none" d="M 2563.837325142376 856.209517756016 L 2574 852 L 2563.837325142376 847.790482243984"/></g><g transform="translate(-182,2) scale(1,1)"><path fill="none" stroke="#000000" d="M 2563.837325142376 856.209517756016 L 2574 852 L 2563.837325142376 847.790482243984 L 2563.837325142376 856.209517756016" stroke-miterlimit="10"/></g><g transform="translate(-182,2) scale(1,1)"><g><path fill="none" stroke="none"/><text fill="#000000" stroke="none" font-family="Arial" font-size="13px" font-style="normal" font-weight="normal" text-decoration="none" x="2001" y="849">23 : S0M4.8 : rechercherOption(idOption) : Option</text></g></g><g transform="translate(-182,2) scale(1,1)"><rect fill="#ffffff" stroke="none" x="2574" y="852" width="13" height="28"/></g><g transform="translate(-182,2) scale(1,1)"><path fill="none" stroke="#000000" d="M 2574 852 L 2587 852 L 2587 880 L 2574 880 L 2574 852 Z Z" stroke-miterlimit="10"/></g><g transform="translate(-182,2) scale(1,1)"><path fill="none" stroke="#000000" d="M 245 872 L 598 872" stroke-miterlimit="10"/></g><g transform="translate(-182,2) scale(1,1)"><path fill="#000000" stroke="none" d="M 587.8373251423759 876.209517756016 L 598 872 L 587.8373251423758 867.790482243984"/></g><g transform="translate(-182,2) scale(1,1)"><path fill="none" stroke="#000000" d="M 587.8373251423759 876.209517756016 L 598 872 L 587.8373251423758 867.790482243984 L 587.8373251423759 876.209517756016" stroke-miterlimit="10"/></g><g transform="translate(-182,2) scale(1,1)"><g><path fill="none" stroke="none"/><text fill="#000000" stroke="none" font-family="Arial" font-size="13px" font-style="normal" font-weight="normal" text-decoration="none" x="328" y="869">24 : modifierSouscriptionContrat</text></g></g><g transform="translate(-182,2) scale(1,1)"><rect fill="#ffffff" stroke="none" x="598" y="872" width="13" height="28"/></g><g transform="translate(-182,2) scale(1,1)"><path fill="none" stroke="#000000" d="M 598 872 L 611 872 L 611 900 L 598 900 L 598 872 Z Z" stroke-miterlimit="10"/></g><g transform="translate(-182,2) scale(1,1)"><path fill="none" stroke="#000000" d="M 245 912 L 598 912" stroke-miterlimit="10"/></g><g transform="translate(-182,2) scale(1,1)"><path fill="#000000" stroke="none" d="M 587.8373251423759 916.209517756016 L 598 912 L 587.8373251423758 907.790482243984"/></g><g transform="translate(-182,2) scale(1,1)"><path fill="none" stroke="#000000" d="M 587.8373251423759 916.209517756016 L 598 912 L 587.8373251423758 907.790482243984 L 587.8373251423759 916.209517756016" stroke-miterlimit="10"/></g><g transform="translate(-182,2) scale(1,1)"><g><path fill="none" stroke="none"/><text fill="#000000" stroke="none" font-family="Arial" font-size="13px" font-style="normal" font-weight="normal" text-decoration="none" x="363" y="909">25 : souscrireOption</text></g></g><g transform="translate(-182,2) scale(1,1)"><rect fill="#ffffff" stroke="none" x="598" y="912" width="13" height="28"/></g><g transform="translate(-182,2) scale(1,1)"><path fill="none" stroke="#000000" d="M 598 912 L 611 912 L 611 940 L 598 940 L 598 912 Z Z" stroke-miterlimit="10"/></g><g transform="translate(-182,2) scale(1,1)"><path fill="none" stroke="#000000" d="M 245 960 L 598 960" stroke-miterlimit="10"/></g><g transform="translate(-182,2) scale(1,1)"><path fill="#000000" stroke="none" d="M 587.8373251423759 964.209517756016 L 598 960 L 587.8373251423758 955.790482243984"/></g><g transform="translate(-182,2) scale(1,1)"><path fill="none" stroke="#000000" d="M 587.8373251423759 964.209517756016 L 598 960 L 587.8373251423758 955.790482243984 L 587.8373251423759 964.209517756016" stroke-miterlimit="10"/></g><g transform="translate(-182,2) scale(1,1)"><g><path fill="none" stroke="none"/><text fill="#000000" stroke="none" font-family="Arial" font-size="13px" font-style="normal" font-weight="normal" text-decoration="none" x="370" y="957">26 : resilierOption</text></g></g><g transform="translate(-182,2) scale(1,1)"><rect fill="#ffffff" stroke="none" x="598" y="960" width="13" height="28"/></g><g transform="translate(-182,2) scale(1,1)"><path fill="none" stroke="#000000" d="M 598 960 L 611 960 L 611 988 L 598 988 L 598 960 Z Z" stroke-miterlimit="10"/></g><g transform="translate(-182,2) scale(1,1)"><path fill="none" stroke="#000000" d="M 245 1016 L 598 1016" stroke-miterlimit="10"/></g><g transform="translate(-182,2) scale(1,1)"><path fill="#000000" stroke="none" d="M 587.8373251423759 1020.209517756016 L 598 1016 L 587.8373251423758 1011.790482243984"/></g><g transform="translate(-182,2) scale(1,1)"><path fill="none" stroke="#000000" d="M 587.8373251423759 1020.209517756016 L 598 1016 L 587.8373251423758 1011.790482243984 L 587.8373251423759 1020.209517756016" stroke-miterlimit="10"/></g><g transform="translate(-182,2) scale(1,1)"><g><path fill="none" stroke="none"/><text fill="#000000" stroke="none" font-family="Arial" font-size="13px" font-style="normal" font-weight="normal" text-decoration="none" x="331" y="1013">27 : choisirPeriodicitePaiement</text></g></g><g transform="translate(-182,2) scale(1,1)"><rect fill="#ffffff" stroke="none" x="598" y="1016" width="13" height="28"/></g><g transform="translate(-182,2) scale(1,1)"><path fill="none" stroke="#000000" d="M 598 1016 L 611 1016 L 611 1044 L 598 1044 L 598 1016 Z Z" stroke-miterlimit="10"/></g><g transform="translate(-182,2) scale(1,1)"><path fill="none" stroke="#000000" d="M 245 1120 L 598 1120" stroke-miterlimit="10"/></g><g transform="translate(-182,2) scale(1,1)"><path fill="#000000" stroke="none" d="M 587.8373251423759 1124.2095177560159 L 598 1120 L 587.8373251423758 1115.7904822439841"/></g><g transform="translate(-182,2) scale(1,1)"><path fill="none" stroke="#000000" d="M 587.8373251423759 1124.2095177560159 L 598 1120 L 587.8373251423758 1115.7904822439841 L 587.8373251423759 1124.2095177560159" stroke-miterlimit="10"/></g><g transform="translate(-182,2) scale(1,1)"><g><path fill="none" stroke="none"/><text fill="#000000" stroke="none" font-family="Arial" font-size="13px" font-style="normal" font-weight="normal" text-decoration="none" x="292" y="1116">28 : validationModifitationSouscriptionContrat</text></g></g><g transform="translate(-182,2) scale(1,1)"><rect fill="#ffffff" stroke="none" x="598" y="1120" width="13" height="28"/></g><g transform="translate(-182,2) scale(1,1)"><path fill="none" stroke="#000000" d="M 598 1120 L 611 1120 L 611 1148 L 598 1148 L 598 1120 Z Z" stroke-miterlimit="10"/></g><g transform="translate(-182,2) scale(1,1)"><path fill="none" stroke="#000000" d="M 611 1128 L 1703 1128" stroke-miterlimit="10"/></g><g transform="translate(-182,2) scale(1,1)"><path fill="#000000" stroke="none" d="M 1692.837325142376 1132.2095177560159 L 1703 1128 L 1692.837325142376 1123.7904822439841"/></g><g transform="translate(-182,2) scale(1,1)"><path fill="none" stroke="#000000" d="M 1692.837325142376 1132.2095177560159 L 1703 1128 L 1692.837325142376 1123.7904822439841 L 1692.837325142376 1132.2095177560159" stroke-miterlimit="10"/></g><g transform="translate(-182,2) scale(1,1)"><g><path fill="none" stroke="none"/><text fill="#000000" stroke="none" font-family="Arial" font-size="13px" font-style="normal" font-weight="normal" text-decoration="none" x="672" y="1125">29 : SM4.8 : modifierSouscriptionContrat(idSouscriptionContrat, periodicite, liste &lt;Option&gt;) : SouscriptionContrat, liste&lt;Option&gt;, liste&lt;OptionSouscrite&gt;, Agent, Contrat</text></g></g><g transform="translate(-182,2) scale(1,1)"><rect fill="#ffffff" stroke="none" x="1703" y="1128" width="13" height="88"/></g><g transform="translate(-182,2) scale(1,1)"><path fill="none" stroke="#000000" d="M 1703 1128 L 1716 1128 L 1716 1216 L 1703 1216 L 1703 1128 Z Z" stroke-miterlimit="10"/></g><g transform="translate(-182,2) scale(1,1)"><path fill="none" stroke="#000000" d="M 1716 1136 L 2574 1136" stroke-miterlimit="10"/></g><g transform="translate(-182,2) scale(1,1)"><path fill="#000000" stroke="none" d="M 2563.837325142376 1140.2095177560159 L 2574 1136 L 2563.837325142376 1131.7904822439841"/></g><g transform="translate(-182,2) scale(1,1)"><path fill="none" stroke="#000000" d="M 2563.837325142376 1140.2095177560159 L 2574 1136 L 2563.837325142376 1131.7904822439841 L 2563.837325142376 1140.2095177560159" stroke-miterlimit="10"/></g><g transform="translate(-182,2) scale(1,1)"><g><path fill="none" stroke="none"/><text fill="#000000" stroke="none" font-family="Arial" font-size="13px" font-style="normal" font-weight="normal" text-decoration="none" x="1851" y="1133">30 : SOM4.9 : modifierContrat(idSouscriptionContrat, periodicite, liste &lt;Option&gt;) : SouscriptionContrat</text></g></g><g transform="translate(-182,2) scale(1,1)"><rect fill="#ffffff" stroke="none" x="2574" y="1136" width="13" height="28"/></g><g transform="translate(-182,2) scale(1,1)"><path fill="none" stroke="#000000" d="M 2574 1136 L 2587 1136 L 2587 1164 L 2574 1164 L 2574 1136 Z Z" stroke-miterlimit="10"/></g><g transform="translate(-182,2) scale(1,1)"><path fill="none" stroke="#000000" d="M 1716 1168 L 2574 1168" stroke-miterlimit="10"/></g><g transform="translate(-182,2) scale(1,1)"><path fill="#000000" stroke="none" d="M 2563.837325142376 1172.2095177560159 L 2574 1168 L 2563.837325142376 1163.7904822439841"/></g><g transform="translate(-182,2) scale(1,1)"><path fill="none" stroke="#000000" d="M 2563.837325142376 1172.2095177560159 L 2574 1168 L 2563.837325142376 1163.7904822439841 L 2563.837325142376 1172.2095177560159" stroke-miterlimit="10"/></g><g transform="translate(-182,2) scale(1,1)"><g><path fill="none" stroke="none"/><text fill="#000000" stroke="none" font-family="Arial" font-size="13px" font-style="normal" font-weight="normal" text-decoration="none" x="1749" y="1165">31 : SOM4.4 : rechercherSouscriptionContrat(idSouscriptionContrat) : Contrat, SouscriptionContrat, liste&lt;Option&gt;, liste&lt;Option&gt;, idAgent</text></g></g><g transform="translate(-182,2) scale(1,1)"><rect fill="#ffffff" stroke="none" x="2574" y="1168" width="13" height="28"/></g><g transform="translate(-182,2) scale(1,1)"><path fill="none" stroke="#000000" d="M 2574 1168 L 2587 1168 L 2587 1196 L 2574 1196 L 2574 1168 Z Z" stroke-miterlimit="10"/></g><g transform="translate(-182,2) scale(1,1)"><path fill="none" stroke="#000000" d="M 1716 1200 L 2794 1200" stroke-miterlimit="10"/></g><g transform="translate(-182,2) scale(1,1)"><path fill="#000000" stroke="none" d="M 2783.837325142376 1204.2095177560159 L 2794 1200 L 2783.837325142376 1195.7904822439841"/></g><g transform="translate(-182,2) scale(1,1)"><path fill="none" stroke="#000000" d="M 2783.837325142376 1204.2095177560159 L 2794 1200 L 2783.837325142376 1195.7904822439841 L 2783.837325142376 1204.2095177560159" stroke-miterlimit="10"/></g><g transform="translate(-182,2) scale(1,1)"><g><path fill="none" stroke="none"/><text fill="#000000" stroke="none" font-family="Arial" font-size="13px" font-style="normal" font-weight="normal" text-decoration="none" x="2113" y="1196">32 : SOM4.5 : rechercherAgent(idAgent) : Agent</text></g></g><g transform="translate(-182,2) scale(1,1)"><rect fill="#ffffff" stroke="none" x="2794" y="1200" width="13" height="28"/></g><g transform="translate(-182,2) scale(1,1)"><path fill="none" stroke="#000000" d="M 2794 1200 L 2807 1200 L 2807 1228 L 2794 1228 L 2794 1200 Z Z" stroke-miterlimit="10"/></g><g transform="translate(-182,2) scale(1,1)"><path fill="none" stroke="#000000" d="M 245 1224 L 598 1224" stroke-miterlimit="10"/></g><g transform="translate(-182,2) scale(1,1)"><path fill="#000000" stroke="none" d="M 587.8373251423759 1228.2095177560159 L 598 1224 L 587.8373251423758 1219.7904822439841"/></g><g transform="translate(-182,2) scale(1,1)"><path fill="none" stroke="#000000" d="M 587.8373251423759 1228.2095177560159 L 598 1224 L 587.8373251423758 1219.7904822439841 L 587.8373251423759 1228.2095177560159" stroke-miterlimit="10"/></g><g transform="translate(-182,2) scale(1,1)"><g><path fill="none" stroke="none"/><text fill="#000000" stroke="none" font-family="Arial" font-size="13px" font-style="normal" font-weight="normal" text-decoration="none" x="332" y="1221">33 : resilierSouscriptionContrat</text></g></g><g transform="translate(-182,2) scale(1,1)"><rect fill="#ffffff" stroke="none" x="598" y="1224" width="13" height="28"/></g><g transform="translate(-182,2) scale(1,1)"><path fill="none" stroke="#000000" d="M 598 1224 L 611 1224 L 611 1252 L 598 1252 L 598 1224 Z Z" stroke-miterlimit="10"/></g><g transform="translate(-182,2) scale(1,1)"><path fill="none" stroke="#000000" d="M 611 1240 L 1703 1240" stroke-miterlimit="10"/></g><g transform="translate(-182,2) scale(1,1)"><path fill="#000000" stroke="none" d="M 1692.837325142376 1244.2095177560159 L 1703 1240 L 1692.837325142376 1235.7904822439841"/></g><g transform="translate(-182,2) scale(1,1)"><path fill="none" stroke="#000000" d="M 1692.837325142376 1244.2095177560159 L 1703 1240 L 1692.837325142376 1235.7904822439841 L 1692.837325142376 1244.2095177560159" stroke-miterlimit="10"/></g><g transform="translate(-182,2) scale(1,1)"><g><path fill="none" stroke="none"/><text fill="#000000" stroke="none" font-family="Arial" font-size="13px" font-style="normal" font-weight="normal" text-decoration="none" x="753" y="1237">34 : SM4.9 : resilierSouscriptionContrat(idSouscriptionContrat) :  SouscriptionContrat, liste&lt;Option&gt;, liste&lt;OptionSouscrite&gt;, Agent, Contrat</text></g></g><g transform="translate(-182,2) scale(1,1)"><rect fill="#ffffff" stroke="none" x="1703" y="1240" width="13" height="112"/></g><g transform="translate(-182,2) scale(1,1)"><path fill="none" stroke="#000000" d="M 1703 1240 L 1716 1240 L 1716 1352 L 1703 1352 L 1703 1240 Z Z" stroke-miterlimit="10"/></g><g transform="translate(-182,2) scale(1,1)"><path fill="none" stroke="#000000" d="M 1716 1256 L 2574 1256" stroke-miterlimit="10"/></g><g transform="translate(-182,2) scale(1,1)"><path fill="#000000" stroke="none" d="M 2563.837325142376 1260.2095177560159 L 2574 1256 L 2563.837325142376 1251.7904822439841"/></g><g transform="translate(-182,2) scale(1,1)"><path fill="none" stroke="#000000" d="M 2563.837325142376 1260.2095177560159 L 2574 1256 L 2563.837325142376 1251.7904822439841 L 2563.837325142376 1260.2095177560159" stroke-miterlimit="10"/></g><g transform="translate(-182,2) scale(1,1)"><g><path fill="none" stroke="none"/><text fill="#000000" stroke="none" font-family="Arial" font-size="13px" font-style="normal" font-weight="normal" text-decoration="none" x="1894" y="1253">35 : SOM4.10 : resilierSouscriptionContrat(idSouscriptionContrat) : SouscriptionContrat</text></g></g><g transform="translate(-182,2) scale(1,1)"><rect fill="#ffffff" stroke="none" x="2574" y="1256" width="13" height="28"/></g><g transform="translate(-182,2) scale(1,1)"><path fill="none" stroke="#000000" d="M 2574 1256 L 2587 1256 L 2587 1284 L 2574 1284 L 2574 1256 Z Z" stroke-miterlimit="10"/></g><g transform="translate(-182,2) scale(1,1)"><path fill="none" stroke="#000000" d="M 1716 1288 L 2574 1288" stroke-miterlimit="10"/></g><g transform="translate(-182,2) scale(1,1)"><path fill="#000000" stroke="none" d="M 2563.837325142376 1292.2095177560159 L 2574 1288 L 2563.837325142376 1283.7904822439841"/></g><g transform="translate(-182,2) scale(1,1)"><path fill="none" stroke="#000000" d="M 2563.837325142376 1292.2095177560159 L 2574 1288 L 2563.837325142376 1283.7904822439841 L 2563.837325142376 1292.2095177560159" stroke-miterlimit="10"/></g><g transform="translate(-182,2) scale(1,1)"><g><path fill="none" stroke="none"/><text fill="#000000" stroke="none" font-family="Arial" font-size="13px" font-style="normal" font-weight="normal" text-decoration="none" x="1958" y="1285">36 : SOM4.4 : rechercherContrat(idSouscriptionContrat) : Contrat</text></g></g><g transform="translate(-182,2) scale(1,1)"><rect fill="#ffffff" stroke="none" x="2574" y="1288" width="13" height="28"/></g><g transform="translate(-182,2) scale(1,1)"><path fill="none" stroke="#000000" d="M 2574 1288 L 2587 1288 L 2587 1316 L 2574 1316 L 2574 1288 Z Z" stroke-miterlimit="10"/></g><g transform="translate(-182,2) scale(1,1)"><path fill="none" stroke="#000000" d="M 1716 1320 L 2794 1320" stroke-miterlimit="10"/></g><g transform="translate(-182,2) scale(1,1)"><path fill="#000000" stroke="none" d="M 2783.837325142376 1324.2095177560159 L 2794 1320 L 2783.837325142376 1315.7904822439841"/></g><g transform="translate(-182,2) scale(1,1)"><path fill="none" stroke="#000000" d="M 2783.837325142376 1324.2095177560159 L 2794 1320 L 2783.837325142376 1315.7904822439841 L 2783.837325142376 1324.2095177560159" stroke-miterlimit="10"/></g><g transform="translate(-182,2) scale(1,1)"><g><path fill="none" stroke="none"/><text fill="#000000" stroke="none" font-family="Arial" font-size="13px" font-style="normal" font-weight="normal" text-decoration="none" x="2116" y="1317">37 : SOM4.5 : rechercherAgent(idAgent) : Agent</text></g></g><g transform="translate(-182,2) scale(1,1)"><rect fill="#ffffff" stroke="none" x="2794" y="1320" width="13" height="28"/></g><g transform="translate(-182,2) scale(1,1)"><path fill="none" stroke="#000000" d="M 2794 1320 L 2807 1320 L 2807 1348 L 2794 1348 L 2794 1320 Z Z" stroke-miterlimit="10"/></g></g></svg>